<svg width="20" height="20" viewBox="0 0 27 27" fill="none" xmlns="http://www.w3.org/2000/svg">
    <path d="M11.6484 21.1003C11.5393 19.6296 10.3109 18.4695 8.8125 18.4695H4.125C3.97148 18.4695 3.84375 18.3418 3.84375 18.1882V4.12513C3.84375 3.97155 3.97148 3.84385 4.125 3.84385H22.875C23.0285 3.84385 23.1562 3.97155 23.1562 4.12513V18.1882C23.1562 18.3418 23.0285 18.4695 22.875 18.4695H16.1025C15.4856 18.4695 14.8878 18.6712 14.3971 19.0377L14.3962 19.0384L11.6484 21.1003ZM11.4452 25.4352L11.4744 25.4135L11.4847 25.4031L16.2693 21.8134H22.875C24.8748 21.8134 26.5 20.1881 26.5 18.1882V4.12513C26.5 2.12531 24.8748 0.5 22.875 0.5H4.125C2.1252 0.5 0.5 2.12531 0.5 4.12513V18.1882C0.5 20.1881 2.1252 21.8134 4.125 21.8134H8.3125V25.2198C8.3125 25.7015 8.57603 26.148 9.02184 26.3669C9.45663 26.5803 9.97537 26.5352 10.3625 26.2448L11.1962 25.6207L11.1971 25.6201L11.4452 25.4352Z" fill="white" stroke="white"/>
    </svg>
    