<svg width="29" height="29" viewBox="0 0 29 29" fill="none" xmlns="http://www.w3.org/2000/svg">
    <path d="M9.42255 27.0002C10.1115 27.0002 10.6701 26.4391 10.6701 25.747C10.6701 25.0549 10.1115 24.4939 9.42255 24.4939C8.73358 24.4939 8.17505 25.0549 8.17505 25.747C8.17505 26.4391 8.73358 27.0002 9.42255 27.0002Z" stroke="white" stroke-width="4" stroke-linecap="round" stroke-linejoin="round"/>
    <path d="M23.1452 27.0002C23.8342 27.0002 24.3927 26.4391 24.3927 25.747C24.3927 25.0549 23.8342 24.4939 23.1452 24.4939C22.4562 24.4939 21.8977 25.0549 21.8977 25.747C21.8977 26.4391 22.4562 27.0002 23.1452 27.0002Z" stroke="white" stroke-width="4" stroke-linecap="round" stroke-linejoin="round"/>
    <path d="M2 2H4.49501L7.81337 17.5639C7.9351 18.1339 8.25084 18.6435 8.70623 19.0048C9.16162 19.3662 9.72818 19.5568 10.3084 19.5439H22.509C23.0768 19.5429 23.6273 19.3475 24.0696 18.9898C24.5119 18.6321 24.8195 18.1335 24.9416 17.5764L27 8.26566H5.82984" stroke="white" stroke-width="4" stroke-linecap="round" stroke-linejoin="round"/>
    </svg>
    