<svg width="159" height="25" viewBox="0 0 159 25" fill="none" xmlns="http://www.w3.org/2000/svg">
    <path
        d="M14.4511 1.69098C14.3172 1.27896 13.9332 1 13.5 1C13.0668 1 12.6828 1.27896 12.5489 1.69098L10.1915 8.9463H2.56285C2.12962 8.9463 1.74567 9.22526 1.61179 9.63729C1.47792 10.0493 1.62458 10.5007 1.97506 10.7553L8.14681 15.2394L5.78941 22.4947C5.65554 22.9067 5.8022 23.3581 6.15268 23.6127C6.50317 23.8674 6.97777 23.8674 7.32825 23.6127L13.5 19.1287L19.6717 23.6127C20.0222 23.8674 20.4968 23.8674 20.8473 23.6127C21.1978 23.3581 21.3445 22.9067 21.2106 22.4947L18.8532 15.2394L25.0249 10.7553C25.3754 10.5007 25.5221 10.0493 25.3882 9.63729C25.2543 9.22526 24.8704 8.9463 24.4371 8.9463H16.8085L14.4511 1.69098Z"
        fill="black" stroke="black" stroke-width="2" stroke-linejoin="round" />
    <path
        d="M146.451 1.69098C146.317 1.27896 145.933 1 145.5 1C145.067 1 144.683 1.27896 144.549 1.69098L142.192 8.9463H134.563C134.13 8.9463 133.746 9.22526 133.612 9.63729C133.478 10.0493 133.625 10.5007 133.975 10.7553L140.147 15.2394L137.789 22.4947C137.656 22.9067 137.802 23.3581 138.153 23.6127C138.503 23.8674 138.978 23.8674 139.328 23.6127L145.5 19.1287L151.672 23.6127C152.022 23.8674 152.497 23.8674 152.847 23.6127C153.198 23.3581 153.344 22.9067 153.211 22.4947L150.853 15.2394L157.025 10.7553C157.375 10.5007 157.522 10.0493 157.388 9.63729C157.254 9.22526 156.87 8.9463 156.437 8.9463H148.808L146.451 1.69098Z"
        fill="black" stroke="black" stroke-width="2" stroke-linejoin="round" />
    <path
        d="M113.451 1.69098C113.317 1.27896 112.933 1 112.5 1C112.067 1 111.683 1.27896 111.549 1.69098L109.192 8.9463H101.563C101.13 8.9463 100.746 9.22526 100.612 9.63729C100.478 10.0493 100.625 10.5007 100.975 10.7553L107.147 15.2394L104.789 22.4947C104.656 22.9067 104.802 23.3581 105.153 23.6127C105.503 23.8674 105.978 23.8674 106.328 23.6127L112.5 19.1287L118.672 23.6127C119.022 23.8674 119.497 23.8674 119.847 23.6127C120.198 23.3581 120.344 22.9067 120.211 22.4947L117.853 15.2394L124.025 10.7553C124.375 10.5007 124.522 10.0493 124.388 9.63729C124.254 9.22526 123.87 8.9463 123.437 8.9463H115.808L113.451 1.69098Z"
        fill="black" stroke="black" stroke-width="2" stroke-linejoin="round" />
    <path
        d="M80.4511 1.69098C80.3172 1.27896 79.9332 1 79.5 1C79.0668 1 78.6828 1.27896 78.5489 1.69098L76.1915 8.9463H68.5628C68.1296 8.9463 67.7457 9.22526 67.6118 9.63729C67.4779 10.0493 67.6246 10.5007 67.9751 10.7553L74.1468 15.2394L71.7894 22.4947C71.6555 22.9067 71.8022 23.3581 72.1527 23.6127C72.5032 23.8674 72.9778 23.8674 73.3283 23.6127L79.5 19.1287L85.6717 23.6127C86.0222 23.8674 86.4968 23.8674 86.8473 23.6127C87.1978 23.3581 87.3445 22.9067 87.2106 22.4947L84.8532 15.2394L91.0249 10.7553C91.3754 10.5007 91.5221 10.0493 91.3882 9.63729C91.2543 9.22526 90.8704 8.9463 90.4371 8.9463H82.8085L80.4511 1.69098Z"
        fill="black" stroke="black" stroke-width="2" stroke-linejoin="round" />
    <path
        d="M47.4511 1.69098C47.3172 1.27896 46.9332 1 46.5 1C46.0668 1 45.6828 1.27896 45.5489 1.69098L43.1915 8.9463H35.5628C35.1296 8.9463 34.7457 9.22526 34.6118 9.63729C34.4779 10.0493 34.6246 10.5007 34.9751 10.7553L41.1468 15.2394L38.7894 22.4947C38.6555 22.9067 38.8022 23.3581 39.1527 23.6127C39.5032 23.8674 39.9778 23.8674 40.3283 23.6127L46.5 19.1287L52.6717 23.6127C53.0222 23.8674 53.4968 23.8674 53.8473 23.6127C54.1978 23.3581 54.3445 22.9067 54.2106 22.4947L51.8532 15.2394L58.0249 10.7553C58.3754 10.5007 58.5221 10.0493 58.3882 9.63729C58.2543 9.22526 57.8704 8.9463 57.4371 8.9463H49.8085L47.4511 1.69098Z"
        fill="black" stroke="black" stroke-width="2" stroke-linejoin="round" />
</svg>
    