<svg width="29" height="27" viewBox="0 0 29 27" fill="none" xmlns="http://www.w3.org/2000/svg">
    <path d="M15.9266 2.53647C15.7258 1.91844 15.1498 1.5 14.5 1.5C13.8502 1.5 13.2742 1.91844 13.0734 2.53647L10.8283 9.4463H3.56285C2.91301 9.4463 2.33708 9.86474 2.13627 10.4828C1.93545 11.1008 2.15544 11.7779 2.68117 12.1598L8.55902 16.4303L6.31388 23.3402C6.11307 23.9582 6.33306 24.6353 6.85879 25.0172C7.38452 25.3992 8.09642 25.3992 8.62215 25.0172L14.5 20.7467L20.3779 25.0172C20.9036 25.3992 21.6155 25.3992 22.1412 25.0172C22.6669 24.6353 22.8869 23.9582 22.6861 23.3402L20.441 16.4303L26.3188 12.1598C26.8446 11.7779 27.0645 11.1008 26.8637 10.4828C26.6629 9.86474 26.087 9.4463 25.4371 9.4463H18.1717L15.9266 2.53647Z" fill="white" stroke="#B70000" stroke-width="3" stroke-linejoin="round"/>
    </svg>
    