<svg width="234" height="68" viewBox="0 0 234 68" fill="none" xmlns="http://www.w3.org/2000/svg">
    <mask id="path-1-outside-1_584_144" maskUnits="userSpaceOnUse" x="0" y="0" width="234" height="68" fill="black">
    <rect fill="white" width="234" height="68"/>
    <path d="M64.2986 7.75489C64.1406 8.13529 63.9037 8.65832 63.5877 9.32401C63.3034 9.95799 62.9717 10.6871 62.5926 11.5113C62.2451 12.3354 61.8502 13.223 61.4079 14.174C60.9972 15.0933 60.5865 16.0126 60.1758 16.9318C59.1964 19.1191 58.1539 21.4648 57.0482 23.9691C56.7322 24.9201 56.7164 25.5857 57.0008 25.9661C57.3167 26.3148 57.9801 26.3624 58.9911 26.1088L58.2803 27.9632C57.9959 28.0583 57.6642 28.1375 57.2851 28.2009C56.9376 28.2643 56.5269 28.3119 56.053 28.3436C55.6107 28.3753 55.1052 28.3911 54.5366 28.3911C52.7358 28.3911 51.3616 27.8998 50.4138 26.9171C49.4976 25.9027 48.9606 24.3336 48.8026 22.2098L47.9496 10.9407C47.4441 12.272 46.9545 13.6193 46.4806 14.9823C46.0383 16.3454 45.6434 17.6292 45.2959 18.8338C44.9483 20.0067 44.664 21.0527 44.4429 21.972C44.2217 22.8913 44.0796 23.557 44.0164 23.9691C43.89 24.9201 43.9216 25.5857 44.1112 25.9661C44.3323 26.3465 44.9483 26.4099 45.9593 26.1563L45.2485 28.0107C44.9957 28.0741 44.7272 28.1375 44.4429 28.2009C44.1901 28.2643 43.9058 28.3119 43.5899 28.3436C43.3055 28.3753 43.0054 28.3911 42.6895 28.3911C41.2047 28.3911 40.2095 27.9632 39.704 27.1073C39.1986 26.2197 39.2617 25.0469 39.8936 23.5887C40.0516 23.24 40.2727 22.7328 40.557 22.0671C40.873 21.4014 41.2047 20.6565 41.5522 19.8323C41.9313 19.0081 42.3262 18.1364 42.7369 17.2171C43.1792 16.2662 43.6057 15.331 44.0164 14.4117C44.9957 12.2562 46.0383 9.92629 47.144 7.42205C47.2072 7.20016 47.2546 7.00996 47.2862 6.85146C47.3178 6.66127 47.3494 6.48692 47.3809 6.32843C46.9702 5.72614 46.3384 5.425 45.4854 5.425H45.0115V3.38039C45.2327 3.31699 45.4696 3.2536 45.7224 3.1902C45.9435 3.1268 46.1962 3.07925 46.4806 3.04755C46.7649 3.01585 47.0808 3 47.4283 3C49.2291 3 50.5876 3.50719 51.5037 4.52157C52.4199 5.50424 52.957 7.05751 53.1149 9.18136C53.1465 9.53005 53.1781 10.1165 53.2097 10.9407C53.2729 11.7332 53.3361 12.6366 53.3993 13.651C53.494 14.6653 53.573 15.7431 53.6362 16.8843C53.731 17.9938 53.81 19.0398 53.8731 20.0225C53.9679 20.9735 54.0311 21.7977 54.0627 22.4951C54.1259 23.1924 54.1575 23.6204 54.1575 23.7789C54.2207 24.2544 54.3312 24.6348 54.4892 24.9201L59.7493 7.3745C60.0652 6.42352 60.0652 5.77369 59.7493 5.425C59.465 5.04461 58.8173 4.98121 57.8064 5.2348L58.5172 3.38039C58.7699 3.31699 59.0385 3.2536 59.3228 3.1902C59.5755 3.1268 59.8441 3.07925 60.1284 3.04755C60.4127 3.01585 60.7287 3 61.0762 3C62.561 3 63.6193 3.42794 64.2512 4.28382C64.9146 5.1397 64.9304 6.29673 64.2986 7.75489Z"/>
    <path d="M75.8813 22.8755C75.6286 23.4777 75.6602 23.9057 75.9761 24.1593C76.292 24.4129 76.7185 24.4921 77.2556 24.397C77.8242 24.3019 78.4245 24.0166 79.0563 23.5411C79.6882 23.0657 80.2094 22.4 80.6201 21.5441L81.4257 22.8755C81.1098 23.6362 80.6675 24.3495 80.0989 25.0152C79.5618 25.6491 78.9458 26.2039 78.2507 26.6794C77.5873 27.1549 76.8607 27.5352 76.0709 27.8205C75.3126 28.1058 74.5544 28.2485 73.7962 28.2485C72.8169 28.2485 72.0271 28.0424 71.4268 27.6303C70.8266 27.2183 70.4474 26.6001 70.2895 25.7759C69.4997 26.5367 68.5993 27.139 67.5884 27.5828C66.609 28.0266 65.6454 28.2485 64.6977 28.2485C63.9395 28.2485 63.276 28.1217 62.7074 27.8681C62.1703 27.6145 61.7754 27.2341 61.5227 26.7269C61.2383 26.2197 61.112 25.5857 61.1435 24.825C61.1751 24.0642 61.3963 23.1924 61.807 22.2098C61.9649 21.8294 62.2019 21.2588 62.5178 20.498C62.8653 19.7055 63.2128 18.8813 63.5603 18.0255C63.9079 17.1696 64.2238 16.3613 64.5081 15.6005C64.824 14.8397 65.061 14.2849 65.2189 13.9363C65.5033 13.3023 65.5507 12.7951 65.3611 12.4147C65.1715 12.0026 64.7135 11.7966 63.9868 11.7966H63.513L64.4607 9.75195C64.7135 9.68855 64.982 9.62515 65.2663 9.56175C65.5191 9.49836 65.7876 9.45081 66.0719 9.41911C66.3879 9.38741 66.7196 9.37156 67.0671 9.37156C68.8678 9.37156 69.9894 9.87875 70.4317 10.8931C70.8739 11.8758 70.6528 13.4132 69.7682 15.5054C69.5787 15.9809 69.3101 16.6307 68.9626 17.4549C68.6467 18.2791 68.315 19.1032 67.9675 19.9274C67.5884 20.8784 67.1935 21.8611 66.7828 22.8755C66.5932 23.4143 66.5932 23.8264 66.7828 24.1117C67.0039 24.3653 67.3198 24.4921 67.7305 24.4921C68.1412 24.4921 68.6151 24.3653 69.1522 24.1117C69.6892 23.8264 70.1947 23.4143 70.6686 22.8755C70.7002 22.7487 70.7318 22.6377 70.7634 22.5426C70.795 22.4475 70.8424 22.3366 70.9055 22.2098L76.0235 9.75195H81.2836L75.8813 22.8755Z"/>
    <path d="M84.8684 23.7313C84.6157 24.397 84.5841 24.9201 84.7737 25.3004C84.9632 25.6808 85.4213 25.871 86.1479 25.871H86.6218L85.674 27.9156C85.4213 27.979 85.1528 28.0424 84.8684 28.1058C84.3945 28.2009 83.8101 28.2485 83.1151 28.2485C81.3143 28.2485 80.1928 27.7571 79.7505 26.7745C79.2766 25.7918 79.4662 24.2544 80.3191 22.1622L83.6837 13.9363C83.968 13.3023 84.0154 12.7951 83.8259 12.4147C83.6363 12.0026 83.1782 11.7966 82.4516 11.7966H81.9777L82.9255 9.75195C83.1782 9.68855 83.4468 9.62515 83.7311 9.56175C83.9838 9.49836 84.2524 9.45081 84.5367 9.41911C84.8526 9.38741 85.1686 9.37156 85.4845 9.37156C87.6327 9.37156 88.8174 10.1165 89.0386 11.6064C89.7968 10.909 90.634 10.3701 91.5502 9.98969C92.4664 9.5776 93.3825 9.37156 94.2987 9.37156C95.8467 9.37156 96.9209 9.87875 97.5211 10.8931C98.1214 11.9075 98.0108 13.4132 97.1894 15.4103C97.0314 15.8224 96.8103 16.393 96.5259 17.122C96.2416 17.8194 95.9415 18.5485 95.6256 19.3093C95.3096 20.0701 95.0095 20.7833 94.7252 21.449C94.4725 22.1147 94.2829 22.5902 94.1565 22.8755C93.9038 23.4777 93.9354 23.9057 94.2513 24.1593C94.5672 24.4129 94.9937 24.4921 95.5308 24.397C96.0995 24.3019 96.6997 24.0166 97.3315 23.5411C97.9634 23.0657 98.4847 22.4 98.8954 21.5441L99.701 22.8755C99.385 23.6362 98.9428 24.3495 98.3741 25.0152C97.837 25.6491 97.221 26.2039 96.5259 26.6794C95.8625 27.1549 95.1359 27.5352 94.3461 27.8205C93.5879 28.1058 92.8297 28.2485 92.0715 28.2485C91.3132 28.2485 90.6498 28.1217 90.0811 27.8681C89.5441 27.6145 89.1334 27.2341 88.849 26.7269C88.5647 26.2197 88.4383 25.5857 88.4699 24.825C88.5015 24.0642 88.7227 23.1924 89.1334 22.2098L92.2136 14.7921C92.4032 14.3166 92.4032 13.9521 92.2136 13.6985C92.0557 13.4132 91.7871 13.2706 91.408 13.2706C91.0289 13.2389 90.5708 13.334 90.0337 13.5559C89.5283 13.7461 89.0386 14.0789 88.5647 14.5544C88.5015 14.7129 88.4383 14.8714 88.3752 15.0299C88.3436 15.1884 88.2962 15.3469 88.233 15.5054C88.0434 16.0126 87.7749 16.6782 87.4274 17.5024C87.0799 18.3266 86.7324 19.1666 86.3849 20.0225C86.0689 20.8467 85.753 21.6075 85.4371 22.3049C85.1528 23.0023 84.9632 23.4777 84.8684 23.7313Z"/>
    <path d="M107.982 25.5857C108.645 25.5857 109.324 25.4748 110.019 25.2529C110.746 25.031 111.425 24.7457 112.057 24.397C112.721 24.0166 113.321 23.5887 113.858 23.1132C114.395 22.606 114.837 22.083 115.185 21.5441L115.99 22.8755C115.201 24.5555 113.842 25.871 111.915 26.822C109.988 27.773 107.745 28.2485 105.186 28.2485C103.859 28.2485 102.722 28.0107 101.774 27.5352C100.858 27.0281 100.147 26.3465 99.6414 25.4906C99.1359 24.6348 98.8673 23.6362 98.8358 22.4951C98.8042 21.3222 99.0411 20.0859 99.5466 18.7862C100.747 15.7114 102.342 13.3815 104.333 11.7966C106.355 10.1799 108.582 9.37156 111.015 9.37156C112.31 9.37156 113.289 9.72025 113.953 10.4176C114.616 11.0833 114.979 11.9075 115.043 12.8902C115.137 13.8412 114.932 14.8714 114.427 15.9809C113.953 17.0586 113.21 18.0255 112.199 18.8813C110.778 20.0542 109.135 20.6407 107.271 20.6407H104.238C103.827 22.0671 103.969 23.2558 104.665 24.2068C105.391 25.1261 106.497 25.5857 107.982 25.5857ZM109.83 11.5113C109.514 11.6381 109.135 11.9234 108.693 12.3671C108.282 12.8109 107.855 13.3657 107.413 14.0314C106.971 14.697 106.513 15.442 106.039 16.2662C105.596 17.0903 105.202 17.9462 104.854 18.8338H106.513C107.239 18.8338 107.855 18.6119 108.361 18.1681C108.866 17.7243 109.34 17.0428 109.782 16.1235C110.162 15.4261 110.462 14.7604 110.683 14.1265C110.904 13.4925 111.03 12.9536 111.062 12.5098C111.094 12.066 111.015 11.749 110.825 11.5588C110.635 11.3369 110.304 11.3211 109.83 11.5113Z"/>
    <path d="M123.94 13.0804C124.919 12.8902 125.835 12.9219 126.688 13.1755C127.541 13.3974 128.236 13.8095 128.773 14.4117C129.31 14.9823 129.658 15.7431 129.816 16.6941C130.005 17.6134 129.926 18.6753 129.579 19.8799C129.105 21.4648 128.489 22.7962 127.731 23.874C126.973 24.9201 126.104 25.7759 125.124 26.4416C124.145 27.0756 123.087 27.5352 121.949 27.8205C120.812 28.1058 119.627 28.2485 118.395 28.2485C117.384 28.2485 116.579 28.0266 115.978 27.5828C115.41 27.1073 115.015 26.5209 114.794 25.8235C114.573 25.0944 114.525 24.2861 114.652 23.3985C114.778 22.4792 115.078 21.5916 115.552 20.7358C115.963 19.9433 116.389 19.2934 116.831 18.7862C117.274 18.2474 117.7 17.8353 118.111 17.55C118.522 17.233 118.901 17.0269 119.248 16.9318C119.596 16.805 119.88 16.7416 120.101 16.7416C120.986 16.7416 121.57 17.1062 121.855 17.8353C122.139 18.5327 122.092 19.3885 121.712 20.4029C121.239 21.5758 120.607 22.4792 119.817 23.1132C119.059 23.7472 118.206 24.0642 117.258 24.0642C117.1 24.0642 116.895 24.0325 116.642 23.9691C116.579 24.6031 116.674 25.1261 116.926 25.5382C117.211 25.9503 117.669 26.1563 118.301 26.1563C118.901 26.1563 119.485 25.9978 120.054 25.6808C120.654 25.3638 121.207 24.9201 121.712 24.3495C122.218 23.7789 122.692 23.1132 123.134 22.3524C123.576 21.5916 123.956 20.7675 124.271 19.8799C125.124 17.5975 125.267 16.0126 124.698 15.125C124.161 14.2374 122.992 14.0631 121.191 14.6019C120.749 14.7287 120.37 14.7129 120.054 14.5544C119.738 14.3642 119.501 14.0948 119.343 13.7461C119.185 13.3974 119.09 12.9853 119.059 12.5098C119.059 12.0343 119.153 11.543 119.343 11.0358C119.817 9.8312 120.433 8.91192 121.191 8.27793C121.981 7.64395 122.85 7.32695 123.798 7.32695C124.714 7.32695 125.298 7.6915 125.551 8.42058C125.835 9.11796 125.788 9.98969 125.409 11.0358C125.282 11.3211 125.093 11.6856 124.84 12.1294C124.587 12.5415 124.287 12.8585 123.94 13.0804Z"/>
    <path d="M146.918 3.1902C147.708 3.34869 148.387 3.66569 148.956 4.14118C149.556 4.58497 149.982 5.1397 150.235 5.80539C150.488 6.43937 150.567 7.16846 150.472 7.99264C150.409 8.81682 150.109 9.68855 149.572 10.6078C149.003 11.6222 148.34 12.3037 147.581 12.6524C146.823 13.0011 146.16 13.0011 145.591 12.6524C145.022 12.3037 144.691 11.749 144.596 10.9882C144.533 10.1957 144.722 9.41911 145.164 8.65832C145.607 7.92924 146.175 7.42205 146.87 7.13676C147.597 6.81977 148.245 6.83561 148.813 7.18431C148.845 6.64542 148.64 6.15408 148.197 5.71029C147.755 5.2665 147.076 4.96536 146.16 4.80686C145.086 4.64836 144.075 4.85441 143.127 5.425C142.179 5.99558 141.5 6.77222 141.089 7.75489C140.615 8.83267 140.647 9.87875 141.184 10.8931C141.721 11.9075 142.606 12.8109 143.838 13.6034C145.512 14.6178 146.713 15.8382 147.439 17.2647C148.166 18.6911 148.166 20.3395 147.439 22.2098C147.028 23.1924 146.428 24.1117 145.638 24.9676C144.88 25.8235 143.98 26.5526 142.937 27.1549C141.895 27.7254 140.757 28.1375 139.525 28.3911C138.293 28.6447 137.029 28.6764 135.734 28.4862C134.755 28.3277 133.918 27.979 133.223 27.4402C132.559 26.8696 132.054 26.2039 131.706 25.4431C131.39 24.6823 131.248 23.8581 131.28 22.9706C131.343 22.0513 131.596 21.1795 132.038 20.3554C132.512 19.4361 133.128 18.7228 133.886 18.2157C134.676 17.7085 135.418 17.6451 136.113 18.0255C136.682 18.3425 136.998 18.8972 137.061 19.6897C137.156 20.4822 136.982 21.2429 136.54 21.972C136.129 22.6694 135.592 23.1766 134.929 23.4936C134.297 23.7789 133.697 23.8106 133.128 23.5887C133.033 24.191 133.317 24.8091 133.981 25.4431C134.644 26.0454 135.513 26.4575 136.587 26.6794C137.124 26.8062 137.693 26.8062 138.293 26.6794C138.925 26.5526 139.525 26.3307 140.094 26.0137C140.663 25.6967 141.168 25.3005 141.61 24.825C142.084 24.3178 142.448 23.7472 142.7 23.1132C143.174 21.8452 143.095 20.7675 142.463 19.8799C141.832 18.9923 140.757 18.0255 139.241 16.9794C138.483 16.4722 137.851 15.8541 137.345 15.125C136.84 14.3959 136.477 13.6034 136.255 12.7475C136.066 11.8917 136.019 11.0199 136.113 10.1323C136.24 9.24476 136.556 8.37303 137.061 7.51715C137.535 6.69297 138.135 5.96388 138.862 5.3299C139.62 4.69591 140.441 4.18872 141.326 3.80833C142.211 3.42794 143.127 3.1902 144.075 3.0951C145.054 2.9683 146.002 3 146.918 3.1902Z"/>
    <path d="M155.199 28.2485C153.998 28.2485 153.082 27.8364 152.45 27.0122L150.555 31.672C150.27 32.306 150.223 32.8132 150.412 33.1936C150.634 33.6057 151.092 33.8117 151.787 33.8117H152.261L151.265 35.8563C151.013 35.9197 150.744 35.9831 150.46 36.0465C150.207 36.1099 149.923 36.1575 149.607 36.1892C149.322 36.2209 149.022 36.2367 148.706 36.2367C146.906 36.2367 145.8 35.7295 145.389 34.7151C144.947 33.7325 145.152 32.195 146.005 30.1029C146.132 29.7859 146.369 29.1995 146.716 28.3436C147.064 27.4877 147.458 26.505 147.901 25.3955C148.343 24.2861 148.817 23.129 149.322 21.9245C149.828 20.6882 150.302 19.5312 150.744 18.4534C151.186 17.3439 151.565 16.393 151.881 15.6005C152.197 14.7763 152.418 14.2215 152.545 13.9363C152.829 13.3023 152.861 12.7951 152.64 12.4147C152.45 12.0026 151.992 11.7966 151.265 11.7966H150.839L151.787 9.75195C152.039 9.68855 152.308 9.62515 152.592 9.56175C152.845 9.49836 153.114 9.45081 153.398 9.41911C153.714 9.38741 154.03 9.37156 154.346 9.37156C156.557 9.37156 157.758 10.1323 157.947 11.6539C158.832 10.9248 159.716 10.3701 160.601 9.98969C161.517 9.5776 162.386 9.37156 163.207 9.37156C164.281 9.37156 165.15 9.62515 165.814 10.1323C166.509 10.6078 166.998 11.2735 167.283 12.1294C167.599 12.9853 167.693 13.9838 167.567 15.125C167.441 16.2662 167.109 17.4866 166.572 18.7862C165.182 22.0513 163.476 24.4446 161.454 25.9661C159.464 27.4877 157.378 28.2485 155.199 28.2485ZM153.256 25.1103C153.54 25.4906 153.982 25.6808 154.583 25.6808C155.151 25.6808 155.688 25.5699 156.194 25.348C156.731 25.1261 157.252 24.7616 157.758 24.2544C158.295 23.7155 158.832 23.034 159.369 22.2098C159.906 21.3539 160.49 20.3078 161.122 19.0715C161.564 18.1523 161.912 17.2805 162.165 16.4563C162.449 15.6322 162.607 14.9189 162.639 14.3166C162.67 13.7144 162.56 13.2389 162.307 12.8902C162.086 12.5415 161.707 12.3671 161.17 12.3671C160.632 12.3671 160.064 12.5256 159.464 12.8426C158.863 13.1279 158.247 13.54 157.615 14.0789C157.552 14.3325 157.473 14.5702 157.378 14.7921C157.315 15.014 157.236 15.2518 157.142 15.5054L153.256 25.1103Z"/>
    <path d="M180.154 9.37156C181.292 9.37156 182.24 9.62515 182.998 10.1323C183.788 10.6078 184.356 11.2735 184.704 12.1294C185.051 12.9853 185.193 13.9838 185.13 15.125C185.067 16.2662 184.783 17.4866 184.277 18.7862C183.709 20.2761 183.014 21.6075 182.192 22.7804C181.371 23.9215 180.455 24.9042 179.444 25.7284C178.464 26.5526 177.406 27.1866 176.269 27.6303C175.163 28.0424 174.01 28.2485 172.809 28.2485C171.64 28.2485 170.677 28.0107 169.919 27.5352C169.16 27.0281 168.608 26.3465 168.26 25.4906C167.912 24.6348 167.786 23.6362 167.881 22.4951C167.944 21.3222 168.228 20.0859 168.734 18.7862C169.934 15.7748 171.514 13.4608 173.473 11.8441C175.463 10.1957 177.69 9.37156 180.154 9.37156ZM178.97 18.8338C179.349 17.8511 179.649 16.916 179.87 16.0284C180.123 15.1408 180.281 14.3642 180.344 13.6985C180.407 13.0011 180.376 12.4464 180.249 12.0343C180.123 11.6222 179.87 11.4162 179.491 11.4162C179.112 11.4162 178.685 11.6222 178.212 12.0343C177.738 12.4464 177.248 13.0011 176.742 13.6985C176.269 14.3642 175.795 15.1408 175.321 16.0284C174.847 16.916 174.42 17.8511 174.041 18.8338C173.662 19.7848 173.346 20.7041 173.094 21.5916C172.841 22.4475 172.683 23.2083 172.62 23.874C172.588 24.5397 172.651 25.0786 172.809 25.4906C172.967 25.871 173.236 26.0612 173.615 26.0612C173.994 26.0612 174.405 25.871 174.847 25.4906C175.321 25.0786 175.795 24.5397 176.269 23.874C176.742 23.2083 177.216 22.4475 177.69 21.5916C178.164 20.7041 178.591 19.7848 178.97 18.8338Z"/>
    <path d="M192.807 5.90049C193.723 5.90049 194.324 6.26503 194.608 6.99411C194.892 7.6915 194.829 8.54738 194.418 9.56175C194.134 10.3225 193.786 10.9565 193.376 11.4637H197.546C197.451 11.749 197.277 12.1928 197.025 12.7951C196.772 13.3974 196.488 14.0948 196.172 14.8872C195.856 15.6797 195.508 16.5039 195.129 17.3598C194.782 18.2157 194.45 19.024 194.134 19.7848C193.818 20.5456 193.534 21.2112 193.281 21.7818C193.06 22.3207 192.918 22.6853 192.855 22.8755C192.602 23.4777 192.633 23.9057 192.949 24.1593C193.265 24.4129 193.692 24.4921 194.229 24.397C194.797 24.3019 195.398 24.0166 196.03 23.5411C196.661 23.0657 197.183 22.4 197.593 21.5441L198.399 22.8755C198.083 23.6362 197.641 24.3495 197.072 25.0152C196.535 25.6491 195.919 26.2039 195.224 26.6794C194.56 27.1549 193.834 27.5352 193.044 27.8205C192.286 28.1058 191.528 28.2485 190.769 28.2485C190.011 28.2485 189.348 28.1217 188.779 27.8681C188.242 27.6145 187.831 27.2341 187.547 26.7269C187.294 26.2197 187.184 25.5857 187.215 24.825C187.247 24.0642 187.468 23.1924 187.879 22.2098L191.765 12.7951C191.196 13.0804 190.596 13.223 189.964 13.223C189.079 13.223 188.495 12.8743 188.21 12.1769C187.926 11.4479 188.005 10.5761 188.447 9.56175C188.89 8.38888 189.49 7.48545 190.248 6.85146C191.038 6.21748 191.891 5.90049 192.807 5.90049Z"/>
    <path d="M208.256 8.42058L202.332 22.8755C202.079 23.4777 202.111 23.9057 202.427 24.1593C202.743 24.4129 203.169 24.4921 203.706 24.397C204.275 24.3019 204.875 24.0166 205.507 23.5411C206.139 23.0657 206.66 22.4 207.071 21.5441L207.877 22.8755C207.561 23.6362 207.118 24.3495 206.55 25.0152C206.013 25.6491 205.397 26.2039 204.702 26.6794C204.038 27.1549 203.312 27.5352 202.522 27.8205C201.764 28.1058 201.005 28.2485 200.247 28.2485C199.489 28.2485 198.825 28.1217 198.257 27.8681C197.72 27.6145 197.309 27.2341 197.025 26.7269C196.74 26.2197 196.614 25.5857 196.646 24.825C196.677 24.0642 196.898 23.1924 197.309 22.2098L202.996 8.42058H200.294L201.621 5.99558H203.991L204.559 4.56912L210.246 3.47549L209.203 5.99558H213.468L212.142 8.42058H208.256Z"/>
    <path d="M215.847 13.0804C216.826 12.8902 217.743 12.9219 218.596 13.1755C219.449 13.3974 220.144 13.8095 220.681 14.4117C221.218 14.9823 221.565 15.7431 221.723 16.6941C221.913 17.6134 221.834 18.6753 221.486 19.8799C221.012 21.4648 220.396 22.7962 219.638 23.874C218.88 24.9201 218.011 25.7759 217.032 26.4416C216.052 27.0756 214.994 27.5352 213.857 27.8205C212.719 28.1058 211.535 28.2485 210.303 28.2485C209.292 28.2485 208.486 28.0266 207.886 27.5828C207.317 27.1073 206.922 26.5209 206.701 25.8235C206.48 25.0944 206.433 24.2861 206.559 23.3985C206.685 22.4792 206.985 21.5916 207.459 20.7358C207.87 19.9433 208.297 19.2934 208.739 18.7862C209.181 18.2474 209.608 17.8353 210.018 17.55C210.429 17.233 210.808 17.0269 211.156 16.9318C211.503 16.805 211.788 16.7416 212.009 16.7416C212.893 16.7416 213.478 17.1062 213.762 17.8353C214.046 18.5327 213.999 19.3885 213.62 20.4029C213.146 21.5758 212.514 22.4792 211.724 23.1132C210.966 23.7472 210.113 24.0642 209.165 24.0642C209.007 24.0642 208.802 24.0325 208.549 23.9691C208.486 24.6031 208.581 25.1261 208.834 25.5382C209.118 25.9503 209.576 26.1563 210.208 26.1563C210.808 26.1563 211.393 25.9978 211.961 25.6808C212.562 25.3638 213.114 24.9201 213.62 24.3495C214.125 23.7789 214.599 23.1132 215.041 22.3524C215.484 21.5916 215.863 20.7675 216.179 19.8799C217.032 17.5975 217.174 16.0126 216.605 15.125C216.068 14.2374 214.899 14.0631 213.099 14.6019C212.656 14.7287 212.277 14.7129 211.961 14.5544C211.645 14.3642 211.408 14.0948 211.25 13.7461C211.092 13.3974 210.998 12.9853 210.966 12.5098C210.966 12.0343 211.061 11.543 211.25 11.0358C211.724 9.8312 212.34 8.91192 213.099 8.27793C213.888 7.64395 214.757 7.32695 215.705 7.32695C216.621 7.32695 217.206 7.6915 217.458 8.42058C217.743 9.11796 217.695 9.98969 217.316 11.0358C217.19 11.3211 217 11.6856 216.747 12.1294C216.495 12.5415 216.195 12.8585 215.847 13.0804Z"/>
    <path d="M181.284 47.8862C175.352 47.8862 169.069 47.7453 162.434 47.4635C155.765 47.1818 148.92 46.8824 141.9 46.5654C134.844 46.2484 127.718 45.9842 120.522 45.7729C113.291 45.5968 106.165 45.5792 99.1448 45.7201C92.1243 45.861 85.2968 46.2484 78.6625 46.8824C71.993 47.5516 65.7097 48.573 59.8125 49.9466C53.8802 51.3555 48.4393 53.187 43.4898 55.4412C38.5053 57.7306 34.1701 60.5835 30.4844 64C29.8876 62.5559 28.8521 61.2175 27.3778 59.9848C25.9035 58.7872 24.0606 57.8715 21.8492 57.2375C19.6377 56.6035 17.1103 56.3217 14.267 56.3922C11.4237 56.4978 8.33473 57.1494 5 58.347C6.72001 55.3531 9.17718 52.465 12.3715 49.6825C15.5658 46.9 19.4798 44.4169 24.1133 42.2332C28.7468 40.0494 34.0999 38.2531 40.1726 36.8443C46.2454 35.4706 53.0202 34.6782 60.497 34.4668C70.2203 34.1851 79.4347 34.2027 88.1401 34.5197C96.8455 34.8719 105.217 35.365 113.256 35.999C121.259 36.6329 129.017 37.3374 136.529 38.1122C144.041 38.8871 151.483 39.5563 158.854 40.1199C166.19 40.6834 173.527 41.0708 180.863 41.2822C188.2 41.4935 195.712 41.3526 203.399 40.8595C207.295 40.613 210.718 40.0494 213.667 39.1689C216.615 38.3236 219.107 37.2845 221.143 36.0518C223.214 34.819 224.864 33.4806 226.093 32.0365C227.321 30.6277 228.164 29.2188 228.62 27.81C229.076 26.4011 229.147 25.0979 228.831 23.9004C228.55 22.6676 227.936 21.6638 226.988 20.889C225.584 19.7619 224.145 19.4273 222.67 19.8852C221.196 20.343 219.985 21.5758 219.037 23.5834L218.195 22.1041C218.756 20.9066 219.423 19.9908 220.196 19.3568C221.003 18.6876 221.828 18.2474 222.67 18.036C223.548 17.8247 224.425 17.8247 225.303 18.036C226.216 18.2121 227.058 18.5467 227.83 19.0398C228.919 19.7443 229.831 20.6952 230.568 21.8928C231.341 23.0551 231.797 24.3759 231.937 25.8552C232.113 27.3345 231.92 28.9018 231.358 30.5572C230.832 32.2479 229.814 33.9033 228.304 35.5235C226.83 37.1437 224.829 38.6934 222.302 40.1727C219.774 41.6872 216.615 43.008 212.824 44.1351C208.998 45.2974 204.487 46.2132 199.292 46.8824C194.097 47.5516 188.094 47.8862 181.284 47.8862Z"/>
    </mask>
    <path d="M64.2986 7.75489C64.1406 8.13529 63.9037 8.65832 63.5877 9.32401C63.3034 9.95799 62.9717 10.6871 62.5926 11.5113C62.2451 12.3354 61.8502 13.223 61.4079 14.174C60.9972 15.0933 60.5865 16.0126 60.1758 16.9318C59.1964 19.1191 58.1539 21.4648 57.0482 23.9691C56.7322 24.9201 56.7164 25.5857 57.0008 25.9661C57.3167 26.3148 57.9801 26.3624 58.9911 26.1088L58.2803 27.9632C57.9959 28.0583 57.6642 28.1375 57.2851 28.2009C56.9376 28.2643 56.5269 28.3119 56.053 28.3436C55.6107 28.3753 55.1052 28.3911 54.5366 28.3911C52.7358 28.3911 51.3616 27.8998 50.4138 26.9171C49.4976 25.9027 48.9606 24.3336 48.8026 22.2098L47.9496 10.9407C47.4441 12.272 46.9545 13.6193 46.4806 14.9823C46.0383 16.3454 45.6434 17.6292 45.2959 18.8338C44.9483 20.0067 44.664 21.0527 44.4429 21.972C44.2217 22.8913 44.0796 23.557 44.0164 23.9691C43.89 24.9201 43.9216 25.5857 44.1112 25.9661C44.3323 26.3465 44.9483 26.4099 45.9593 26.1563L45.2485 28.0107C44.9957 28.0741 44.7272 28.1375 44.4429 28.2009C44.1901 28.2643 43.9058 28.3119 43.5899 28.3436C43.3055 28.3753 43.0054 28.3911 42.6895 28.3911C41.2047 28.3911 40.2095 27.9632 39.704 27.1073C39.1986 26.2197 39.2617 25.0469 39.8936 23.5887C40.0516 23.24 40.2727 22.7328 40.557 22.0671C40.873 21.4014 41.2047 20.6565 41.5522 19.8323C41.9313 19.0081 42.3262 18.1364 42.7369 17.2171C43.1792 16.2662 43.6057 15.331 44.0164 14.4117C44.9957 12.2562 46.0383 9.92629 47.144 7.42205C47.2072 7.20016 47.2546 7.00996 47.2862 6.85146C47.3178 6.66127 47.3494 6.48692 47.3809 6.32843C46.9702 5.72614 46.3384 5.425 45.4854 5.425H45.0115V3.38039C45.2327 3.31699 45.4696 3.2536 45.7224 3.1902C45.9435 3.1268 46.1962 3.07925 46.4806 3.04755C46.7649 3.01585 47.0808 3 47.4283 3C49.2291 3 50.5876 3.50719 51.5037 4.52157C52.4199 5.50424 52.957 7.05751 53.1149 9.18136C53.1465 9.53005 53.1781 10.1165 53.2097 10.9407C53.2729 11.7332 53.3361 12.6366 53.3993 13.651C53.494 14.6653 53.573 15.7431 53.6362 16.8843C53.731 17.9938 53.81 19.0398 53.8731 20.0225C53.9679 20.9735 54.0311 21.7977 54.0627 22.4951C54.1259 23.1924 54.1575 23.6204 54.1575 23.7789C54.2207 24.2544 54.3312 24.6348 54.4892 24.9201L59.7493 7.3745C60.0652 6.42352 60.0652 5.77369 59.7493 5.425C59.465 5.04461 58.8173 4.98121 57.8064 5.2348L58.5172 3.38039C58.7699 3.31699 59.0385 3.2536 59.3228 3.1902C59.5755 3.1268 59.8441 3.07925 60.1284 3.04755C60.4127 3.01585 60.7287 3 61.0762 3C62.561 3 63.6193 3.42794 64.2512 4.28382C64.9146 5.1397 64.9304 6.29673 64.2986 7.75489Z" fill="white"/>
    <path d="M75.8813 22.8755C75.6286 23.4777 75.6602 23.9057 75.9761 24.1593C76.292 24.4129 76.7185 24.4921 77.2556 24.397C77.8242 24.3019 78.4245 24.0166 79.0563 23.5411C79.6882 23.0657 80.2094 22.4 80.6201 21.5441L81.4257 22.8755C81.1098 23.6362 80.6675 24.3495 80.0989 25.0152C79.5618 25.6491 78.9458 26.2039 78.2507 26.6794C77.5873 27.1549 76.8607 27.5352 76.0709 27.8205C75.3126 28.1058 74.5544 28.2485 73.7962 28.2485C72.8169 28.2485 72.0271 28.0424 71.4268 27.6303C70.8266 27.2183 70.4474 26.6001 70.2895 25.7759C69.4997 26.5367 68.5993 27.139 67.5884 27.5828C66.609 28.0266 65.6454 28.2485 64.6977 28.2485C63.9395 28.2485 63.276 28.1217 62.7074 27.8681C62.1703 27.6145 61.7754 27.2341 61.5227 26.7269C61.2383 26.2197 61.112 25.5857 61.1435 24.825C61.1751 24.0642 61.3963 23.1924 61.807 22.2098C61.9649 21.8294 62.2019 21.2588 62.5178 20.498C62.8653 19.7055 63.2128 18.8813 63.5603 18.0255C63.9079 17.1696 64.2238 16.3613 64.5081 15.6005C64.824 14.8397 65.061 14.2849 65.2189 13.9363C65.5033 13.3023 65.5507 12.7951 65.3611 12.4147C65.1715 12.0026 64.7135 11.7966 63.9868 11.7966H63.513L64.4607 9.75195C64.7135 9.68855 64.982 9.62515 65.2663 9.56175C65.5191 9.49836 65.7876 9.45081 66.0719 9.41911C66.3879 9.38741 66.7196 9.37156 67.0671 9.37156C68.8678 9.37156 69.9894 9.87875 70.4317 10.8931C70.8739 11.8758 70.6528 13.4132 69.7682 15.5054C69.5787 15.9809 69.3101 16.6307 68.9626 17.4549C68.6467 18.2791 68.315 19.1032 67.9675 19.9274C67.5884 20.8784 67.1935 21.8611 66.7828 22.8755C66.5932 23.4143 66.5932 23.8264 66.7828 24.1117C67.0039 24.3653 67.3198 24.4921 67.7305 24.4921C68.1412 24.4921 68.6151 24.3653 69.1522 24.1117C69.6892 23.8264 70.1947 23.4143 70.6686 22.8755C70.7002 22.7487 70.7318 22.6377 70.7634 22.5426C70.795 22.4475 70.8424 22.3366 70.9055 22.2098L76.0235 9.75195H81.2836L75.8813 22.8755Z" fill="white"/>
    <path d="M84.8684 23.7313C84.6157 24.397 84.5841 24.9201 84.7737 25.3004C84.9632 25.6808 85.4213 25.871 86.1479 25.871H86.6218L85.674 27.9156C85.4213 27.979 85.1528 28.0424 84.8684 28.1058C84.3945 28.2009 83.8101 28.2485 83.1151 28.2485C81.3143 28.2485 80.1928 27.7571 79.7505 26.7745C79.2766 25.7918 79.4662 24.2544 80.3191 22.1622L83.6837 13.9363C83.968 13.3023 84.0154 12.7951 83.8259 12.4147C83.6363 12.0026 83.1782 11.7966 82.4516 11.7966H81.9777L82.9255 9.75195C83.1782 9.68855 83.4468 9.62515 83.7311 9.56175C83.9838 9.49836 84.2524 9.45081 84.5367 9.41911C84.8526 9.38741 85.1686 9.37156 85.4845 9.37156C87.6327 9.37156 88.8174 10.1165 89.0386 11.6064C89.7968 10.909 90.634 10.3701 91.5502 9.98969C92.4664 9.5776 93.3825 9.37156 94.2987 9.37156C95.8467 9.37156 96.9209 9.87875 97.5211 10.8931C98.1214 11.9075 98.0108 13.4132 97.1894 15.4103C97.0314 15.8224 96.8103 16.393 96.5259 17.122C96.2416 17.8194 95.9415 18.5485 95.6256 19.3093C95.3096 20.0701 95.0095 20.7833 94.7252 21.449C94.4725 22.1147 94.2829 22.5902 94.1565 22.8755C93.9038 23.4777 93.9354 23.9057 94.2513 24.1593C94.5672 24.4129 94.9937 24.4921 95.5308 24.397C96.0995 24.3019 96.6997 24.0166 97.3315 23.5411C97.9634 23.0657 98.4847 22.4 98.8954 21.5441L99.701 22.8755C99.385 23.6362 98.9428 24.3495 98.3741 25.0152C97.837 25.6491 97.221 26.2039 96.5259 26.6794C95.8625 27.1549 95.1359 27.5352 94.3461 27.8205C93.5879 28.1058 92.8297 28.2485 92.0715 28.2485C91.3132 28.2485 90.6498 28.1217 90.0811 27.8681C89.5441 27.6145 89.1334 27.2341 88.849 26.7269C88.5647 26.2197 88.4383 25.5857 88.4699 24.825C88.5015 24.0642 88.7227 23.1924 89.1334 22.2098L92.2136 14.7921C92.4032 14.3166 92.4032 13.9521 92.2136 13.6985C92.0557 13.4132 91.7871 13.2706 91.408 13.2706C91.0289 13.2389 90.5708 13.334 90.0337 13.5559C89.5283 13.7461 89.0386 14.0789 88.5647 14.5544C88.5015 14.7129 88.4383 14.8714 88.3752 15.0299C88.3436 15.1884 88.2962 15.3469 88.233 15.5054C88.0434 16.0126 87.7749 16.6782 87.4274 17.5024C87.0799 18.3266 86.7324 19.1666 86.3849 20.0225C86.0689 20.8467 85.753 21.6075 85.4371 22.3049C85.1528 23.0023 84.9632 23.4777 84.8684 23.7313Z" fill="white"/>
    <path d="M107.982 25.5857C108.645 25.5857 109.324 25.4748 110.019 25.2529C110.746 25.031 111.425 24.7457 112.057 24.397C112.721 24.0166 113.321 23.5887 113.858 23.1132C114.395 22.606 114.837 22.083 115.185 21.5441L115.99 22.8755C115.201 24.5555 113.842 25.871 111.915 26.822C109.988 27.773 107.745 28.2485 105.186 28.2485C103.859 28.2485 102.722 28.0107 101.774 27.5352C100.858 27.0281 100.147 26.3465 99.6414 25.4906C99.1359 24.6348 98.8673 23.6362 98.8358 22.4951C98.8042 21.3222 99.0411 20.0859 99.5466 18.7862C100.747 15.7114 102.342 13.3815 104.333 11.7966C106.355 10.1799 108.582 9.37156 111.015 9.37156C112.31 9.37156 113.289 9.72025 113.953 10.4176C114.616 11.0833 114.979 11.9075 115.043 12.8902C115.137 13.8412 114.932 14.8714 114.427 15.9809C113.953 17.0586 113.21 18.0255 112.199 18.8813C110.778 20.0542 109.135 20.6407 107.271 20.6407H104.238C103.827 22.0671 103.969 23.2558 104.665 24.2068C105.391 25.1261 106.497 25.5857 107.982 25.5857ZM109.83 11.5113C109.514 11.6381 109.135 11.9234 108.693 12.3671C108.282 12.8109 107.855 13.3657 107.413 14.0314C106.971 14.697 106.513 15.442 106.039 16.2662C105.596 17.0903 105.202 17.9462 104.854 18.8338H106.513C107.239 18.8338 107.855 18.6119 108.361 18.1681C108.866 17.7243 109.34 17.0428 109.782 16.1235C110.162 15.4261 110.462 14.7604 110.683 14.1265C110.904 13.4925 111.03 12.9536 111.062 12.5098C111.094 12.066 111.015 11.749 110.825 11.5588C110.635 11.3369 110.304 11.3211 109.83 11.5113Z" fill="white"/>
    <path d="M123.94 13.0804C124.919 12.8902 125.835 12.9219 126.688 13.1755C127.541 13.3974 128.236 13.8095 128.773 14.4117C129.31 14.9823 129.658 15.7431 129.816 16.6941C130.005 17.6134 129.926 18.6753 129.579 19.8799C129.105 21.4648 128.489 22.7962 127.731 23.874C126.973 24.9201 126.104 25.7759 125.124 26.4416C124.145 27.0756 123.087 27.5352 121.949 27.8205C120.812 28.1058 119.627 28.2485 118.395 28.2485C117.384 28.2485 116.579 28.0266 115.978 27.5828C115.41 27.1073 115.015 26.5209 114.794 25.8235C114.573 25.0944 114.525 24.2861 114.652 23.3985C114.778 22.4792 115.078 21.5916 115.552 20.7358C115.963 19.9433 116.389 19.2934 116.831 18.7862C117.274 18.2474 117.7 17.8353 118.111 17.55C118.522 17.233 118.901 17.0269 119.248 16.9318C119.596 16.805 119.88 16.7416 120.101 16.7416C120.986 16.7416 121.57 17.1062 121.855 17.8353C122.139 18.5327 122.092 19.3885 121.712 20.4029C121.239 21.5758 120.607 22.4792 119.817 23.1132C119.059 23.7472 118.206 24.0642 117.258 24.0642C117.1 24.0642 116.895 24.0325 116.642 23.9691C116.579 24.6031 116.674 25.1261 116.926 25.5382C117.211 25.9503 117.669 26.1563 118.301 26.1563C118.901 26.1563 119.485 25.9978 120.054 25.6808C120.654 25.3638 121.207 24.9201 121.712 24.3495C122.218 23.7789 122.692 23.1132 123.134 22.3524C123.576 21.5916 123.956 20.7675 124.271 19.8799C125.124 17.5975 125.267 16.0126 124.698 15.125C124.161 14.2374 122.992 14.0631 121.191 14.6019C120.749 14.7287 120.37 14.7129 120.054 14.5544C119.738 14.3642 119.501 14.0948 119.343 13.7461C119.185 13.3974 119.09 12.9853 119.059 12.5098C119.059 12.0343 119.153 11.543 119.343 11.0358C119.817 9.8312 120.433 8.91192 121.191 8.27793C121.981 7.64395 122.85 7.32695 123.798 7.32695C124.714 7.32695 125.298 7.6915 125.551 8.42058C125.835 9.11796 125.788 9.98969 125.409 11.0358C125.282 11.3211 125.093 11.6856 124.84 12.1294C124.587 12.5415 124.287 12.8585 123.94 13.0804Z" fill="white"/>
    <path d="M146.918 3.1902C147.708 3.34869 148.387 3.66569 148.956 4.14118C149.556 4.58497 149.982 5.1397 150.235 5.80539C150.488 6.43937 150.567 7.16846 150.472 7.99264C150.409 8.81682 150.109 9.68855 149.572 10.6078C149.003 11.6222 148.34 12.3037 147.581 12.6524C146.823 13.0011 146.16 13.0011 145.591 12.6524C145.022 12.3037 144.691 11.749 144.596 10.9882C144.533 10.1957 144.722 9.41911 145.164 8.65832C145.607 7.92924 146.175 7.42205 146.87 7.13676C147.597 6.81977 148.245 6.83561 148.813 7.18431C148.845 6.64542 148.64 6.15408 148.197 5.71029C147.755 5.2665 147.076 4.96536 146.16 4.80686C145.086 4.64836 144.075 4.85441 143.127 5.425C142.179 5.99558 141.5 6.77222 141.089 7.75489C140.615 8.83267 140.647 9.87875 141.184 10.8931C141.721 11.9075 142.606 12.8109 143.838 13.6034C145.512 14.6178 146.713 15.8382 147.439 17.2647C148.166 18.6911 148.166 20.3395 147.439 22.2098C147.028 23.1924 146.428 24.1117 145.638 24.9676C144.88 25.8235 143.98 26.5526 142.937 27.1549C141.895 27.7254 140.757 28.1375 139.525 28.3911C138.293 28.6447 137.029 28.6764 135.734 28.4862C134.755 28.3277 133.918 27.979 133.223 27.4402C132.559 26.8696 132.054 26.2039 131.706 25.4431C131.39 24.6823 131.248 23.8581 131.28 22.9706C131.343 22.0513 131.596 21.1795 132.038 20.3554C132.512 19.4361 133.128 18.7228 133.886 18.2157C134.676 17.7085 135.418 17.6451 136.113 18.0255C136.682 18.3425 136.998 18.8972 137.061 19.6897C137.156 20.4822 136.982 21.2429 136.54 21.972C136.129 22.6694 135.592 23.1766 134.929 23.4936C134.297 23.7789 133.697 23.8106 133.128 23.5887C133.033 24.191 133.317 24.8091 133.981 25.4431C134.644 26.0454 135.513 26.4575 136.587 26.6794C137.124 26.8062 137.693 26.8062 138.293 26.6794C138.925 26.5526 139.525 26.3307 140.094 26.0137C140.663 25.6967 141.168 25.3005 141.61 24.825C142.084 24.3178 142.448 23.7472 142.7 23.1132C143.174 21.8452 143.095 20.7675 142.463 19.8799C141.832 18.9923 140.757 18.0255 139.241 16.9794C138.483 16.4722 137.851 15.8541 137.345 15.125C136.84 14.3959 136.477 13.6034 136.255 12.7475C136.066 11.8917 136.019 11.0199 136.113 10.1323C136.24 9.24476 136.556 8.37303 137.061 7.51715C137.535 6.69297 138.135 5.96388 138.862 5.3299C139.62 4.69591 140.441 4.18872 141.326 3.80833C142.211 3.42794 143.127 3.1902 144.075 3.0951C145.054 2.9683 146.002 3 146.918 3.1902Z" fill="white"/>
    <path d="M155.199 28.2485C153.998 28.2485 153.082 27.8364 152.45 27.0122L150.555 31.672C150.27 32.306 150.223 32.8132 150.412 33.1936C150.634 33.6057 151.092 33.8117 151.787 33.8117H152.261L151.265 35.8563C151.013 35.9197 150.744 35.9831 150.46 36.0465C150.207 36.1099 149.923 36.1575 149.607 36.1892C149.322 36.2209 149.022 36.2367 148.706 36.2367C146.906 36.2367 145.8 35.7295 145.389 34.7151C144.947 33.7325 145.152 32.195 146.005 30.1029C146.132 29.7859 146.369 29.1995 146.716 28.3436C147.064 27.4877 147.458 26.505 147.901 25.3955C148.343 24.2861 148.817 23.129 149.322 21.9245C149.828 20.6882 150.302 19.5312 150.744 18.4534C151.186 17.3439 151.565 16.393 151.881 15.6005C152.197 14.7763 152.418 14.2215 152.545 13.9363C152.829 13.3023 152.861 12.7951 152.64 12.4147C152.45 12.0026 151.992 11.7966 151.265 11.7966H150.839L151.787 9.75195C152.039 9.68855 152.308 9.62515 152.592 9.56175C152.845 9.49836 153.114 9.45081 153.398 9.41911C153.714 9.38741 154.03 9.37156 154.346 9.37156C156.557 9.37156 157.758 10.1323 157.947 11.6539C158.832 10.9248 159.716 10.3701 160.601 9.98969C161.517 9.5776 162.386 9.37156 163.207 9.37156C164.281 9.37156 165.15 9.62515 165.814 10.1323C166.509 10.6078 166.998 11.2735 167.283 12.1294C167.599 12.9853 167.693 13.9838 167.567 15.125C167.441 16.2662 167.109 17.4866 166.572 18.7862C165.182 22.0513 163.476 24.4446 161.454 25.9661C159.464 27.4877 157.378 28.2485 155.199 28.2485ZM153.256 25.1103C153.54 25.4906 153.982 25.6808 154.583 25.6808C155.151 25.6808 155.688 25.5699 156.194 25.348C156.731 25.1261 157.252 24.7616 157.758 24.2544C158.295 23.7155 158.832 23.034 159.369 22.2098C159.906 21.3539 160.49 20.3078 161.122 19.0715C161.564 18.1523 161.912 17.2805 162.165 16.4563C162.449 15.6322 162.607 14.9189 162.639 14.3166C162.67 13.7144 162.56 13.2389 162.307 12.8902C162.086 12.5415 161.707 12.3671 161.17 12.3671C160.632 12.3671 160.064 12.5256 159.464 12.8426C158.863 13.1279 158.247 13.54 157.615 14.0789C157.552 14.3325 157.473 14.5702 157.378 14.7921C157.315 15.014 157.236 15.2518 157.142 15.5054L153.256 25.1103Z" fill="white"/>
    <path d="M180.154 9.37156C181.292 9.37156 182.24 9.62515 182.998 10.1323C183.788 10.6078 184.356 11.2735 184.704 12.1294C185.051 12.9853 185.193 13.9838 185.13 15.125C185.067 16.2662 184.783 17.4866 184.277 18.7862C183.709 20.2761 183.014 21.6075 182.192 22.7804C181.371 23.9215 180.455 24.9042 179.444 25.7284C178.464 26.5526 177.406 27.1866 176.269 27.6303C175.163 28.0424 174.01 28.2485 172.809 28.2485C171.64 28.2485 170.677 28.0107 169.919 27.5352C169.16 27.0281 168.608 26.3465 168.26 25.4906C167.912 24.6348 167.786 23.6362 167.881 22.4951C167.944 21.3222 168.228 20.0859 168.734 18.7862C169.934 15.7748 171.514 13.4608 173.473 11.8441C175.463 10.1957 177.69 9.37156 180.154 9.37156ZM178.97 18.8338C179.349 17.8511 179.649 16.916 179.87 16.0284C180.123 15.1408 180.281 14.3642 180.344 13.6985C180.407 13.0011 180.376 12.4464 180.249 12.0343C180.123 11.6222 179.87 11.4162 179.491 11.4162C179.112 11.4162 178.685 11.6222 178.212 12.0343C177.738 12.4464 177.248 13.0011 176.742 13.6985C176.269 14.3642 175.795 15.1408 175.321 16.0284C174.847 16.916 174.42 17.8511 174.041 18.8338C173.662 19.7848 173.346 20.7041 173.094 21.5916C172.841 22.4475 172.683 23.2083 172.62 23.874C172.588 24.5397 172.651 25.0786 172.809 25.4906C172.967 25.871 173.236 26.0612 173.615 26.0612C173.994 26.0612 174.405 25.871 174.847 25.4906C175.321 25.0786 175.795 24.5397 176.269 23.874C176.742 23.2083 177.216 22.4475 177.69 21.5916C178.164 20.7041 178.591 19.7848 178.97 18.8338Z" fill="white"/>
    <path d="M192.807 5.90049C193.723 5.90049 194.324 6.26503 194.608 6.99411C194.892 7.6915 194.829 8.54738 194.418 9.56175C194.134 10.3225 193.786 10.9565 193.376 11.4637H197.546C197.451 11.749 197.277 12.1928 197.025 12.7951C196.772 13.3974 196.488 14.0948 196.172 14.8872C195.856 15.6797 195.508 16.5039 195.129 17.3598C194.782 18.2157 194.45 19.024 194.134 19.7848C193.818 20.5456 193.534 21.2112 193.281 21.7818C193.06 22.3207 192.918 22.6853 192.855 22.8755C192.602 23.4777 192.633 23.9057 192.949 24.1593C193.265 24.4129 193.692 24.4921 194.229 24.397C194.797 24.3019 195.398 24.0166 196.03 23.5411C196.661 23.0657 197.183 22.4 197.593 21.5441L198.399 22.8755C198.083 23.6362 197.641 24.3495 197.072 25.0152C196.535 25.6491 195.919 26.2039 195.224 26.6794C194.56 27.1549 193.834 27.5352 193.044 27.8205C192.286 28.1058 191.528 28.2485 190.769 28.2485C190.011 28.2485 189.348 28.1217 188.779 27.8681C188.242 27.6145 187.831 27.2341 187.547 26.7269C187.294 26.2197 187.184 25.5857 187.215 24.825C187.247 24.0642 187.468 23.1924 187.879 22.2098L191.765 12.7951C191.196 13.0804 190.596 13.223 189.964 13.223C189.079 13.223 188.495 12.8743 188.21 12.1769C187.926 11.4479 188.005 10.5761 188.447 9.56175C188.89 8.38888 189.49 7.48545 190.248 6.85146C191.038 6.21748 191.891 5.90049 192.807 5.90049Z" fill="white"/>
    <path d="M208.256 8.42058L202.332 22.8755C202.079 23.4777 202.111 23.9057 202.427 24.1593C202.743 24.4129 203.169 24.4921 203.706 24.397C204.275 24.3019 204.875 24.0166 205.507 23.5411C206.139 23.0657 206.66 22.4 207.071 21.5441L207.877 22.8755C207.561 23.6362 207.118 24.3495 206.55 25.0152C206.013 25.6491 205.397 26.2039 204.702 26.6794C204.038 27.1549 203.312 27.5352 202.522 27.8205C201.764 28.1058 201.005 28.2485 200.247 28.2485C199.489 28.2485 198.825 28.1217 198.257 27.8681C197.72 27.6145 197.309 27.2341 197.025 26.7269C196.74 26.2197 196.614 25.5857 196.646 24.825C196.677 24.0642 196.898 23.1924 197.309 22.2098L202.996 8.42058H200.294L201.621 5.99558H203.991L204.559 4.56912L210.246 3.47549L209.203 5.99558H213.468L212.142 8.42058H208.256Z" fill="white"/>
    <path d="M215.847 13.0804C216.826 12.8902 217.743 12.9219 218.596 13.1755C219.449 13.3974 220.144 13.8095 220.681 14.4117C221.218 14.9823 221.565 15.7431 221.723 16.6941C221.913 17.6134 221.834 18.6753 221.486 19.8799C221.012 21.4648 220.396 22.7962 219.638 23.874C218.88 24.9201 218.011 25.7759 217.032 26.4416C216.052 27.0756 214.994 27.5352 213.857 27.8205C212.719 28.1058 211.535 28.2485 210.303 28.2485C209.292 28.2485 208.486 28.0266 207.886 27.5828C207.317 27.1073 206.922 26.5209 206.701 25.8235C206.48 25.0944 206.433 24.2861 206.559 23.3985C206.685 22.4792 206.985 21.5916 207.459 20.7358C207.87 19.9433 208.297 19.2934 208.739 18.7862C209.181 18.2474 209.608 17.8353 210.018 17.55C210.429 17.233 210.808 17.0269 211.156 16.9318C211.503 16.805 211.788 16.7416 212.009 16.7416C212.893 16.7416 213.478 17.1062 213.762 17.8353C214.046 18.5327 213.999 19.3885 213.62 20.4029C213.146 21.5758 212.514 22.4792 211.724 23.1132C210.966 23.7472 210.113 24.0642 209.165 24.0642C209.007 24.0642 208.802 24.0325 208.549 23.9691C208.486 24.6031 208.581 25.1261 208.834 25.5382C209.118 25.9503 209.576 26.1563 210.208 26.1563C210.808 26.1563 211.393 25.9978 211.961 25.6808C212.562 25.3638 213.114 24.9201 213.62 24.3495C214.125 23.7789 214.599 23.1132 215.041 22.3524C215.484 21.5916 215.863 20.7675 216.179 19.8799C217.032 17.5975 217.174 16.0126 216.605 15.125C216.068 14.2374 214.899 14.0631 213.099 14.6019C212.656 14.7287 212.277 14.7129 211.961 14.5544C211.645 14.3642 211.408 14.0948 211.25 13.7461C211.092 13.3974 210.998 12.9853 210.966 12.5098C210.966 12.0343 211.061 11.543 211.25 11.0358C211.724 9.8312 212.34 8.91192 213.099 8.27793C213.888 7.64395 214.757 7.32695 215.705 7.32695C216.621 7.32695 217.206 7.6915 217.458 8.42058C217.743 9.11796 217.695 9.98969 217.316 11.0358C217.19 11.3211 217 11.6856 216.747 12.1294C216.495 12.5415 216.195 12.8585 215.847 13.0804Z" fill="white"/>
    <path d="M181.284 47.8862C175.352 47.8862 169.069 47.7453 162.434 47.4635C155.765 47.1818 148.92 46.8824 141.9 46.5654C134.844 46.2484 127.718 45.9842 120.522 45.7729C113.291 45.5968 106.165 45.5792 99.1448 45.7201C92.1243 45.861 85.2968 46.2484 78.6625 46.8824C71.993 47.5516 65.7097 48.573 59.8125 49.9466C53.8802 51.3555 48.4393 53.187 43.4898 55.4412C38.5053 57.7306 34.1701 60.5835 30.4844 64C29.8876 62.5559 28.8521 61.2175 27.3778 59.9848C25.9035 58.7872 24.0606 57.8715 21.8492 57.2375C19.6377 56.6035 17.1103 56.3217 14.267 56.3922C11.4237 56.4978 8.33473 57.1494 5 58.347C6.72001 55.3531 9.17718 52.465 12.3715 49.6825C15.5658 46.9 19.4798 44.4169 24.1133 42.2332C28.7468 40.0494 34.0999 38.2531 40.1726 36.8443C46.2454 35.4706 53.0202 34.6782 60.497 34.4668C70.2203 34.1851 79.4347 34.2027 88.1401 34.5197C96.8455 34.8719 105.217 35.365 113.256 35.999C121.259 36.6329 129.017 37.3374 136.529 38.1122C144.041 38.8871 151.483 39.5563 158.854 40.1199C166.19 40.6834 173.527 41.0708 180.863 41.2822C188.2 41.4935 195.712 41.3526 203.399 40.8595C207.295 40.613 210.718 40.0494 213.667 39.1689C216.615 38.3236 219.107 37.2845 221.143 36.0518C223.214 34.819 224.864 33.4806 226.093 32.0365C227.321 30.6277 228.164 29.2188 228.62 27.81C229.076 26.4011 229.147 25.0979 228.831 23.9004C228.55 22.6676 227.936 21.6638 226.988 20.889C225.584 19.7619 224.145 19.4273 222.67 19.8852C221.196 20.343 219.985 21.5758 219.037 23.5834L218.195 22.1041C218.756 20.9066 219.423 19.9908 220.196 19.3568C221.003 18.6876 221.828 18.2474 222.67 18.036C223.548 17.8247 224.425 17.8247 225.303 18.036C226.216 18.2121 227.058 18.5467 227.83 19.0398C228.919 19.7443 229.831 20.6952 230.568 21.8928C231.341 23.0551 231.797 24.3759 231.937 25.8552C232.113 27.3345 231.92 28.9018 231.358 30.5572C230.832 32.2479 229.814 33.9033 228.304 35.5235C226.83 37.1437 224.829 38.6934 222.302 40.1727C219.774 41.6872 216.615 43.008 212.824 44.1351C208.998 45.2974 204.487 46.2132 199.292 46.8824C194.097 47.5516 188.094 47.8862 181.284 47.8862Z" fill="white"/>
    <path d="M64.2986 7.75489C64.1406 8.13529 63.9037 8.65832 63.5877 9.32401C63.3034 9.95799 62.9717 10.6871 62.5926 11.5113C62.2451 12.3354 61.8502 13.223 61.4079 14.174C60.9972 15.0933 60.5865 16.0126 60.1758 16.9318C59.1964 19.1191 58.1539 21.4648 57.0482 23.9691C56.7322 24.9201 56.7164 25.5857 57.0008 25.9661C57.3167 26.3148 57.9801 26.3624 58.9911 26.1088L58.2803 27.9632C57.9959 28.0583 57.6642 28.1375 57.2851 28.2009C56.9376 28.2643 56.5269 28.3119 56.053 28.3436C55.6107 28.3753 55.1052 28.3911 54.5366 28.3911C52.7358 28.3911 51.3616 27.8998 50.4138 26.9171C49.4976 25.9027 48.9606 24.3336 48.8026 22.2098L47.9496 10.9407C47.4441 12.272 46.9545 13.6193 46.4806 14.9823C46.0383 16.3454 45.6434 17.6292 45.2959 18.8338C44.9483 20.0067 44.664 21.0527 44.4429 21.972C44.2217 22.8913 44.0796 23.557 44.0164 23.9691C43.89 24.9201 43.9216 25.5857 44.1112 25.9661C44.3323 26.3465 44.9483 26.4099 45.9593 26.1563L45.2485 28.0107C44.9957 28.0741 44.7272 28.1375 44.4429 28.2009C44.1901 28.2643 43.9058 28.3119 43.5899 28.3436C43.3055 28.3753 43.0054 28.3911 42.6895 28.3911C41.2047 28.3911 40.2095 27.9632 39.704 27.1073C39.1986 26.2197 39.2617 25.0469 39.8936 23.5887C40.0516 23.24 40.2727 22.7328 40.557 22.0671C40.873 21.4014 41.2047 20.6565 41.5522 19.8323C41.9313 19.0081 42.3262 18.1364 42.7369 17.2171C43.1792 16.2662 43.6057 15.331 44.0164 14.4117C44.9957 12.2562 46.0383 9.92629 47.144 7.42205C47.2072 7.20016 47.2546 7.00996 47.2862 6.85146C47.3178 6.66127 47.3494 6.48692 47.3809 6.32843C46.9702 5.72614 46.3384 5.425 45.4854 5.425H45.0115V3.38039C45.2327 3.31699 45.4696 3.2536 45.7224 3.1902C45.9435 3.1268 46.1962 3.07925 46.4806 3.04755C46.7649 3.01585 47.0808 3 47.4283 3C49.2291 3 50.5876 3.50719 51.5037 4.52157C52.4199 5.50424 52.957 7.05751 53.1149 9.18136C53.1465 9.53005 53.1781 10.1165 53.2097 10.9407C53.2729 11.7332 53.3361 12.6366 53.3993 13.651C53.494 14.6653 53.573 15.7431 53.6362 16.8843C53.731 17.9938 53.81 19.0398 53.8731 20.0225C53.9679 20.9735 54.0311 21.7977 54.0627 22.4951C54.1259 23.1924 54.1575 23.6204 54.1575 23.7789C54.2207 24.2544 54.3312 24.6348 54.4892 24.9201L59.7493 7.3745C60.0652 6.42352 60.0652 5.77369 59.7493 5.425C59.465 5.04461 58.8173 4.98121 57.8064 5.2348L58.5172 3.38039C58.7699 3.31699 59.0385 3.2536 59.3228 3.1902C59.5755 3.1268 59.8441 3.07925 60.1284 3.04755C60.4127 3.01585 60.7287 3 61.0762 3C62.561 3 63.6193 3.42794 64.2512 4.28382C64.9146 5.1397 64.9304 6.29673 64.2986 7.75489Z" stroke="#B70000" stroke-width="4" mask="url(#path-1-outside-1_584_144)"/>
    <path d="M75.8813 22.8755C75.6286 23.4777 75.6602 23.9057 75.9761 24.1593C76.292 24.4129 76.7185 24.4921 77.2556 24.397C77.8242 24.3019 78.4245 24.0166 79.0563 23.5411C79.6882 23.0657 80.2094 22.4 80.6201 21.5441L81.4257 22.8755C81.1098 23.6362 80.6675 24.3495 80.0989 25.0152C79.5618 25.6491 78.9458 26.2039 78.2507 26.6794C77.5873 27.1549 76.8607 27.5352 76.0709 27.8205C75.3126 28.1058 74.5544 28.2485 73.7962 28.2485C72.8169 28.2485 72.0271 28.0424 71.4268 27.6303C70.8266 27.2183 70.4474 26.6001 70.2895 25.7759C69.4997 26.5367 68.5993 27.139 67.5884 27.5828C66.609 28.0266 65.6454 28.2485 64.6977 28.2485C63.9395 28.2485 63.276 28.1217 62.7074 27.8681C62.1703 27.6145 61.7754 27.2341 61.5227 26.7269C61.2383 26.2197 61.112 25.5857 61.1435 24.825C61.1751 24.0642 61.3963 23.1924 61.807 22.2098C61.9649 21.8294 62.2019 21.2588 62.5178 20.498C62.8653 19.7055 63.2128 18.8813 63.5603 18.0255C63.9079 17.1696 64.2238 16.3613 64.5081 15.6005C64.824 14.8397 65.061 14.2849 65.2189 13.9363C65.5033 13.3023 65.5507 12.7951 65.3611 12.4147C65.1715 12.0026 64.7135 11.7966 63.9868 11.7966H63.513L64.4607 9.75195C64.7135 9.68855 64.982 9.62515 65.2663 9.56175C65.5191 9.49836 65.7876 9.45081 66.0719 9.41911C66.3879 9.38741 66.7196 9.37156 67.0671 9.37156C68.8678 9.37156 69.9894 9.87875 70.4317 10.8931C70.8739 11.8758 70.6528 13.4132 69.7682 15.5054C69.5787 15.9809 69.3101 16.6307 68.9626 17.4549C68.6467 18.2791 68.315 19.1032 67.9675 19.9274C67.5884 20.8784 67.1935 21.8611 66.7828 22.8755C66.5932 23.4143 66.5932 23.8264 66.7828 24.1117C67.0039 24.3653 67.3198 24.4921 67.7305 24.4921C68.1412 24.4921 68.6151 24.3653 69.1522 24.1117C69.6892 23.8264 70.1947 23.4143 70.6686 22.8755C70.7002 22.7487 70.7318 22.6377 70.7634 22.5426C70.795 22.4475 70.8424 22.3366 70.9055 22.2098L76.0235 9.75195H81.2836L75.8813 22.8755Z" stroke="#B70000" stroke-width="4" mask="url(#path-1-outside-1_584_144)"/>
    <path d="M84.8684 23.7313C84.6157 24.397 84.5841 24.9201 84.7737 25.3004C84.9632 25.6808 85.4213 25.871 86.1479 25.871H86.6218L85.674 27.9156C85.4213 27.979 85.1528 28.0424 84.8684 28.1058C84.3945 28.2009 83.8101 28.2485 83.1151 28.2485C81.3143 28.2485 80.1928 27.7571 79.7505 26.7745C79.2766 25.7918 79.4662 24.2544 80.3191 22.1622L83.6837 13.9363C83.968 13.3023 84.0154 12.7951 83.8259 12.4147C83.6363 12.0026 83.1782 11.7966 82.4516 11.7966H81.9777L82.9255 9.75195C83.1782 9.68855 83.4468 9.62515 83.7311 9.56175C83.9838 9.49836 84.2524 9.45081 84.5367 9.41911C84.8526 9.38741 85.1686 9.37156 85.4845 9.37156C87.6327 9.37156 88.8174 10.1165 89.0386 11.6064C89.7968 10.909 90.634 10.3701 91.5502 9.98969C92.4664 9.5776 93.3825 9.37156 94.2987 9.37156C95.8467 9.37156 96.9209 9.87875 97.5211 10.8931C98.1214 11.9075 98.0108 13.4132 97.1894 15.4103C97.0314 15.8224 96.8103 16.393 96.5259 17.122C96.2416 17.8194 95.9415 18.5485 95.6256 19.3093C95.3096 20.0701 95.0095 20.7833 94.7252 21.449C94.4725 22.1147 94.2829 22.5902 94.1565 22.8755C93.9038 23.4777 93.9354 23.9057 94.2513 24.1593C94.5672 24.4129 94.9937 24.4921 95.5308 24.397C96.0995 24.3019 96.6997 24.0166 97.3315 23.5411C97.9634 23.0657 98.4847 22.4 98.8954 21.5441L99.701 22.8755C99.385 23.6362 98.9428 24.3495 98.3741 25.0152C97.837 25.6491 97.221 26.2039 96.5259 26.6794C95.8625 27.1549 95.1359 27.5352 94.3461 27.8205C93.5879 28.1058 92.8297 28.2485 92.0715 28.2485C91.3132 28.2485 90.6498 28.1217 90.0811 27.8681C89.5441 27.6145 89.1334 27.2341 88.849 26.7269C88.5647 26.2197 88.4383 25.5857 88.4699 24.825C88.5015 24.0642 88.7227 23.1924 89.1334 22.2098L92.2136 14.7921C92.4032 14.3166 92.4032 13.9521 92.2136 13.6985C92.0557 13.4132 91.7871 13.2706 91.408 13.2706C91.0289 13.2389 90.5708 13.334 90.0337 13.5559C89.5283 13.7461 89.0386 14.0789 88.5647 14.5544C88.5015 14.7129 88.4383 14.8714 88.3752 15.0299C88.3436 15.1884 88.2962 15.3469 88.233 15.5054C88.0434 16.0126 87.7749 16.6782 87.4274 17.5024C87.0799 18.3266 86.7324 19.1666 86.3849 20.0225C86.0689 20.8467 85.753 21.6075 85.4371 22.3049C85.1528 23.0023 84.9632 23.4777 84.8684 23.7313Z" stroke="#B70000" stroke-width="4" mask="url(#path-1-outside-1_584_144)"/>
    <path d="M107.982 25.5857C108.645 25.5857 109.324 25.4748 110.019 25.2529C110.746 25.031 111.425 24.7457 112.057 24.397C112.721 24.0166 113.321 23.5887 113.858 23.1132C114.395 22.606 114.837 22.083 115.185 21.5441L115.99 22.8755C115.201 24.5555 113.842 25.871 111.915 26.822C109.988 27.773 107.745 28.2485 105.186 28.2485C103.859 28.2485 102.722 28.0107 101.774 27.5352C100.858 27.0281 100.147 26.3465 99.6414 25.4906C99.1359 24.6348 98.8673 23.6362 98.8358 22.4951C98.8042 21.3222 99.0411 20.0859 99.5466 18.7862C100.747 15.7114 102.342 13.3815 104.333 11.7966C106.355 10.1799 108.582 9.37156 111.015 9.37156C112.31 9.37156 113.289 9.72025 113.953 10.4176C114.616 11.0833 114.979 11.9075 115.043 12.8902C115.137 13.8412 114.932 14.8714 114.427 15.9809C113.953 17.0586 113.21 18.0255 112.199 18.8813C110.778 20.0542 109.135 20.6407 107.271 20.6407H104.238C103.827 22.0671 103.969 23.2558 104.665 24.2068C105.391 25.1261 106.497 25.5857 107.982 25.5857ZM109.83 11.5113C109.514 11.6381 109.135 11.9234 108.693 12.3671C108.282 12.8109 107.855 13.3657 107.413 14.0314C106.971 14.697 106.513 15.442 106.039 16.2662C105.596 17.0903 105.202 17.9462 104.854 18.8338H106.513C107.239 18.8338 107.855 18.6119 108.361 18.1681C108.866 17.7243 109.34 17.0428 109.782 16.1235C110.162 15.4261 110.462 14.7604 110.683 14.1265C110.904 13.4925 111.03 12.9536 111.062 12.5098C111.094 12.066 111.015 11.749 110.825 11.5588C110.635 11.3369 110.304 11.3211 109.83 11.5113Z" stroke="#B70000" stroke-width="4" mask="url(#path-1-outside-1_584_144)"/>
    <path d="M123.94 13.0804C124.919 12.8902 125.835 12.9219 126.688 13.1755C127.541 13.3974 128.236 13.8095 128.773 14.4117C129.31 14.9823 129.658 15.7431 129.816 16.6941C130.005 17.6134 129.926 18.6753 129.579 19.8799C129.105 21.4648 128.489 22.7962 127.731 23.874C126.973 24.9201 126.104 25.7759 125.124 26.4416C124.145 27.0756 123.087 27.5352 121.949 27.8205C120.812 28.1058 119.627 28.2485 118.395 28.2485C117.384 28.2485 116.579 28.0266 115.978 27.5828C115.41 27.1073 115.015 26.5209 114.794 25.8235C114.573 25.0944 114.525 24.2861 114.652 23.3985C114.778 22.4792 115.078 21.5916 115.552 20.7358C115.963 19.9433 116.389 19.2934 116.831 18.7862C117.274 18.2474 117.7 17.8353 118.111 17.55C118.522 17.233 118.901 17.0269 119.248 16.9318C119.596 16.805 119.88 16.7416 120.101 16.7416C120.986 16.7416 121.57 17.1062 121.855 17.8353C122.139 18.5327 122.092 19.3885 121.712 20.4029C121.239 21.5758 120.607 22.4792 119.817 23.1132C119.059 23.7472 118.206 24.0642 117.258 24.0642C117.1 24.0642 116.895 24.0325 116.642 23.9691C116.579 24.6031 116.674 25.1261 116.926 25.5382C117.211 25.9503 117.669 26.1563 118.301 26.1563C118.901 26.1563 119.485 25.9978 120.054 25.6808C120.654 25.3638 121.207 24.9201 121.712 24.3495C122.218 23.7789 122.692 23.1132 123.134 22.3524C123.576 21.5916 123.956 20.7675 124.271 19.8799C125.124 17.5975 125.267 16.0126 124.698 15.125C124.161 14.2374 122.992 14.0631 121.191 14.6019C120.749 14.7287 120.37 14.7129 120.054 14.5544C119.738 14.3642 119.501 14.0948 119.343 13.7461C119.185 13.3974 119.09 12.9853 119.059 12.5098C119.059 12.0343 119.153 11.543 119.343 11.0358C119.817 9.8312 120.433 8.91192 121.191 8.27793C121.981 7.64395 122.85 7.32695 123.798 7.32695C124.714 7.32695 125.298 7.6915 125.551 8.42058C125.835 9.11796 125.788 9.98969 125.409 11.0358C125.282 11.3211 125.093 11.6856 124.84 12.1294C124.587 12.5415 124.287 12.8585 123.94 13.0804Z" stroke="#B70000" stroke-width="4" mask="url(#path-1-outside-1_584_144)"/>
    <path d="M146.918 3.1902C147.708 3.34869 148.387 3.66569 148.956 4.14118C149.556 4.58497 149.982 5.1397 150.235 5.80539C150.488 6.43937 150.567 7.16846 150.472 7.99264C150.409 8.81682 150.109 9.68855 149.572 10.6078C149.003 11.6222 148.34 12.3037 147.581 12.6524C146.823 13.0011 146.16 13.0011 145.591 12.6524C145.022 12.3037 144.691 11.749 144.596 10.9882C144.533 10.1957 144.722 9.41911 145.164 8.65832C145.607 7.92924 146.175 7.42205 146.87 7.13676C147.597 6.81977 148.245 6.83561 148.813 7.18431C148.845 6.64542 148.64 6.15408 148.197 5.71029C147.755 5.2665 147.076 4.96536 146.16 4.80686C145.086 4.64836 144.075 4.85441 143.127 5.425C142.179 5.99558 141.5 6.77222 141.089 7.75489C140.615 8.83267 140.647 9.87875 141.184 10.8931C141.721 11.9075 142.606 12.8109 143.838 13.6034C145.512 14.6178 146.713 15.8382 147.439 17.2647C148.166 18.6911 148.166 20.3395 147.439 22.2098C147.028 23.1924 146.428 24.1117 145.638 24.9676C144.88 25.8235 143.98 26.5526 142.937 27.1549C141.895 27.7254 140.757 28.1375 139.525 28.3911C138.293 28.6447 137.029 28.6764 135.734 28.4862C134.755 28.3277 133.918 27.979 133.223 27.4402C132.559 26.8696 132.054 26.2039 131.706 25.4431C131.39 24.6823 131.248 23.8581 131.28 22.9706C131.343 22.0513 131.596 21.1795 132.038 20.3554C132.512 19.4361 133.128 18.7228 133.886 18.2157C134.676 17.7085 135.418 17.6451 136.113 18.0255C136.682 18.3425 136.998 18.8972 137.061 19.6897C137.156 20.4822 136.982 21.2429 136.54 21.972C136.129 22.6694 135.592 23.1766 134.929 23.4936C134.297 23.7789 133.697 23.8106 133.128 23.5887C133.033 24.191 133.317 24.8091 133.981 25.4431C134.644 26.0454 135.513 26.4575 136.587 26.6794C137.124 26.8062 137.693 26.8062 138.293 26.6794C138.925 26.5526 139.525 26.3307 140.094 26.0137C140.663 25.6967 141.168 25.3005 141.61 24.825C142.084 24.3178 142.448 23.7472 142.7 23.1132C143.174 21.8452 143.095 20.7675 142.463 19.8799C141.832 18.9923 140.757 18.0255 139.241 16.9794C138.483 16.4722 137.851 15.8541 137.345 15.125C136.84 14.3959 136.477 13.6034 136.255 12.7475C136.066 11.8917 136.019 11.0199 136.113 10.1323C136.24 9.24476 136.556 8.37303 137.061 7.51715C137.535 6.69297 138.135 5.96388 138.862 5.3299C139.62 4.69591 140.441 4.18872 141.326 3.80833C142.211 3.42794 143.127 3.1902 144.075 3.0951C145.054 2.9683 146.002 3 146.918 3.1902Z" stroke="#B70000" stroke-width="4" mask="url(#path-1-outside-1_584_144)"/>
    <path d="M155.199 28.2485C153.998 28.2485 153.082 27.8364 152.45 27.0122L150.555 31.672C150.27 32.306 150.223 32.8132 150.412 33.1936C150.634 33.6057 151.092 33.8117 151.787 33.8117H152.261L151.265 35.8563C151.013 35.9197 150.744 35.9831 150.46 36.0465C150.207 36.1099 149.923 36.1575 149.607 36.1892C149.322 36.2209 149.022 36.2367 148.706 36.2367C146.906 36.2367 145.8 35.7295 145.389 34.7151C144.947 33.7325 145.152 32.195 146.005 30.1029C146.132 29.7859 146.369 29.1995 146.716 28.3436C147.064 27.4877 147.458 26.505 147.901 25.3955C148.343 24.2861 148.817 23.129 149.322 21.9245C149.828 20.6882 150.302 19.5312 150.744 18.4534C151.186 17.3439 151.565 16.393 151.881 15.6005C152.197 14.7763 152.418 14.2215 152.545 13.9363C152.829 13.3023 152.861 12.7951 152.64 12.4147C152.45 12.0026 151.992 11.7966 151.265 11.7966H150.839L151.787 9.75195C152.039 9.68855 152.308 9.62515 152.592 9.56175C152.845 9.49836 153.114 9.45081 153.398 9.41911C153.714 9.38741 154.03 9.37156 154.346 9.37156C156.557 9.37156 157.758 10.1323 157.947 11.6539C158.832 10.9248 159.716 10.3701 160.601 9.98969C161.517 9.5776 162.386 9.37156 163.207 9.37156C164.281 9.37156 165.15 9.62515 165.814 10.1323C166.509 10.6078 166.998 11.2735 167.283 12.1294C167.599 12.9853 167.693 13.9838 167.567 15.125C167.441 16.2662 167.109 17.4866 166.572 18.7862C165.182 22.0513 163.476 24.4446 161.454 25.9661C159.464 27.4877 157.378 28.2485 155.199 28.2485ZM153.256 25.1103C153.54 25.4906 153.982 25.6808 154.583 25.6808C155.151 25.6808 155.688 25.5699 156.194 25.348C156.731 25.1261 157.252 24.7616 157.758 24.2544C158.295 23.7155 158.832 23.034 159.369 22.2098C159.906 21.3539 160.49 20.3078 161.122 19.0715C161.564 18.1523 161.912 17.2805 162.165 16.4563C162.449 15.6322 162.607 14.9189 162.639 14.3166C162.67 13.7144 162.56 13.2389 162.307 12.8902C162.086 12.5415 161.707 12.3671 161.17 12.3671C160.632 12.3671 160.064 12.5256 159.464 12.8426C158.863 13.1279 158.247 13.54 157.615 14.0789C157.552 14.3325 157.473 14.5702 157.378 14.7921C157.315 15.014 157.236 15.2518 157.142 15.5054L153.256 25.1103Z" stroke="#B70000" stroke-width="4" mask="url(#path-1-outside-1_584_144)"/>
    <path d="M180.154 9.37156C181.292 9.37156 182.24 9.62515 182.998 10.1323C183.788 10.6078 184.356 11.2735 184.704 12.1294C185.051 12.9853 185.193 13.9838 185.13 15.125C185.067 16.2662 184.783 17.4866 184.277 18.7862C183.709 20.2761 183.014 21.6075 182.192 22.7804C181.371 23.9215 180.455 24.9042 179.444 25.7284C178.464 26.5526 177.406 27.1866 176.269 27.6303C175.163 28.0424 174.01 28.2485 172.809 28.2485C171.64 28.2485 170.677 28.0107 169.919 27.5352C169.16 27.0281 168.608 26.3465 168.26 25.4906C167.912 24.6348 167.786 23.6362 167.881 22.4951C167.944 21.3222 168.228 20.0859 168.734 18.7862C169.934 15.7748 171.514 13.4608 173.473 11.8441C175.463 10.1957 177.69 9.37156 180.154 9.37156ZM178.97 18.8338C179.349 17.8511 179.649 16.916 179.87 16.0284C180.123 15.1408 180.281 14.3642 180.344 13.6985C180.407 13.0011 180.376 12.4464 180.249 12.0343C180.123 11.6222 179.87 11.4162 179.491 11.4162C179.112 11.4162 178.685 11.6222 178.212 12.0343C177.738 12.4464 177.248 13.0011 176.742 13.6985C176.269 14.3642 175.795 15.1408 175.321 16.0284C174.847 16.916 174.42 17.8511 174.041 18.8338C173.662 19.7848 173.346 20.7041 173.094 21.5916C172.841 22.4475 172.683 23.2083 172.62 23.874C172.588 24.5397 172.651 25.0786 172.809 25.4906C172.967 25.871 173.236 26.0612 173.615 26.0612C173.994 26.0612 174.405 25.871 174.847 25.4906C175.321 25.0786 175.795 24.5397 176.269 23.874C176.742 23.2083 177.216 22.4475 177.69 21.5916C178.164 20.7041 178.591 19.7848 178.97 18.8338Z" stroke="#B70000" stroke-width="4" mask="url(#path-1-outside-1_584_144)"/>
    <path d="M192.807 5.90049C193.723 5.90049 194.324 6.26503 194.608 6.99411C194.892 7.6915 194.829 8.54738 194.418 9.56175C194.134 10.3225 193.786 10.9565 193.376 11.4637H197.546C197.451 11.749 197.277 12.1928 197.025 12.7951C196.772 13.3974 196.488 14.0948 196.172 14.8872C195.856 15.6797 195.508 16.5039 195.129 17.3598C194.782 18.2157 194.45 19.024 194.134 19.7848C193.818 20.5456 193.534 21.2112 193.281 21.7818C193.06 22.3207 192.918 22.6853 192.855 22.8755C192.602 23.4777 192.633 23.9057 192.949 24.1593C193.265 24.4129 193.692 24.4921 194.229 24.397C194.797 24.3019 195.398 24.0166 196.03 23.5411C196.661 23.0657 197.183 22.4 197.593 21.5441L198.399 22.8755C198.083 23.6362 197.641 24.3495 197.072 25.0152C196.535 25.6491 195.919 26.2039 195.224 26.6794C194.56 27.1549 193.834 27.5352 193.044 27.8205C192.286 28.1058 191.528 28.2485 190.769 28.2485C190.011 28.2485 189.348 28.1217 188.779 27.8681C188.242 27.6145 187.831 27.2341 187.547 26.7269C187.294 26.2197 187.184 25.5857 187.215 24.825C187.247 24.0642 187.468 23.1924 187.879 22.2098L191.765 12.7951C191.196 13.0804 190.596 13.223 189.964 13.223C189.079 13.223 188.495 12.8743 188.21 12.1769C187.926 11.4479 188.005 10.5761 188.447 9.56175C188.89 8.38888 189.49 7.48545 190.248 6.85146C191.038 6.21748 191.891 5.90049 192.807 5.90049Z" stroke="#B70000" stroke-width="4" mask="url(#path-1-outside-1_584_144)"/>
    <path d="M208.256 8.42058L202.332 22.8755C202.079 23.4777 202.111 23.9057 202.427 24.1593C202.743 24.4129 203.169 24.4921 203.706 24.397C204.275 24.3019 204.875 24.0166 205.507 23.5411C206.139 23.0657 206.66 22.4 207.071 21.5441L207.877 22.8755C207.561 23.6362 207.118 24.3495 206.55 25.0152C206.013 25.6491 205.397 26.2039 204.702 26.6794C204.038 27.1549 203.312 27.5352 202.522 27.8205C201.764 28.1058 201.005 28.2485 200.247 28.2485C199.489 28.2485 198.825 28.1217 198.257 27.8681C197.72 27.6145 197.309 27.2341 197.025 26.7269C196.74 26.2197 196.614 25.5857 196.646 24.825C196.677 24.0642 196.898 23.1924 197.309 22.2098L202.996 8.42058H200.294L201.621 5.99558H203.991L204.559 4.56912L210.246 3.47549L209.203 5.99558H213.468L212.142 8.42058H208.256Z" stroke="#B70000" stroke-width="4" mask="url(#path-1-outside-1_584_144)"/>
    <path d="M215.847 13.0804C216.826 12.8902 217.743 12.9219 218.596 13.1755C219.449 13.3974 220.144 13.8095 220.681 14.4117C221.218 14.9823 221.565 15.7431 221.723 16.6941C221.913 17.6134 221.834 18.6753 221.486 19.8799C221.012 21.4648 220.396 22.7962 219.638 23.874C218.88 24.9201 218.011 25.7759 217.032 26.4416C216.052 27.0756 214.994 27.5352 213.857 27.8205C212.719 28.1058 211.535 28.2485 210.303 28.2485C209.292 28.2485 208.486 28.0266 207.886 27.5828C207.317 27.1073 206.922 26.5209 206.701 25.8235C206.48 25.0944 206.433 24.2861 206.559 23.3985C206.685 22.4792 206.985 21.5916 207.459 20.7358C207.87 19.9433 208.297 19.2934 208.739 18.7862C209.181 18.2474 209.608 17.8353 210.018 17.55C210.429 17.233 210.808 17.0269 211.156 16.9318C211.503 16.805 211.788 16.7416 212.009 16.7416C212.893 16.7416 213.478 17.1062 213.762 17.8353C214.046 18.5327 213.999 19.3885 213.62 20.4029C213.146 21.5758 212.514 22.4792 211.724 23.1132C210.966 23.7472 210.113 24.0642 209.165 24.0642C209.007 24.0642 208.802 24.0325 208.549 23.9691C208.486 24.6031 208.581 25.1261 208.834 25.5382C209.118 25.9503 209.576 26.1563 210.208 26.1563C210.808 26.1563 211.393 25.9978 211.961 25.6808C212.562 25.3638 213.114 24.9201 213.62 24.3495C214.125 23.7789 214.599 23.1132 215.041 22.3524C215.484 21.5916 215.863 20.7675 216.179 19.8799C217.032 17.5975 217.174 16.0126 216.605 15.125C216.068 14.2374 214.899 14.0631 213.099 14.6019C212.656 14.7287 212.277 14.7129 211.961 14.5544C211.645 14.3642 211.408 14.0948 211.25 13.7461C211.092 13.3974 210.998 12.9853 210.966 12.5098C210.966 12.0343 211.061 11.543 211.25 11.0358C211.724 9.8312 212.34 8.91192 213.099 8.27793C213.888 7.64395 214.757 7.32695 215.705 7.32695C216.621 7.32695 217.206 7.6915 217.458 8.42058C217.743 9.11796 217.695 9.98969 217.316 11.0358C217.19 11.3211 217 11.6856 216.747 12.1294C216.495 12.5415 216.195 12.8585 215.847 13.0804Z" stroke="#B70000" stroke-width="4" mask="url(#path-1-outside-1_584_144)"/>
    <path d="M181.284 47.8862C175.352 47.8862 169.069 47.7453 162.434 47.4635C155.765 47.1818 148.92 46.8824 141.9 46.5654C134.844 46.2484 127.718 45.9842 120.522 45.7729C113.291 45.5968 106.165 45.5792 99.1448 45.7201C92.1243 45.861 85.2968 46.2484 78.6625 46.8824C71.993 47.5516 65.7097 48.573 59.8125 49.9466C53.8802 51.3555 48.4393 53.187 43.4898 55.4412C38.5053 57.7306 34.1701 60.5835 30.4844 64C29.8876 62.5559 28.8521 61.2175 27.3778 59.9848C25.9035 58.7872 24.0606 57.8715 21.8492 57.2375C19.6377 56.6035 17.1103 56.3217 14.267 56.3922C11.4237 56.4978 8.33473 57.1494 5 58.347C6.72001 55.3531 9.17718 52.465 12.3715 49.6825C15.5658 46.9 19.4798 44.4169 24.1133 42.2332C28.7468 40.0494 34.0999 38.2531 40.1726 36.8443C46.2454 35.4706 53.0202 34.6782 60.497 34.4668C70.2203 34.1851 79.4347 34.2027 88.1401 34.5197C96.8455 34.8719 105.217 35.365 113.256 35.999C121.259 36.6329 129.017 37.3374 136.529 38.1122C144.041 38.8871 151.483 39.5563 158.854 40.1199C166.19 40.6834 173.527 41.0708 180.863 41.2822C188.2 41.4935 195.712 41.3526 203.399 40.8595C207.295 40.613 210.718 40.0494 213.667 39.1689C216.615 38.3236 219.107 37.2845 221.143 36.0518C223.214 34.819 224.864 33.4806 226.093 32.0365C227.321 30.6277 228.164 29.2188 228.62 27.81C229.076 26.4011 229.147 25.0979 228.831 23.9004C228.55 22.6676 227.936 21.6638 226.988 20.889C225.584 19.7619 224.145 19.4273 222.67 19.8852C221.196 20.343 219.985 21.5758 219.037 23.5834L218.195 22.1041C218.756 20.9066 219.423 19.9908 220.196 19.3568C221.003 18.6876 221.828 18.2474 222.67 18.036C223.548 17.8247 224.425 17.8247 225.303 18.036C226.216 18.2121 227.058 18.5467 227.83 19.0398C228.919 19.7443 229.831 20.6952 230.568 21.8928C231.341 23.0551 231.797 24.3759 231.937 25.8552C232.113 27.3345 231.92 28.9018 231.358 30.5572C230.832 32.2479 229.814 33.9033 228.304 35.5235C226.83 37.1437 224.829 38.6934 222.302 40.1727C219.774 41.6872 216.615 43.008 212.824 44.1351C208.998 45.2974 204.487 46.2132 199.292 46.8824C194.097 47.5516 188.094 47.8862 181.284 47.8862Z" stroke="#B70000" stroke-width="4" mask="url(#path-1-outside-1_584_144)"/>
    <path d="M20.4511 7.69098C20.3172 7.27896 19.9332 7 19.5 7C19.0668 7 18.6828 7.27896 18.5489 7.69098L16.1915 14.9463H8.56285C8.12962 14.9463 7.74567 15.2253 7.61179 15.6373C7.47792 16.0493 7.62458 16.5007 7.97506 16.7553L14.1468 21.2394L11.7894 28.4947C11.6555 28.9067 11.8022 29.3581 12.1527 29.6127C12.5032 29.8674 12.9778 29.8674 13.3283 29.6127L19.5 25.1287L25.6717 29.6127C26.0222 29.8674 26.4968 29.8674 26.8473 29.6127C27.1978 29.3581 27.3445 28.9067 27.2106 28.4947L24.8532 21.2394L31.0249 16.7553C31.3754 16.5007 31.5221 16.0493 31.3882 15.6373C31.2543 15.2253 30.8704 14.9463 30.4371 14.9463H22.8085L20.4511 7.69098Z" fill="white" stroke="#B70000" stroke-width="2" stroke-linejoin="round"/>
    </svg>
    