<svg width="227" height="61" viewBox="0 0 227 61" fill="none" xmlns="http://www.w3.org/2000/svg">
    <path d="M59.2986 4.75489C59.1406 5.13529 58.9037 5.65832 58.5877 6.32401C58.3034 6.958 57.9717 7.68708 57.5926 8.51126C57.2451 9.33544 56.8502 10.223 56.4079 11.174C55.9972 12.0933 55.5865 13.0126 55.1758 13.9318C54.1964 16.1191 53.1539 18.4648 52.0482 20.9691C51.7322 21.9201 51.7164 22.5857 52.0008 22.9661C52.3167 23.3148 52.9801 23.3624 53.9911 23.1088L53.2803 24.9632C52.9959 25.0583 52.6642 25.1375 52.2851 25.2009C51.9376 25.2643 51.5269 25.3119 51.053 25.3436C50.6107 25.3753 50.1052 25.3911 49.5366 25.3911C47.7358 25.3911 46.3616 24.8998 45.4138 23.9171C44.4976 22.9027 43.9606 21.3336 43.8026 19.2098L42.9496 7.94067C42.4441 9.27204 41.9545 10.6193 41.4806 11.9823C41.0383 13.3454 40.6434 14.6292 40.2959 15.8338C39.9483 17.0067 39.664 18.0527 39.4429 18.972C39.2217 19.8913 39.0796 20.557 39.0164 20.9691C38.89 21.9201 38.9216 22.5857 39.1112 22.9661C39.3323 23.3465 39.9483 23.4099 40.9593 23.1563L40.2485 25.0107C39.9957 25.0741 39.7272 25.1375 39.4429 25.2009C39.1901 25.2643 38.9058 25.3119 38.5899 25.3436C38.3055 25.3753 38.0054 25.3911 37.6895 25.3911C36.2047 25.3911 35.2095 24.9632 34.704 24.1073C34.1986 23.2197 34.2617 22.0469 34.8936 20.5887C35.0516 20.24 35.2727 19.7328 35.557 19.0671C35.873 18.4014 36.2047 17.6565 36.5522 16.8323C36.9313 16.0081 37.3262 15.1364 37.7369 14.2171C38.1792 13.2662 38.6057 12.331 39.0164 11.4117C39.9957 9.25619 41.0383 6.9263 42.144 4.42205C42.2072 4.20016 42.2546 4.00996 42.2862 3.85147C42.3178 3.66127 42.3494 3.48692 42.3809 3.32843C41.9702 2.72614 41.3384 2.425 40.4854 2.425H40.0115V0.380392C40.2327 0.316995 40.4696 0.253596 40.7224 0.190196C40.9435 0.126798 41.1962 0.07925 41.4806 0.0475512C41.7649 0.0158504 42.0808 0 42.4283 0C44.2291 0 45.5876 0.507189 46.5037 1.52157C47.4199 2.50425 47.957 4.05751 48.1149 6.18136C48.1465 6.53006 48.1781 7.11649 48.2097 7.94067C48.2729 8.73316 48.3361 9.63659 48.3993 10.651C48.494 11.6653 48.573 12.7431 48.6362 13.8843C48.731 14.9938 48.81 16.0398 48.8731 17.0225C48.9679 17.9735 49.0311 18.7977 49.0627 19.4951C49.1259 20.1925 49.1575 20.6204 49.1575 20.7789C49.2207 21.2544 49.3312 21.6348 49.4892 21.9201L54.7493 4.3745C55.0652 3.42353 55.0652 2.77369 54.7493 2.425C54.465 2.04461 53.8173 1.98121 52.8064 2.2348L53.5172 0.380392C53.7699 0.316995 54.0385 0.253596 54.3228 0.190196C54.5755 0.126798 54.8441 0.07925 55.1284 0.0475512C55.4127 0.0158504 55.7287 0 56.0762 0C57.561 0 58.6193 0.427941 59.2512 1.28382C59.9146 2.1397 59.9304 3.29673 59.2986 4.75489Z" fill="white"/>
    <path d="M70.8813 19.8755C70.6286 20.4777 70.6602 20.9057 70.9761 21.1593C71.292 21.4129 71.7185 21.4921 72.2556 21.397C72.8242 21.3019 73.4245 21.0166 74.0563 20.5411C74.6882 20.0657 75.2094 19.4 75.6201 18.5441L76.4257 19.8755C76.1098 20.6362 75.6675 21.3495 75.0989 22.0152C74.5618 22.6491 73.9458 23.2039 73.2507 23.6794C72.5873 24.1549 71.8607 24.5353 71.0709 24.8205C70.3126 25.1058 69.5544 25.2485 68.7962 25.2485C67.8169 25.2485 67.0271 25.0424 66.4268 24.6303C65.8266 24.2183 65.4475 23.6001 65.2895 22.7759C64.4997 23.5367 63.5993 24.139 62.5884 24.5828C61.609 25.0266 60.6454 25.2485 59.6977 25.2485C58.9395 25.2485 58.276 25.1217 57.7074 24.8681C57.1703 24.6145 56.7754 24.2341 56.5227 23.7269C56.2383 23.2197 56.112 22.5857 56.1435 21.825C56.1751 21.0642 56.3963 20.1925 56.807 19.2098C56.9649 18.8294 57.2019 18.2588 57.5178 17.498C57.8653 16.7055 58.2128 15.8813 58.5603 15.0255C58.9079 14.1696 59.2238 13.3613 59.5081 12.6005C59.824 11.8397 60.061 11.2849 60.2189 10.9363C60.5033 10.3023 60.5507 9.79508 60.3611 9.41469C60.1715 9.0026 59.7135 8.79655 58.9868 8.79655H58.513L59.4607 6.75195C59.7135 6.68855 59.982 6.62515 60.2663 6.56176C60.5191 6.49836 60.7876 6.45081 61.0719 6.41911C61.3879 6.38741 61.7196 6.37156 62.0671 6.37156C63.8678 6.37156 64.9894 6.87875 65.4317 7.89313C65.8739 8.8758 65.6528 10.4132 64.7682 12.5054C64.5787 12.9809 64.3101 13.6307 63.9626 14.4549C63.6467 15.2791 63.315 16.1032 62.9675 16.9274C62.5884 17.8784 62.1935 18.8611 61.7828 19.8755C61.5932 20.4143 61.5932 20.8264 61.7828 21.1117C62.0039 21.3653 62.3198 21.4921 62.7305 21.4921C63.1412 21.4921 63.6151 21.3653 64.1522 21.1117C64.6892 20.8264 65.1947 20.4143 65.6686 19.8755C65.7002 19.7487 65.7318 19.6377 65.7634 19.5426C65.795 19.4475 65.8424 19.3366 65.9055 19.2098L71.0235 6.75195H76.2836L70.8813 19.8755Z" fill="white"/>
    <path d="M79.8684 20.7313C79.6157 21.397 79.5841 21.9201 79.7737 22.3005C79.9632 22.6808 80.4213 22.871 81.1479 22.871H81.6218L80.674 24.9156C80.4213 24.979 80.1528 25.0424 79.8684 25.1058C79.3945 25.2009 78.8101 25.2485 78.1151 25.2485C76.3143 25.2485 75.1928 24.7571 74.7505 23.7745C74.2766 22.7918 74.4662 21.2544 75.3191 19.1622L78.6837 10.9363C78.968 10.3023 79.0154 9.79508 78.8259 9.41469C78.6363 9.0026 78.1782 8.79655 77.4516 8.79655H76.9777L77.9255 6.75195C78.1782 6.68855 78.4468 6.62515 78.7311 6.56176C78.9838 6.49836 79.2524 6.45081 79.5367 6.41911C79.8526 6.38741 80.1686 6.37156 80.4845 6.37156C82.6327 6.37156 83.8175 7.11649 84.0386 8.60636C84.7968 7.90897 85.634 7.37009 86.5502 6.9897C87.4664 6.5776 88.3825 6.37156 89.2987 6.37156C90.8467 6.37156 91.9209 6.87875 92.5211 7.89313C93.1214 8.9075 93.0108 10.4132 92.1894 12.4103C92.0314 12.8224 91.8103 13.393 91.5259 14.122C91.2416 14.8194 90.9415 15.5485 90.6256 16.3093C90.3096 17.0701 90.0095 17.7833 89.7252 18.449C89.4725 19.1147 89.2829 19.5902 89.1565 19.8755C88.9038 20.4777 88.9354 20.9057 89.2513 21.1593C89.5672 21.4129 89.9937 21.4921 90.5308 21.397C91.0995 21.3019 91.6997 21.0166 92.3316 20.5411C92.9634 20.0657 93.4847 19.4 93.8954 18.5441L94.701 19.8755C94.385 20.6362 93.9428 21.3495 93.3741 22.0152C92.837 22.6491 92.221 23.2039 91.5259 23.6794C90.8625 24.1549 90.1359 24.5353 89.3461 24.8205C88.5879 25.1058 87.8297 25.2485 87.0714 25.2485C86.3132 25.2485 85.6498 25.1217 85.0811 24.8681C84.5441 24.6145 84.1334 24.2341 83.849 23.7269C83.5647 23.2197 83.4383 22.5857 83.4699 21.825C83.5015 21.0642 83.7227 20.1925 84.1334 19.2098L87.2136 11.7921C87.4032 11.3166 87.4032 10.9521 87.2136 10.6985C87.0556 10.4132 86.7871 10.2706 86.408 10.2706C86.0289 10.2389 85.5708 10.334 85.0338 10.5559C84.5283 10.7461 84.0386 11.0789 83.5647 11.5544C83.5015 11.7129 83.4383 11.8714 83.3752 12.0299C83.3436 12.1884 83.2962 12.3469 83.233 12.5054C83.0434 13.0126 82.7749 13.6782 82.4274 14.5024C82.0799 15.3266 81.7324 16.1666 81.3849 17.0225C81.0689 17.8467 80.753 18.6075 80.4371 19.3049C80.1528 20.0023 79.9632 20.4777 79.8684 20.7313Z" fill="white"/>
    <path d="M102.982 22.5857C103.645 22.5857 104.324 22.4748 105.019 22.2529C105.746 22.031 106.425 21.7457 107.057 21.397C107.721 21.0166 108.321 20.5887 108.858 20.1132C109.395 19.606 109.837 19.083 110.185 18.5441L110.99 19.8755C110.201 21.5555 108.842 22.871 106.915 23.822C104.988 24.773 102.745 25.2485 100.186 25.2485C98.8589 25.2485 97.7216 25.0107 96.7738 24.5353C95.8577 24.0281 95.1468 23.3465 94.6414 22.4906C94.1359 21.6348 93.8673 20.6362 93.8358 19.4951C93.8042 18.3222 94.0411 17.0859 94.5466 15.7862C95.7471 12.7114 97.3425 10.3815 99.3328 8.79655C101.355 7.17989 103.582 6.37156 106.015 6.37156C107.31 6.37156 108.289 6.72025 108.953 7.41763C109.616 8.08332 109.979 8.9075 110.043 9.89018C110.137 10.8412 109.932 11.8714 109.427 12.9809C108.953 14.0586 108.21 15.0255 107.199 15.8813C105.778 17.0542 104.135 17.6407 102.271 17.6407H99.238C98.8273 19.0671 98.9695 20.2558 99.6645 21.2068C100.391 22.1261 101.497 22.5857 102.982 22.5857ZM104.83 8.51126C104.514 8.63806 104.135 8.92335 103.693 9.36714C103.282 9.81093 102.855 10.3657 102.413 11.0314C101.971 11.697 101.513 12.442 101.039 13.2662C100.596 14.0903 100.202 14.9462 99.8541 15.8338H101.513C102.239 15.8338 102.855 15.6119 103.361 15.1681C103.866 14.7243 104.34 14.0428 104.782 13.1235C105.162 12.4261 105.462 11.7604 105.683 11.1265C105.904 10.4925 106.03 9.95358 106.062 9.50979C106.094 9.066 106.015 8.74901 105.825 8.55881C105.635 8.33692 105.304 8.32107 104.83 8.51126Z" fill="white"/>
    <path d="M118.94 10.0804C119.919 9.89018 120.835 9.92188 121.688 10.1755C122.541 10.3974 123.236 10.8095 123.773 11.4117C124.31 11.9823 124.658 12.7431 124.816 13.6941C125.005 14.6134 124.926 15.6753 124.579 16.8799C124.105 18.4648 123.489 19.7962 122.731 20.874C121.973 21.9201 121.104 22.7759 120.124 23.4416C119.145 24.0756 118.087 24.5353 116.949 24.8205C115.812 25.1058 114.627 25.2485 113.395 25.2485C112.384 25.2485 111.579 25.0266 110.978 24.5828C110.41 24.1073 110.015 23.5209 109.794 22.8235C109.573 22.0944 109.525 21.2861 109.652 20.3985C109.778 19.4792 110.078 18.5916 110.552 17.7358C110.963 16.9433 111.389 16.2934 111.831 15.7862C112.274 15.2474 112.7 14.8353 113.111 14.55C113.522 14.233 113.901 14.0269 114.248 13.9318C114.596 13.805 114.88 13.7416 115.101 13.7416C115.986 13.7416 116.57 14.1062 116.855 14.8353C117.139 15.5327 117.092 16.3885 116.712 17.4029C116.239 18.5758 115.607 19.4792 114.817 20.1132C114.059 20.7472 113.206 21.0642 112.258 21.0642C112.1 21.0642 111.895 21.0325 111.642 20.9691C111.579 21.6031 111.674 22.1261 111.926 22.5382C112.211 22.9503 112.669 23.1563 113.3 23.1563C113.901 23.1563 114.485 22.9978 115.054 22.6808C115.654 22.3639 116.207 21.9201 116.712 21.3495C117.218 20.7789 117.692 20.1132 118.134 19.3524C118.576 18.5916 118.956 17.7675 119.271 16.8799C120.124 14.5975 120.267 13.0126 119.698 12.125C119.161 11.2374 117.992 11.0631 116.191 11.6019C115.749 11.7287 115.37 11.7129 115.054 11.5544C114.738 11.3642 114.501 11.0948 114.343 10.7461C114.185 10.3974 114.09 9.98528 114.059 9.50979C114.059 9.0343 114.153 8.54296 114.343 8.03577C114.817 6.8312 115.433 5.91192 116.191 5.27793C116.981 4.64395 117.85 4.32695 118.798 4.32695C119.714 4.32695 120.298 4.6915 120.551 5.42058C120.835 6.11796 120.788 6.9897 120.409 8.03577C120.282 8.32107 120.093 8.68561 119.84 9.1294C119.587 9.54149 119.287 9.85848 118.94 10.0804Z" fill="white"/>
    <path d="M141.918 0.190196C142.708 0.348692 143.387 0.665686 143.956 1.14118C144.556 1.58497 144.982 2.1397 145.235 2.80539C145.488 3.43937 145.567 4.16846 145.472 4.99264C145.409 5.81682 145.109 6.68855 144.572 7.60783C144.003 8.62221 143.34 9.30374 142.581 9.65244C141.823 10.0011 141.16 10.0011 140.591 9.65244C140.022 9.30374 139.691 8.74901 139.596 7.98822C139.533 7.19574 139.722 6.41911 140.164 5.65832C140.607 4.92924 141.175 4.42205 141.87 4.13676C142.597 3.81977 143.245 3.83562 143.813 4.18431C143.845 3.64542 143.64 3.15408 143.197 2.71029C142.755 2.2665 142.076 1.96536 141.16 1.80686C140.086 1.64836 139.075 1.85441 138.127 2.425C137.179 2.99558 136.5 3.77222 136.089 4.75489C135.615 5.83267 135.647 6.87875 136.184 7.89313C136.721 8.9075 137.606 9.81093 138.838 10.6034C140.512 11.6178 141.712 12.8382 142.439 14.2647C143.166 15.6912 143.166 17.3395 142.439 19.2098C142.028 20.1925 141.428 21.1117 140.638 21.9676C139.88 22.8235 138.98 23.5526 137.937 24.1549C136.895 24.7254 135.757 25.1375 134.525 25.3911C133.293 25.6447 132.029 25.6764 130.734 25.4862C129.755 25.3277 128.918 24.979 128.223 24.4402C127.559 23.8696 127.054 23.2039 126.706 22.4431C126.39 21.6823 126.248 20.8581 126.28 19.9706C126.343 19.0513 126.596 18.1795 127.038 17.3554C127.512 16.4361 128.128 15.7228 128.886 15.2157C129.676 14.7085 130.418 14.6451 131.113 15.0255C131.682 15.3425 131.998 15.8972 132.061 16.6897C132.156 17.4822 131.982 18.2429 131.54 18.972C131.129 19.6694 130.592 20.1766 129.929 20.4936C129.297 20.7789 128.697 20.8106 128.128 20.5887C128.033 21.191 128.317 21.8091 128.981 22.4431C129.644 23.0454 130.513 23.4575 131.587 23.6794C132.124 23.8062 132.693 23.8062 133.293 23.6794C133.925 23.5526 134.525 23.3307 135.094 23.0137C135.663 22.6967 136.168 22.3005 136.61 21.825C137.084 21.3178 137.448 20.7472 137.7 20.1132C138.174 18.8452 138.095 17.7675 137.463 16.8799C136.832 15.9923 135.757 15.0255 134.241 13.9794C133.483 13.4722 132.851 12.8541 132.345 12.125C131.84 11.3959 131.477 10.6034 131.255 9.74753C131.066 8.89165 131.019 8.01992 131.113 7.13234C131.24 6.24476 131.556 5.37303 132.061 4.51715C132.535 3.69297 133.135 2.96389 133.862 2.3299C134.62 1.69591 135.441 1.18872 136.326 0.808333C137.211 0.427941 138.127 0.190196 139.075 0.0950995C140.054 -0.0316979 141.002 9.53674e-07 141.918 0.190196Z" fill="white"/>
    <path d="M150.199 25.2485C148.998 25.2485 148.082 24.8364 147.45 24.0122L145.555 28.672C145.27 29.306 145.223 29.8132 145.412 30.1936C145.634 30.6057 146.092 30.8117 146.787 30.8117H147.261L146.265 32.8563C146.013 32.9197 145.744 32.9831 145.46 33.0465C145.207 33.1099 144.923 33.1575 144.607 33.1892C144.322 33.2209 144.022 33.2367 143.706 33.2367C141.906 33.2367 140.8 32.7295 140.389 31.7151C139.947 30.7325 140.152 29.195 141.005 27.1029C141.132 26.7859 141.369 26.1995 141.716 25.3436C142.064 24.4877 142.458 23.505 142.901 22.3956C143.343 21.2861 143.817 20.1291 144.322 18.9245C144.828 17.6882 145.302 16.5312 145.744 15.4534C146.186 14.3439 146.565 13.393 146.881 12.6005C147.197 11.7763 147.418 11.2216 147.545 10.9363C147.829 10.3023 147.861 9.79508 147.64 9.41469C147.45 9.0026 146.992 8.79655 146.265 8.79655H145.839L146.787 6.75195C147.039 6.68855 147.308 6.62515 147.592 6.56176C147.845 6.49836 148.113 6.45081 148.398 6.41911C148.714 6.38741 149.03 6.37156 149.346 6.37156C151.557 6.37156 152.758 7.13234 152.947 8.65391C153.832 7.92482 154.716 7.37009 155.601 6.9897C156.517 6.5776 157.386 6.37156 158.207 6.37156C159.281 6.37156 160.15 6.62515 160.814 7.13234C161.509 7.60783 161.998 8.27352 162.283 9.1294C162.599 9.98528 162.693 10.9838 162.567 12.125C162.441 13.2662 162.109 14.4866 161.572 15.7862C160.182 19.0513 158.476 21.4446 156.454 22.9661C154.464 24.4877 152.378 25.2485 150.199 25.2485ZM148.256 22.1103C148.54 22.4906 148.982 22.6808 149.583 22.6808C150.151 22.6808 150.688 22.5699 151.194 22.348C151.731 22.1261 152.252 21.7616 152.758 21.2544C153.295 20.7155 153.832 20.034 154.369 19.2098C154.906 18.3539 155.49 17.3078 156.122 16.0715C156.564 15.1523 156.912 14.2805 157.165 13.4564C157.449 12.6322 157.607 11.9189 157.639 11.3166C157.67 10.7144 157.56 10.2389 157.307 9.89018C157.086 9.54149 156.707 9.36714 156.17 9.36714C155.632 9.36714 155.064 9.52564 154.464 9.84263C153.863 10.1279 153.247 10.54 152.615 11.0789C152.552 11.3325 152.473 11.5702 152.378 11.7921C152.315 12.014 152.236 12.2518 152.142 12.5054L148.256 22.1103Z" fill="white"/>
    <path d="M175.154 6.37156C176.292 6.37156 177.24 6.62515 177.998 7.13234C178.788 7.60783 179.356 8.27352 179.704 9.1294C180.051 9.98528 180.193 10.9838 180.13 12.125C180.067 13.2662 179.783 14.4866 179.277 15.7862C178.709 17.2761 178.014 18.6075 177.192 19.7804C176.371 20.9215 175.455 21.9042 174.444 22.7284C173.464 23.5526 172.406 24.1866 171.269 24.6303C170.163 25.0424 169.01 25.2485 167.809 25.2485C166.64 25.2485 165.677 25.0107 164.919 24.5353C164.16 24.0281 163.608 23.3465 163.26 22.4906C162.912 21.6348 162.786 20.6362 162.881 19.4951C162.944 18.3222 163.228 17.0859 163.734 15.7862C164.934 12.7748 166.514 10.4608 168.473 8.8441C170.463 7.19574 172.69 6.37156 175.154 6.37156ZM173.97 15.8338C174.349 14.8511 174.649 13.916 174.87 13.0284C175.123 12.1408 175.281 11.3642 175.344 10.6985C175.407 10.0011 175.376 9.44639 175.249 9.0343C175.123 8.62221 174.87 8.41616 174.491 8.41616C174.112 8.41616 173.685 8.62221 173.212 9.0343C172.738 9.44639 172.248 10.0011 171.742 10.6985C171.269 11.3642 170.795 12.1408 170.321 13.0284C169.847 13.916 169.42 14.8511 169.041 15.8338C168.662 16.7848 168.346 17.7041 168.094 18.5916C167.841 19.4475 167.683 20.2083 167.62 20.874C167.588 21.5397 167.651 22.0786 167.809 22.4906C167.967 22.871 168.236 23.0612 168.615 23.0612C168.994 23.0612 169.405 22.871 169.847 22.4906C170.321 22.0786 170.795 21.5397 171.269 20.874C171.742 20.2083 172.216 19.4475 172.69 18.5916C173.164 17.7041 173.591 16.7848 173.97 15.8338Z" fill="white"/>
    <path d="M187.807 2.90049C188.723 2.90049 189.324 3.26503 189.608 3.99411C189.892 4.6915 189.829 5.54738 189.418 6.56176C189.134 7.32254 188.786 7.95652 188.376 8.46371H192.546C192.451 8.74901 192.277 9.1928 192.025 9.79508C191.772 10.3974 191.488 11.0948 191.172 11.8872C190.856 12.6797 190.508 13.5039 190.129 14.3598C189.782 15.2157 189.45 16.024 189.134 16.7848C188.818 17.5456 188.534 18.2112 188.281 18.7818C188.06 19.3207 187.918 19.6853 187.855 19.8755C187.602 20.4777 187.633 20.9057 187.949 21.1593C188.265 21.4129 188.692 21.4921 189.229 21.397C189.797 21.3019 190.398 21.0166 191.03 20.5411C191.661 20.0657 192.183 19.4 192.593 18.5441L193.399 19.8755C193.083 20.6362 192.641 21.3495 192.072 22.0152C191.535 22.6491 190.919 23.2039 190.224 23.6794C189.561 24.1549 188.834 24.5353 188.044 24.8205C187.286 25.1058 186.528 25.2485 185.769 25.2485C185.011 25.2485 184.348 25.1217 183.779 24.8681C183.242 24.6145 182.831 24.2341 182.547 23.7269C182.294 23.2197 182.184 22.5857 182.215 21.825C182.247 21.0642 182.468 20.1925 182.879 19.2098L186.765 9.79508C186.196 10.0804 185.596 10.223 184.964 10.223C184.079 10.223 183.495 9.87433 183.21 9.17694C182.926 8.44786 183.005 7.57613 183.447 6.56176C183.89 5.38888 184.49 4.48545 185.248 3.85147C186.038 3.21748 186.891 2.90049 187.807 2.90049Z" fill="white"/>
    <path d="M203.256 5.42058L197.332 19.8755C197.079 20.4777 197.111 20.9057 197.427 21.1593C197.743 21.4129 198.169 21.4921 198.706 21.397C199.275 21.3019 199.875 21.0166 200.507 20.5411C201.139 20.0657 201.66 19.4 202.071 18.5441L202.877 19.8755C202.561 20.6362 202.118 21.3495 201.55 22.0152C201.013 22.6491 200.397 23.2039 199.702 23.6794C199.038 24.1549 198.312 24.5353 197.522 24.8205C196.764 25.1058 196.005 25.2485 195.247 25.2485C194.489 25.2485 193.825 25.1217 193.257 24.8681C192.72 24.6145 192.309 24.2341 192.025 23.7269C191.74 23.2197 191.614 22.5857 191.646 21.825C191.677 21.0642 191.898 20.1925 192.309 19.2098L197.996 5.42058H195.294L196.621 2.99558H198.991L199.559 1.56912L205.246 0.475492L204.203 2.99558H208.468L207.142 5.42058H203.256Z" fill="white"/>
    <path d="M210.847 10.0804C211.826 9.89018 212.743 9.92188 213.596 10.1755C214.449 10.3974 215.144 10.8095 215.681 11.4117C216.218 11.9823 216.565 12.7431 216.723 13.6941C216.913 14.6134 216.834 15.6753 216.486 16.8799C216.012 18.4648 215.396 19.7962 214.638 20.874C213.88 21.9201 213.011 22.7759 212.032 23.4416C211.052 24.0756 209.994 24.5353 208.857 24.8205C207.719 25.1058 206.535 25.2485 205.303 25.2485C204.292 25.2485 203.486 25.0266 202.886 24.5828C202.317 24.1073 201.922 23.5209 201.701 22.8235C201.48 22.0944 201.433 21.2861 201.559 20.3985C201.685 19.4792 201.985 18.5916 202.459 17.7358C202.87 16.9433 203.297 16.2934 203.739 15.7862C204.181 15.2474 204.608 14.8353 205.018 14.55C205.429 14.233 205.808 14.0269 206.156 13.9318C206.503 13.805 206.788 13.7416 207.009 13.7416C207.893 13.7416 208.478 14.1062 208.762 14.8353C209.046 15.5327 208.999 16.3885 208.62 17.4029C208.146 18.5758 207.514 19.4792 206.724 20.1132C205.966 20.7472 205.113 21.0642 204.165 21.0642C204.007 21.0642 203.802 21.0325 203.549 20.9691C203.486 21.6031 203.581 22.1261 203.834 22.5382C204.118 22.9503 204.576 23.1563 205.208 23.1563C205.808 23.1563 206.393 22.9978 206.961 22.6808C207.562 22.3639 208.114 21.9201 208.62 21.3495C209.125 20.7789 209.599 20.1132 210.042 19.3524C210.484 18.5916 210.863 17.7675 211.179 16.8799C212.032 14.5975 212.174 13.0126 211.605 12.125C211.068 11.2374 209.899 11.0631 208.099 11.6019C207.656 11.7287 207.277 11.7129 206.961 11.5544C206.645 11.3642 206.408 11.0948 206.25 10.7461C206.092 10.3974 205.998 9.98528 205.966 9.50979C205.966 9.0343 206.061 8.54296 206.25 8.03577C206.724 6.8312 207.34 5.91192 208.099 5.27793C208.888 4.64395 209.757 4.32695 210.705 4.32695C211.621 4.32695 212.206 4.6915 212.458 5.42058C212.743 6.11796 212.695 6.9897 212.316 8.03577C212.19 8.32107 212 8.68561 211.747 9.1294C211.495 9.54149 211.195 9.85848 210.847 10.0804Z" fill="white"/>
    <path d="M176.285 44.8862C170.352 44.8862 164.069 44.7453 157.434 44.4635C150.765 44.1818 143.92 43.8824 136.9 43.5654C129.844 43.2484 122.718 42.9842 115.522 42.7729C108.291 42.5968 101.165 42.5792 94.1448 42.7201C87.1243 42.861 80.2969 43.2484 73.6625 43.8824C66.993 44.5516 60.7097 45.573 54.8125 46.9467C48.8802 48.3555 43.4393 50.187 38.4898 52.4412C33.5053 54.7306 29.1701 57.5835 25.4844 61C24.8876 59.5559 23.8521 58.2175 22.3778 56.9848C20.9035 55.7872 19.0606 54.8715 16.8492 54.2375C14.6377 53.6035 12.1103 53.3217 9.26704 53.3922C6.42375 53.4978 3.33473 54.1494 0 55.347C1.72001 52.3531 4.17718 49.465 7.37151 46.6825C10.5658 43.9 14.4798 41.4169 19.1133 39.2332C23.7468 37.0494 29.0999 35.2531 35.1726 33.8443C41.2454 32.4706 48.0201 31.6782 55.497 31.4668C65.2203 31.1851 74.4347 31.2027 83.1401 31.5197C91.8455 31.8719 100.217 32.365 108.256 32.999C116.259 33.6329 124.017 34.3374 131.529 35.1123C139.041 35.8871 146.483 36.5563 153.854 37.1199C161.19 37.6834 168.527 38.0709 175.863 38.2822C183.2 38.4935 190.712 38.3526 198.399 37.8595C202.295 37.613 205.718 37.0494 208.667 36.1689C211.615 35.3236 214.107 34.2845 216.143 33.0518C218.214 31.819 219.864 30.4806 221.093 29.0366C222.321 27.6277 223.164 26.2188 223.62 24.81C224.076 23.4011 224.147 22.0979 223.831 20.9004C223.55 19.6677 222.936 18.6638 221.988 17.889C220.584 16.7619 219.145 16.4273 217.67 16.8852C216.196 17.343 214.985 18.5758 214.037 20.5834L213.195 19.1041C213.756 17.9066 214.423 16.9908 215.196 16.3568C216.003 15.6876 216.828 15.2474 217.67 15.036C218.548 14.8247 219.425 14.8247 220.303 15.036C221.216 15.2121 222.058 15.5467 222.83 16.0398C223.919 16.7443 224.831 17.6952 225.568 18.8928C226.341 20.0551 226.797 21.3759 226.937 22.8552C227.113 24.3345 226.92 25.9018 226.358 27.5573C225.832 29.2479 224.814 30.9033 223.304 32.5235C221.83 34.1437 219.829 35.6934 217.302 37.1727C214.774 38.6872 211.615 40.008 207.824 41.1351C203.998 42.2974 199.487 43.2132 194.292 43.8824C189.097 44.5516 183.094 44.8862 176.285 44.8862Z" fill="white"/>
    <path d="M14.5 5L17.0819 12.9463H25.4371L18.6776 17.8574L21.2595 25.8037L14.5 20.8926L7.74047 25.8037L10.3224 17.8574L3.56285 12.9463H11.9181L14.5 5Z" fill="white"/>
    </svg>
    