<svg width="35" height="35" viewBox="0 0 45 45" fill="none" xmlns="http://www.w3.org/2000/svg">
    <path fill-rule="evenodd" clip-rule="evenodd"
        d="M37.9688 29.309V15.3984L32.3438 17.4065V23.2031C32.3438 23.7625 32.1215 24.299 31.7259 24.6946C31.3303 25.0902 30.7938 25.3124 30.2344 25.3124C29.6749 25.3124 29.1384 25.0902 28.7428 24.6946C28.3472 24.299 28.125 23.7625 28.125 23.2031V18.914L21.7969 21.1753V38.2978L35.2322 33.2578C36.0359 32.9562 36.7285 32.4165 37.2175 31.711C37.7064 31.0054 37.9685 30.1674 37.9688 29.309ZM31.6294 13.1821L36.1294 11.5762C35.9704 11.4704 35.8061 11.3728 35.6372 11.2837L26.7159 6.82588C26.1971 6.56649 25.6304 6.41688 25.0511 6.38639C24.4719 6.35591 23.8926 6.4452 23.3494 6.64869L20.7028 7.6415L31.1766 12.8784C31.3453 12.9628 31.4953 13.064 31.6266 13.1821M15.3112 9.66088L26.2181 15.1171L19.8253 17.3981L9.12375 12.0459C9.32625 11.9278 9.54187 11.8256 9.77062 11.7393L15.3112 9.66088ZM17.5781 20.9924L7.03125 15.719V29.9418C7.03128 30.7257 7.2497 31.4941 7.66203 32.1608C8.07436 32.8274 8.66428 33.3661 9.36562 33.7162L17.5781 37.8224V20.9924ZM2.8125 15.6909C2.8125 14.4646 3.07688 13.2834 3.56063 12.2146C3.64503 11.8212 3.84021 11.4601 4.12312 11.174C5.085 9.65525 6.52781 8.4515 8.28563 7.79057L21.8728 2.69994C22.959 2.29252 24.1175 2.11346 25.276 2.17395C26.4345 2.23444 27.5681 2.53318 28.6059 3.0515L37.5272 7.51213C38.9279 8.21336 40.1057 9.29065 40.9288 10.6234C41.7519 11.9561 42.1877 13.4917 42.1875 15.0581V29.309C42.1874 31.0267 41.6631 32.7035 40.6846 34.1152C39.7061 35.5269 38.32 36.6064 36.7116 37.2093L23.1328 42.2999C22.0462 42.7078 20.8872 42.887 19.7282 42.8265C18.5692 42.766 17.4351 42.4671 16.3969 41.9484L7.47562 37.4878C6.07442 36.7869 4.89601 35.7098 4.07241 34.377C3.24881 33.0443 2.81255 31.5085 2.8125 29.9418V15.6909Z"
        fill="#fff" />
</svg>
    