<svg width="34" height="35" viewBox="0 0 34 35" fill="none" xmlns="http://www.w3.org/2000/svg">
    <path
        d="M4.375 34.375C3.34375 34.375 2.46125 34.0081 1.7275 33.2744C0.99375 32.5406 0.62625 31.6575 0.625 30.625V4.375C0.625 3.34375 0.9925 2.46125 1.7275 1.7275C2.4625 0.99375 3.345 0.62625 4.375 0.625H15.625C16.1562 0.625 16.6019 0.805 16.9619 1.165C17.3219 1.525 17.5012 1.97 17.5 2.5C17.4988 3.03 17.3187 3.47562 16.96 3.83687C16.6012 4.19812 16.1562 4.3775 15.625 4.375H4.375V30.625H15.625C16.1562 30.625 16.6019 30.805 16.9619 31.165C17.3219 31.525 17.5012 31.97 17.5 32.5C17.4988 33.03 17.3187 33.4756 16.96 33.8369C16.6012 34.1981 16.1562 34.3775 15.625 34.375H4.375ZM27.2031 19.375H13.75C13.2188 19.375 12.7738 19.195 12.415 18.835C12.0563 18.475 11.8762 18.03 11.875 17.5C11.8738 16.97 12.0538 16.525 12.415 16.165C12.7763 15.805 13.2212 15.625 13.75 15.625H27.2031L23.6875 12.1094C23.3438 11.7656 23.1719 11.3438 23.1719 10.8438C23.1719 10.3438 23.3438 9.90625 23.6875 9.53125C24.0313 9.15625 24.4688 8.96063 25 8.94438C25.5312 8.92813 25.9844 9.10813 26.3594 9.48438L33.0625 16.1875C33.4375 16.5625 33.625 17 33.625 17.5C33.625 18 33.4375 18.4375 33.0625 18.8125L26.3594 25.5156C25.9844 25.8906 25.5394 26.0706 25.0244 26.0556C24.5094 26.0406 24.0638 25.845 23.6875 25.4688C23.3438 25.0938 23.18 24.6488 23.1963 24.1338C23.2125 23.6188 23.3919 23.1888 23.7344 22.8438L27.2031 19.375Z"
        fill="black" />
</svg>