<svg width="15" height="17" viewBox="0 0 23 17" fill="none" xmlns="http://www.w3.org/2000/svg">
    <path d="M19.394 17H3.60649C2.98321 17.0009 2.37243 16.8253 1.84482 16.4934C1.31722 16.1616 0.894377 15.6872 0.625236 15.125C0.310175 14.458 0.188827 13.7159 0.275019 12.9832C0.36121 12.2506 0.651476 11.5569 1.11274 10.9812L9.00649 1.41873C9.31627 1.0613 9.69926 0.774638 10.1295 0.578173C10.5598 0.381707 11.0272 0.280029 11.5002 0.280029C11.9732 0.280029 12.4407 0.381707 12.871 0.578173C13.3012 0.774638 13.6842 1.0613 13.994 1.41873L21.8877 10.9812C22.349 11.5569 22.6393 12.2506 22.7255 12.9832C22.8116 13.7159 22.6903 14.458 22.3752 15.125C22.1061 15.6872 21.6833 16.1616 21.1556 16.4934C20.628 16.8253 20.0173 17.0009 19.394 17ZM4.00024 13.25H18.8127L11.5002 4.21248L4.00024 13.25Z" fill="white"/>
    <path d="M11.5 3L19.7272 14.25H3.27276L11.5 3Z" fill="#B70000"/>
    </svg>
    