<svg width="9" height="12" viewBox="0 0 9 12" fill="none" xmlns="http://www.w3.org/2000/svg">
    <path
        d="M2.00121e-06 10.2092L2.36919e-06 1.79082C-0.000483386 1.45847 0.0940518 1.13278 0.272666 0.851448C0.451281 0.570115 0.706671 0.344642 1.00928 0.201128C1.36832 0.0331284 1.76778 -0.0315781 2.16214 0.0143818C2.55649 0.0603418 2.92989 0.21512 3.23977 0.461078L8.38706 4.67026C8.57946 4.83544 8.73376 5.03967 8.83952 5.26909C8.94527 5.49852 9 5.74779 9 6C9 6.25221 8.94527 6.50148 8.83952 6.7309C8.73376 6.96033 8.57946 7.16456 8.38706 7.32974L3.23977 11.5389C2.92989 11.7849 2.55649 11.9397 2.16213 11.9856C1.76778 12.0316 1.36832 11.9669 1.00927 11.7989C0.70667 11.6554 0.45128 11.4299 0.272666 11.1486C0.0940514 10.8672 -0.000483783 10.5415 2.00121e-06 10.2092ZM2.01855 2.00078L2.01855 9.89924L6.88324 6L2.01855 2.00078Z"
        fill="black" />
    <path d="M8 6L2 10.3301L2 1.66987L8 6Z" fill="black" />
</svg>
    