<svg width="300" height="300" viewBox="0 0 300 300" fill="none" xmlns="http://www.w3.org/2000/svg">
    <rect width="300" height="300" fill="black" />
    <mask id="path-2-outside-1_579_121" maskUnits="userSpaceOnUse" x="54" y="95" width="195"
        height="126" fill="black">
        <rect fill="white" x="54" y="95" width="195" height="126" />
        <path
            d="M105.521 111.1C104.121 111.967 102.821 112.433 101.621 112.5C100.421 112.5 99.254 112.3 98.1207 111.9C97.054 111.433 95.9874 110.867 94.9207 110.2C93.854 109.467 92.754 108.8 91.6207 108.2L76.0207 146.3C75.4874 147.7 75.3874 148.833 75.7207 149.7C76.1207 150.5 77.0874 150.9 78.6207 150.9H79.6207L77.6207 155.2C77.0874 155.333 76.5207 155.467 75.9207 155.6C75.3874 155.733 74.7874 155.833 74.1207 155.9C73.454 155.967 72.7874 156 72.1207 156C68.3207 156 65.954 154.967 65.0207 152.9C64.0874 150.767 64.5207 147.467 66.3207 143L80.1207 109.2L87.0207 106.5C86.8874 106.5 86.754 106.5 86.6207 106.5C86.4874 106.433 86.354 106.4 86.2207 106.4C84.2874 106.267 82.2874 106.467 80.2207 107C78.2207 107.467 76.2207 108.167 74.2207 109.1C72.2207 110.033 70.2874 111.167 68.4207 112.5C66.6207 113.833 64.954 115.233 63.4207 116.7L61.4207 114.6L69.4207 104.1C72.8207 102.7 75.9207 101.967 78.7207 101.9C81.5874 101.767 84.7207 102.033 88.1207 102.7C89.454 102.967 90.854 103.233 92.3207 103.5C93.7874 103.7 95.354 103.833 97.0207 103.9C98.754 103.967 100.621 103.933 102.621 103.8C104.621 103.6 106.821 103.233 109.221 102.7L105.521 111.1ZM113.429 150.1C114.829 150.1 116.262 149.867 117.729 149.4C119.262 148.933 120.695 148.333 122.029 147.6C123.429 146.8 124.695 145.9 125.829 144.9C126.962 143.833 127.895 142.733 128.629 141.6L130.329 144.4C128.662 147.933 125.795 150.7 121.729 152.7C117.662 154.7 112.929 155.7 107.529 155.7C104.729 155.7 102.329 155.2 100.329 154.2C98.3952 153.133 96.8952 151.7 95.8285 149.9C94.7618 148.1 94.1952 146 94.1285 143.6C94.0618 141.133 94.5618 138.533 95.6285 135.8C98.1618 129.333 101.529 124.433 105.729 121.1C109.995 117.7 114.695 116 119.829 116C122.562 116 124.629 116.733 126.029 118.2C127.429 119.6 128.195 121.333 128.329 123.4C128.529 125.4 128.095 127.567 127.029 129.9C126.029 132.167 124.462 134.2 122.329 136C119.329 138.467 115.862 139.7 111.929 139.7H105.529C104.662 142.7 104.962 145.2 106.429 147.2C107.962 149.133 110.295 150.1 113.429 150.1ZM117.329 120.5C116.662 120.767 115.862 121.367 114.929 122.3C114.062 123.233 113.162 124.4 112.229 125.8C111.295 127.2 110.329 128.767 109.329 130.5C108.395 132.233 107.562 134.033 106.829 135.9H110.329C111.862 135.9 113.162 135.433 114.229 134.5C115.295 133.567 116.295 132.133 117.229 130.2C118.029 128.733 118.662 127.333 119.129 126C119.595 124.667 119.862 123.533 119.929 122.6C119.995 121.667 119.829 121 119.429 120.6C119.029 120.133 118.329 120.1 117.329 120.5ZM147.104 123.8C149.17 123.4 151.104 123.467 152.904 124C154.704 124.467 156.17 125.333 157.304 126.6C158.437 127.8 159.17 129.4 159.504 131.4C159.904 133.333 159.737 135.567 159.004 138.1C158.004 141.433 156.704 144.233 155.104 146.5C153.504 148.7 151.67 150.5 149.604 151.9C147.537 153.233 145.304 154.2 142.904 154.8C140.504 155.4 138.004 155.7 135.404 155.7C133.27 155.7 131.57 155.233 130.304 154.3C129.104 153.3 128.27 152.067 127.804 150.6C127.337 149.067 127.237 147.367 127.504 145.5C127.77 143.567 128.404 141.7 129.404 139.9C130.27 138.233 131.17 136.867 132.104 135.8C133.037 134.667 133.937 133.8 134.804 133.2C135.67 132.533 136.47 132.1 137.204 131.9C137.937 131.633 138.537 131.5 139.004 131.5C140.87 131.5 142.104 132.267 142.704 133.8C143.304 135.267 143.204 137.067 142.404 139.2C141.404 141.667 140.07 143.567 138.404 144.9C136.804 146.233 135.004 146.9 133.004 146.9C132.67 146.9 132.237 146.833 131.704 146.7C131.57 148.033 131.77 149.133 132.304 150C132.904 150.867 133.87 151.3 135.204 151.3C136.47 151.3 137.704 150.967 138.904 150.3C140.17 149.633 141.337 148.7 142.404 147.5C143.47 146.3 144.47 144.9 145.404 143.3C146.337 141.7 147.137 139.967 147.804 138.1C149.604 133.3 149.904 129.967 148.704 128.1C147.57 126.233 145.104 125.867 141.304 127C140.37 127.267 139.57 127.233 138.904 126.9C138.237 126.5 137.737 125.933 137.404 125.2C137.07 124.467 136.87 123.6 136.804 122.6C136.804 121.6 137.004 120.567 137.404 119.5C138.404 116.967 139.704 115.033 141.304 113.7C142.97 112.367 144.804 111.7 146.804 111.7C148.737 111.7 149.97 112.467 150.504 114C151.104 115.467 151.004 117.3 150.204 119.5C149.937 120.1 149.537 120.867 149.004 121.8C148.47 122.667 147.837 123.333 147.104 123.8ZM184.893 114L172.393 144.4C171.859 145.667 171.926 146.567 172.593 147.1C173.259 147.633 174.159 147.8 175.293 147.6C176.493 147.4 177.759 146.8 179.093 145.8C180.426 144.8 181.526 143.4 182.393 141.6L184.093 144.4C183.426 146 182.493 147.5 181.293 148.9C180.159 150.233 178.859 151.4 177.393 152.4C175.993 153.4 174.459 154.2 172.793 154.8C171.193 155.4 169.593 155.7 167.993 155.7C166.393 155.7 164.993 155.433 163.793 154.9C162.659 154.367 161.793 153.567 161.193 152.5C160.593 151.433 160.326 150.1 160.393 148.5C160.459 146.9 160.926 145.067 161.793 143L173.793 114H168.093L170.893 108.9H175.893L177.093 105.9L189.093 103.6L186.893 108.9H195.893L193.093 114H184.893ZM201.612 150.1C203.012 150.1 204.445 149.867 205.912 149.4C207.445 148.933 208.879 148.333 210.212 147.6C211.612 146.8 212.879 145.9 214.012 144.9C215.145 143.833 216.079 142.733 216.812 141.6L218.512 144.4C216.845 147.933 213.979 150.7 209.912 152.7C205.845 154.7 201.112 155.7 195.712 155.7C192.912 155.7 190.512 155.2 188.512 154.2C186.579 153.133 185.079 151.7 184.012 149.9C182.945 148.1 182.379 146 182.312 143.6C182.245 141.133 182.745 138.533 183.812 135.8C186.345 129.333 189.712 124.433 193.912 121.1C198.179 117.7 202.879 116 208.012 116C210.745 116 212.812 116.733 214.212 118.2C215.612 119.6 216.379 121.333 216.512 123.4C216.712 125.4 216.279 127.567 215.212 129.9C214.212 132.167 212.645 134.2 210.512 136C207.512 138.467 204.045 139.7 200.112 139.7H193.712C192.845 142.7 193.145 145.2 194.612 147.2C196.145 149.133 198.479 150.1 201.612 150.1ZM205.512 120.5C204.845 120.767 204.045 121.367 203.112 122.3C202.245 123.233 201.345 124.4 200.412 125.8C199.479 127.2 198.512 128.767 197.512 130.5C196.579 132.233 195.745 134.033 195.012 135.9H198.512C200.045 135.9 201.345 135.433 202.412 134.5C203.479 133.567 204.479 132.133 205.412 130.2C206.212 128.733 206.845 127.333 207.312 126C207.779 124.667 208.045 123.533 208.112 122.6C208.179 121.667 208.012 121 207.612 120.6C207.212 120.133 206.512 120.1 205.512 120.5ZM186.587 189.9C177.054 188.967 168.954 188.633 162.287 188.9C155.554 189.233 149.92 190.133 145.387 191.6C140.787 193.133 137.087 195.2 134.287 197.8C131.42 200.467 129.12 203.7 127.387 207.5C126.32 204.767 124.42 202.2 121.687 199.8C118.954 197.467 115.52 195.6 111.387 194.2C107.187 192.867 102.387 192.2 96.9871 192.2C91.5871 192.267 85.6871 193.333 79.2871 195.4C83.8871 190.467 88.4538 186.1 92.9871 182.3C97.5204 178.567 102.154 175.4 106.887 172.8C111.554 170.2 116.387 168.167 121.387 166.7C126.32 165.233 131.554 164.367 137.087 164.1C142.22 163.833 146.787 163.9 150.787 164.3C154.787 164.767 158.52 165.4 161.987 166.2C165.387 167.067 168.62 168.033 171.687 169.1C174.687 170.167 177.82 171.167 181.087 172.1C184.287 173.033 187.687 173.8 191.287 174.4C194.887 175.067 198.954 175.4 203.487 175.4C208.487 175.4 212.987 174.733 216.987 173.4C220.987 172.133 224.454 170.467 227.387 168.4C230.32 166.333 232.654 164 234.387 161.4C236.187 158.8 237.354 156.2 237.887 153.6C238.42 150.933 238.32 148.4 237.587 146C236.854 143.533 235.42 141.467 233.287 139.8C230.62 137.667 227.887 137.033 225.087 137.9C222.287 138.7 219.987 141 218.187 144.8L216.587 142C217.654 139.8 218.92 138.067 220.387 136.8C221.92 135.533 223.52 134.7 225.187 134.3C226.854 133.9 228.52 133.867 230.187 134.2C231.92 134.533 233.487 135.2 234.887 136.2C238.22 138.533 240.62 141.6 242.087 145.4C243.62 149.2 244.12 153.233 243.587 157.5C243.054 161.767 241.487 166 238.887 170.2C236.354 174.467 232.72 178.2 227.987 181.4C223.32 184.6 217.554 187.033 210.687 188.7C203.754 190.367 195.72 190.767 186.587 189.9Z" />
    </mask>
    <path
        d="M105.521 111.1C104.121 111.967 102.821 112.433 101.621 112.5C100.421 112.5 99.254 112.3 98.1207 111.9C97.054 111.433 95.9874 110.867 94.9207 110.2C93.854 109.467 92.754 108.8 91.6207 108.2L76.0207 146.3C75.4874 147.7 75.3874 148.833 75.7207 149.7C76.1207 150.5 77.0874 150.9 78.6207 150.9H79.6207L77.6207 155.2C77.0874 155.333 76.5207 155.467 75.9207 155.6C75.3874 155.733 74.7874 155.833 74.1207 155.9C73.454 155.967 72.7874 156 72.1207 156C68.3207 156 65.954 154.967 65.0207 152.9C64.0874 150.767 64.5207 147.467 66.3207 143L80.1207 109.2L87.0207 106.5C86.8874 106.5 86.754 106.5 86.6207 106.5C86.4874 106.433 86.354 106.4 86.2207 106.4C84.2874 106.267 82.2874 106.467 80.2207 107C78.2207 107.467 76.2207 108.167 74.2207 109.1C72.2207 110.033 70.2874 111.167 68.4207 112.5C66.6207 113.833 64.954 115.233 63.4207 116.7L61.4207 114.6L69.4207 104.1C72.8207 102.7 75.9207 101.967 78.7207 101.9C81.5874 101.767 84.7207 102.033 88.1207 102.7C89.454 102.967 90.854 103.233 92.3207 103.5C93.7874 103.7 95.354 103.833 97.0207 103.9C98.754 103.967 100.621 103.933 102.621 103.8C104.621 103.6 106.821 103.233 109.221 102.7L105.521 111.1ZM113.429 150.1C114.829 150.1 116.262 149.867 117.729 149.4C119.262 148.933 120.695 148.333 122.029 147.6C123.429 146.8 124.695 145.9 125.829 144.9C126.962 143.833 127.895 142.733 128.629 141.6L130.329 144.4C128.662 147.933 125.795 150.7 121.729 152.7C117.662 154.7 112.929 155.7 107.529 155.7C104.729 155.7 102.329 155.2 100.329 154.2C98.3952 153.133 96.8952 151.7 95.8285 149.9C94.7618 148.1 94.1952 146 94.1285 143.6C94.0618 141.133 94.5618 138.533 95.6285 135.8C98.1618 129.333 101.529 124.433 105.729 121.1C109.995 117.7 114.695 116 119.829 116C122.562 116 124.629 116.733 126.029 118.2C127.429 119.6 128.195 121.333 128.329 123.4C128.529 125.4 128.095 127.567 127.029 129.9C126.029 132.167 124.462 134.2 122.329 136C119.329 138.467 115.862 139.7 111.929 139.7H105.529C104.662 142.7 104.962 145.2 106.429 147.2C107.962 149.133 110.295 150.1 113.429 150.1ZM117.329 120.5C116.662 120.767 115.862 121.367 114.929 122.3C114.062 123.233 113.162 124.4 112.229 125.8C111.295 127.2 110.329 128.767 109.329 130.5C108.395 132.233 107.562 134.033 106.829 135.9H110.329C111.862 135.9 113.162 135.433 114.229 134.5C115.295 133.567 116.295 132.133 117.229 130.2C118.029 128.733 118.662 127.333 119.129 126C119.595 124.667 119.862 123.533 119.929 122.6C119.995 121.667 119.829 121 119.429 120.6C119.029 120.133 118.329 120.1 117.329 120.5ZM147.104 123.8C149.17 123.4 151.104 123.467 152.904 124C154.704 124.467 156.17 125.333 157.304 126.6C158.437 127.8 159.17 129.4 159.504 131.4C159.904 133.333 159.737 135.567 159.004 138.1C158.004 141.433 156.704 144.233 155.104 146.5C153.504 148.7 151.67 150.5 149.604 151.9C147.537 153.233 145.304 154.2 142.904 154.8C140.504 155.4 138.004 155.7 135.404 155.7C133.27 155.7 131.57 155.233 130.304 154.3C129.104 153.3 128.27 152.067 127.804 150.6C127.337 149.067 127.237 147.367 127.504 145.5C127.77 143.567 128.404 141.7 129.404 139.9C130.27 138.233 131.17 136.867 132.104 135.8C133.037 134.667 133.937 133.8 134.804 133.2C135.67 132.533 136.47 132.1 137.204 131.9C137.937 131.633 138.537 131.5 139.004 131.5C140.87 131.5 142.104 132.267 142.704 133.8C143.304 135.267 143.204 137.067 142.404 139.2C141.404 141.667 140.07 143.567 138.404 144.9C136.804 146.233 135.004 146.9 133.004 146.9C132.67 146.9 132.237 146.833 131.704 146.7C131.57 148.033 131.77 149.133 132.304 150C132.904 150.867 133.87 151.3 135.204 151.3C136.47 151.3 137.704 150.967 138.904 150.3C140.17 149.633 141.337 148.7 142.404 147.5C143.47 146.3 144.47 144.9 145.404 143.3C146.337 141.7 147.137 139.967 147.804 138.1C149.604 133.3 149.904 129.967 148.704 128.1C147.57 126.233 145.104 125.867 141.304 127C140.37 127.267 139.57 127.233 138.904 126.9C138.237 126.5 137.737 125.933 137.404 125.2C137.07 124.467 136.87 123.6 136.804 122.6C136.804 121.6 137.004 120.567 137.404 119.5C138.404 116.967 139.704 115.033 141.304 113.7C142.97 112.367 144.804 111.7 146.804 111.7C148.737 111.7 149.97 112.467 150.504 114C151.104 115.467 151.004 117.3 150.204 119.5C149.937 120.1 149.537 120.867 149.004 121.8C148.47 122.667 147.837 123.333 147.104 123.8ZM184.893 114L172.393 144.4C171.859 145.667 171.926 146.567 172.593 147.1C173.259 147.633 174.159 147.8 175.293 147.6C176.493 147.4 177.759 146.8 179.093 145.8C180.426 144.8 181.526 143.4 182.393 141.6L184.093 144.4C183.426 146 182.493 147.5 181.293 148.9C180.159 150.233 178.859 151.4 177.393 152.4C175.993 153.4 174.459 154.2 172.793 154.8C171.193 155.4 169.593 155.7 167.993 155.7C166.393 155.7 164.993 155.433 163.793 154.9C162.659 154.367 161.793 153.567 161.193 152.5C160.593 151.433 160.326 150.1 160.393 148.5C160.459 146.9 160.926 145.067 161.793 143L173.793 114H168.093L170.893 108.9H175.893L177.093 105.9L189.093 103.6L186.893 108.9H195.893L193.093 114H184.893ZM201.612 150.1C203.012 150.1 204.445 149.867 205.912 149.4C207.445 148.933 208.879 148.333 210.212 147.6C211.612 146.8 212.879 145.9 214.012 144.9C215.145 143.833 216.079 142.733 216.812 141.6L218.512 144.4C216.845 147.933 213.979 150.7 209.912 152.7C205.845 154.7 201.112 155.7 195.712 155.7C192.912 155.7 190.512 155.2 188.512 154.2C186.579 153.133 185.079 151.7 184.012 149.9C182.945 148.1 182.379 146 182.312 143.6C182.245 141.133 182.745 138.533 183.812 135.8C186.345 129.333 189.712 124.433 193.912 121.1C198.179 117.7 202.879 116 208.012 116C210.745 116 212.812 116.733 214.212 118.2C215.612 119.6 216.379 121.333 216.512 123.4C216.712 125.4 216.279 127.567 215.212 129.9C214.212 132.167 212.645 134.2 210.512 136C207.512 138.467 204.045 139.7 200.112 139.7H193.712C192.845 142.7 193.145 145.2 194.612 147.2C196.145 149.133 198.479 150.1 201.612 150.1ZM205.512 120.5C204.845 120.767 204.045 121.367 203.112 122.3C202.245 123.233 201.345 124.4 200.412 125.8C199.479 127.2 198.512 128.767 197.512 130.5C196.579 132.233 195.745 134.033 195.012 135.9H198.512C200.045 135.9 201.345 135.433 202.412 134.5C203.479 133.567 204.479 132.133 205.412 130.2C206.212 128.733 206.845 127.333 207.312 126C207.779 124.667 208.045 123.533 208.112 122.6C208.179 121.667 208.012 121 207.612 120.6C207.212 120.133 206.512 120.1 205.512 120.5ZM186.587 189.9C177.054 188.967 168.954 188.633 162.287 188.9C155.554 189.233 149.92 190.133 145.387 191.6C140.787 193.133 137.087 195.2 134.287 197.8C131.42 200.467 129.12 203.7 127.387 207.5C126.32 204.767 124.42 202.2 121.687 199.8C118.954 197.467 115.52 195.6 111.387 194.2C107.187 192.867 102.387 192.2 96.9871 192.2C91.5871 192.267 85.6871 193.333 79.2871 195.4C83.8871 190.467 88.4538 186.1 92.9871 182.3C97.5204 178.567 102.154 175.4 106.887 172.8C111.554 170.2 116.387 168.167 121.387 166.7C126.32 165.233 131.554 164.367 137.087 164.1C142.22 163.833 146.787 163.9 150.787 164.3C154.787 164.767 158.52 165.4 161.987 166.2C165.387 167.067 168.62 168.033 171.687 169.1C174.687 170.167 177.82 171.167 181.087 172.1C184.287 173.033 187.687 173.8 191.287 174.4C194.887 175.067 198.954 175.4 203.487 175.4C208.487 175.4 212.987 174.733 216.987 173.4C220.987 172.133 224.454 170.467 227.387 168.4C230.32 166.333 232.654 164 234.387 161.4C236.187 158.8 237.354 156.2 237.887 153.6C238.42 150.933 238.32 148.4 237.587 146C236.854 143.533 235.42 141.467 233.287 139.8C230.62 137.667 227.887 137.033 225.087 137.9C222.287 138.7 219.987 141 218.187 144.8L216.587 142C217.654 139.8 218.92 138.067 220.387 136.8C221.92 135.533 223.52 134.7 225.187 134.3C226.854 133.9 228.52 133.867 230.187 134.2C231.92 134.533 233.487 135.2 234.887 136.2C238.22 138.533 240.62 141.6 242.087 145.4C243.62 149.2 244.12 153.233 243.587 157.5C243.054 161.767 241.487 166 238.887 170.2C236.354 174.467 232.72 178.2 227.987 181.4C223.32 184.6 217.554 187.033 210.687 188.7C203.754 190.367 195.72 190.767 186.587 189.9Z"
        fill="white" />
    <path
        d="M105.521 111.1L108.152 115.351L109.471 114.535L110.096 113.116L105.521 111.1ZM101.621 112.5V117.5H101.759L101.898 117.492L101.621 112.5ZM98.1207 111.9L96.1166 116.481L96.2842 116.554L96.4566 116.615L98.1207 111.9ZM94.9207 110.2L92.0881 114.32L92.1781 114.382L92.2707 114.44L94.9207 110.2ZM91.6207 108.2L93.9601 103.781L89.0841 101.2L86.9936 106.305L91.6207 108.2ZM76.0207 146.3L71.3935 144.405L71.3702 144.462L71.3483 144.52L76.0207 146.3ZM75.7207 149.7L71.054 151.495L71.1406 151.72L71.2486 151.936L75.7207 149.7ZM79.6207 150.9L84.1543 153.009L87.4607 145.9H79.6207V150.9ZM77.6207 155.2L78.8334 160.051L81.1481 159.472L82.1543 157.309L77.6207 155.2ZM75.9207 155.6L74.8361 150.719L74.7718 150.733L74.708 150.749L75.9207 155.6ZM65.0207 152.9L60.4399 154.904L60.4517 154.931L60.4639 154.958L65.0207 152.9ZM66.3207 143L61.6917 141.11L61.6874 141.121L61.6831 141.131L66.3207 143ZM80.1207 109.2L78.2987 104.544L76.3021 105.325L75.4917 107.31L80.1207 109.2ZM87.0207 106.5L88.8427 111.156L87.0207 101.5V106.5ZM86.6207 106.5L84.3846 110.972L85.4403 111.5H86.6207V106.5ZM86.2207 106.4L85.8767 111.388L86.0485 111.4H86.2207V106.4ZM80.2207 107L81.3569 111.869L81.4136 111.856L81.4701 111.841L80.2207 107ZM74.2207 109.1L76.3351 113.631L76.3351 113.631L74.2207 109.1ZM68.4207 112.5L65.5145 108.431L65.4793 108.456L65.4446 108.482L68.4207 112.5ZM63.4207 116.7L59.8 120.148L63.2558 123.777L66.8768 120.313L63.4207 116.7ZM61.4207 114.6L57.4435 111.57L54.8598 114.961L57.8 118.048L61.4207 114.6ZM69.4207 104.1L67.517 99.4766L66.2644 99.9923L65.4435 101.07L69.4207 104.1ZM78.7207 101.9L78.8397 106.899L78.8964 106.897L78.953 106.895L78.7207 101.9ZM88.1207 102.7L89.1013 97.7971L89.092 97.7952L89.0828 97.7934L88.1207 102.7ZM92.3207 103.5L91.4263 108.419L91.5353 108.439L91.6451 108.454L92.3207 103.5ZM97.0207 103.9L96.8209 108.896L96.8285 108.896L97.0207 103.9ZM102.621 103.8L102.953 108.789L103.036 108.783L103.118 108.775L102.621 103.8ZM109.221 102.7L113.796 104.716L117.778 95.6764L108.136 97.8191L109.221 102.7ZM102.889 106.849C101.949 107.431 101.457 107.501 101.343 107.508L101.898 117.492C104.184 117.365 106.292 116.503 108.152 115.351L102.889 106.849ZM101.621 107.5C100.988 107.5 100.384 107.397 99.7848 107.185L96.4566 116.615C98.1236 117.203 99.853 117.5 101.621 117.5V107.5ZM100.125 107.319C99.2984 106.958 98.447 106.508 97.5707 105.96L92.2707 114.44C93.5277 115.226 94.8096 115.909 96.1166 116.481L100.125 107.319ZM97.7533 106.08C96.5297 105.239 95.2651 104.472 93.9601 103.781L89.2813 112.619C90.243 113.128 91.1784 113.695 92.0881 114.32L97.7533 106.08ZM86.9936 106.305L71.3935 144.405L80.6479 148.195L96.2479 110.095L86.9936 106.305ZM71.3483 144.52C70.6303 146.405 70.0758 148.952 71.054 151.495L80.3874 147.905C80.5489 148.325 80.5285 148.615 80.5264 148.639C80.5253 148.652 80.5279 148.612 80.5527 148.513C80.5773 148.414 80.6204 148.271 80.6931 148.08L71.3483 144.52ZM71.2486 151.936C72.9846 155.408 76.6161 155.9 78.6207 155.9V145.9C78.231 145.9 78.3213 145.841 78.6575 145.98C78.8475 146.059 79.1281 146.206 79.426 146.468C79.7325 146.737 79.9989 147.076 80.1928 147.464L71.2486 151.936ZM78.6207 155.9H79.6207V145.9H78.6207V155.9ZM75.0871 148.791L73.0871 153.091L82.1543 157.309L84.1543 153.009L75.0871 148.791ZM76.408 150.349C75.9218 150.471 75.3982 150.594 74.8361 150.719L77.0054 160.481C77.6433 160.339 78.2529 160.196 78.8334 160.051L76.408 150.349ZM74.708 150.749C74.454 150.813 74.0988 150.877 73.6232 150.925L74.6182 160.875C75.4759 160.789 76.3208 160.654 77.1334 160.451L74.708 150.749ZM73.6232 150.925C73.121 150.975 72.6204 151 72.1207 151V161C72.9543 161 73.7871 160.958 74.6182 160.875L73.6232 150.925ZM72.1207 151C70.6124 151 69.824 150.786 69.4964 150.643C69.3564 150.582 69.3541 150.557 69.4128 150.612C69.4794 150.675 69.5413 150.762 69.5776 150.842L60.4639 154.958C62.6657 159.833 67.7928 161 72.1207 161V151ZM69.6015 150.896C69.624 150.947 69.4568 150.59 69.6031 149.476C69.7465 148.384 70.1523 146.869 70.9583 144.869L61.6831 141.131C60.6891 143.598 59.9782 145.966 59.6883 148.174C59.4012 150.36 59.484 152.719 60.4399 154.904L69.6015 150.896ZM70.9497 144.89L84.7497 111.09L75.4917 107.31L61.6917 141.11L70.9497 144.89ZM81.9427 113.856L88.8427 111.156L85.1987 101.844L78.2987 104.544L81.9427 113.856ZM87.0207 101.5C87.0204 101.5 87.0202 101.5 87.0199 101.5C87.0197 101.5 87.0194 101.5 87.0191 101.5C87.0189 101.5 87.0186 101.5 87.0184 101.5C87.0181 101.5 87.0178 101.5 87.0176 101.5C87.0173 101.5 87.0171 101.5 87.0168 101.5C87.0165 101.5 87.0163 101.5 87.016 101.5C87.0158 101.5 87.0155 101.5 87.0152 101.5C87.015 101.5 87.0147 101.5 87.0145 101.5C87.0142 101.5 87.0139 101.5 87.0137 101.5C87.0134 101.5 87.0132 101.5 87.0129 101.5C87.0126 101.5 87.0124 101.5 87.0121 101.5C87.0119 101.5 87.0116 101.5 87.0113 101.5C87.0111 101.5 87.0108 101.5 87.0105 101.5C87.0103 101.5 87.01 101.5 87.0098 101.5C87.0095 101.5 87.0092 101.5 87.009 101.5C87.0087 101.5 87.0085 101.5 87.0082 101.5C87.0079 101.5 87.0077 101.5 87.0074 101.5C87.0072 101.5 87.0069 101.5 87.0066 101.5C87.0064 101.5 87.0061 101.5 87.0059 101.5C87.0056 101.5 87.0053 101.5 87.0051 101.5C87.0048 101.5 87.0046 101.5 87.0043 101.5C87.004 101.5 87.0038 101.5 87.0035 101.5C87.0033 101.5 87.003 101.5 87.0027 101.5C87.0025 101.5 87.0022 101.5 87.002 101.5C87.0017 101.5 87.0014 101.5 87.0012 101.5C87.0009 101.5 87.0007 101.5 87.0004 101.5C87.0001 101.5 86.9999 101.5 86.9996 101.5C86.9994 101.5 86.9991 101.5 86.9988 101.5C86.9986 101.5 86.9983 101.5 86.998 101.5C86.9978 101.5 86.9975 101.5 86.9973 101.5C86.997 101.5 86.9967 101.5 86.9965 101.5C86.9962 101.5 86.996 101.5 86.9957 101.5C86.9954 101.5 86.9952 101.5 86.9949 101.5C86.9947 101.5 86.9944 101.5 86.9941 101.5C86.9939 101.5 86.9936 101.5 86.9934 101.5C86.9931 101.5 86.9928 101.5 86.9926 101.5C86.9923 101.5 86.9921 101.5 86.9918 101.5C86.9915 101.5 86.9913 101.5 86.991 101.5C86.9908 101.5 86.9905 101.5 86.9902 101.5C86.99 101.5 86.9897 101.5 86.9895 101.5C86.9892 101.5 86.9889 101.5 86.9887 101.5C86.9884 101.5 86.9882 101.5 86.9879 101.5C86.9876 101.5 86.9874 101.5 86.9871 101.5C86.9869 101.5 86.9866 101.5 86.9863 101.5C86.9861 101.5 86.9858 101.5 86.9855 101.5C86.9853 101.5 86.985 101.5 86.9848 101.5C86.9845 101.5 86.9842 101.5 86.984 101.5C86.9837 101.5 86.9835 101.5 86.9832 101.5C86.9829 101.5 86.9827 101.5 86.9824 101.5C86.9822 101.5 86.9819 101.5 86.9816 101.5C86.9814 101.5 86.9811 101.5 86.9809 101.5C86.9806 101.5 86.9803 101.5 86.9801 101.5C86.9798 101.5 86.9796 101.5 86.9793 101.5C86.979 101.5 86.9788 101.5 86.9785 101.5C86.9783 101.5 86.978 101.5 86.9777 101.5C86.9775 101.5 86.9772 101.5 86.977 101.5C86.9767 101.5 86.9764 101.5 86.9762 101.5C86.9759 101.5 86.9757 101.5 86.9754 101.5C86.9751 101.5 86.9749 101.5 86.9746 101.5C86.9744 101.5 86.9741 101.5 86.9738 101.5C86.9736 101.5 86.9733 101.5 86.973 101.5C86.9728 101.5 86.9725 101.5 86.9723 101.5C86.972 101.5 86.9717 101.5 86.9715 101.5C86.9712 101.5 86.971 101.5 86.9707 101.5C86.9704 101.5 86.9702 101.5 86.9699 101.5C86.9697 101.5 86.9694 101.5 86.9691 101.5C86.9689 101.5 86.9686 101.5 86.9684 101.5C86.9681 101.5 86.9678 101.5 86.9676 101.5C86.9673 101.5 86.9671 101.5 86.9668 101.5C86.9665 101.5 86.9663 101.5 86.966 101.5C86.9658 101.5 86.9655 101.5 86.9652 101.5C86.965 101.5 86.9647 101.5 86.9645 101.5C86.9642 101.5 86.9639 101.5 86.9637 101.5C86.9634 101.5 86.9632 101.5 86.9629 101.5C86.9626 101.5 86.9624 101.5 86.9621 101.5C86.9619 101.5 86.9616 101.5 86.9613 101.5C86.9611 101.5 86.9608 101.5 86.9605 101.5C86.9603 101.5 86.96 101.5 86.9598 101.5C86.9595 101.5 86.9592 101.5 86.959 101.5C86.9587 101.5 86.9585 101.5 86.9582 101.5C86.9579 101.5 86.9577 101.5 86.9574 101.5C86.9572 101.5 86.9569 101.5 86.9566 101.5C86.9564 101.5 86.9561 101.5 86.9559 101.5C86.9556 101.5 86.9553 101.5 86.9551 101.5C86.9548 101.5 86.9546 101.5 86.9543 101.5C86.954 101.5 86.9538 101.5 86.9535 101.5C86.9533 101.5 86.953 101.5 86.9527 101.5C86.9525 101.5 86.9522 101.5 86.952 101.5C86.9517 101.5 86.9514 101.5 86.9512 101.5C86.9509 101.5 86.9507 101.5 86.9504 101.5C86.9501 101.5 86.9499 101.5 86.9496 101.5C86.9494 101.5 86.9491 101.5 86.9488 101.5C86.9486 101.5 86.9483 101.5 86.948 101.5C86.9478 101.5 86.9475 101.5 86.9473 101.5C86.947 101.5 86.9467 101.5 86.9465 101.5C86.9462 101.5 86.946 101.5 86.9457 101.5C86.9454 101.5 86.9452 101.5 86.9449 101.5C86.9447 101.5 86.9444 101.5 86.9441 101.5C86.9439 101.5 86.9436 101.5 86.9434 101.5C86.9431 101.5 86.9428 101.5 86.9426 101.5C86.9423 101.5 86.9421 101.5 86.9418 101.5C86.9415 101.5 86.9413 101.5 86.941 101.5C86.9408 101.5 86.9405 101.5 86.9402 101.5C86.94 101.5 86.9397 101.5 86.9395 101.5C86.9392 101.5 86.9389 101.5 86.9387 101.5C86.9384 101.5 86.9382 101.5 86.9379 101.5C86.9376 101.5 86.9374 101.5 86.9371 101.5C86.9369 101.5 86.9366 101.5 86.9363 101.5C86.9361 101.5 86.9358 101.5 86.9355 101.5C86.9353 101.5 86.935 101.5 86.9348 101.5C86.9345 101.5 86.9342 101.5 86.934 101.5C86.9337 101.5 86.9335 101.5 86.9332 101.5C86.9329 101.5 86.9327 101.5 86.9324 101.5C86.9322 101.5 86.9319 101.5 86.9316 101.5C86.9314 101.5 86.9311 101.5 86.9309 101.5C86.9306 101.5 86.9303 101.5 86.9301 101.5C86.9298 101.5 86.9296 101.5 86.9293 101.5C86.929 101.5 86.9288 101.5 86.9285 101.5C86.9283 101.5 86.928 101.5 86.9277 101.5C86.9275 101.5 86.9272 101.5 86.927 101.5C86.9267 101.5 86.9264 101.5 86.9262 101.5C86.9259 101.5 86.9257 101.5 86.9254 101.5C86.9251 101.5 86.9249 101.5 86.9246 101.5C86.9244 101.5 86.9241 101.5 86.9238 101.5C86.9236 101.5 86.9233 101.5 86.923 101.5C86.9228 101.5 86.9225 101.5 86.9223 101.5C86.922 101.5 86.9217 101.5 86.9215 101.5C86.9212 101.5 86.921 101.5 86.9207 101.5C86.9204 101.5 86.9202 101.5 86.9199 101.5C86.9197 101.5 86.9194 101.5 86.9191 101.5C86.9189 101.5 86.9186 101.5 86.9184 101.5C86.9181 101.5 86.9178 101.5 86.9176 101.5C86.9173 101.5 86.9171 101.5 86.9168 101.5C86.9165 101.5 86.9163 101.5 86.916 101.5C86.9158 101.5 86.9155 101.5 86.9152 101.5C86.915 101.5 86.9147 101.5 86.9145 101.5C86.9142 101.5 86.9139 101.5 86.9137 101.5C86.9134 101.5 86.9132 101.5 86.9129 101.5C86.9126 101.5 86.9124 101.5 86.9121 101.5C86.9119 101.5 86.9116 101.5 86.9113 101.5C86.9111 101.5 86.9108 101.5 86.9105 101.5C86.9103 101.5 86.91 101.5 86.9098 101.5C86.9095 101.5 86.9092 101.5 86.909 101.5C86.9087 101.5 86.9085 101.5 86.9082 101.5C86.9079 101.5 86.9077 101.5 86.9074 101.5C86.9072 101.5 86.9069 101.5 86.9066 101.5C86.9064 101.5 86.9061 101.5 86.9059 101.5C86.9056 101.5 86.9053 101.5 86.9051 101.5C86.9048 101.5 86.9046 101.5 86.9043 101.5C86.904 101.5 86.9038 101.5 86.9035 101.5C86.9033 101.5 86.903 101.5 86.9027 101.5C86.9025 101.5 86.9022 101.5 86.902 101.5C86.9017 101.5 86.9014 101.5 86.9012 101.5C86.9009 101.5 86.9007 101.5 86.9004 101.5C86.9001 101.5 86.8999 101.5 86.8996 101.5C86.8994 101.5 86.8991 101.5 86.8988 101.5C86.8986 101.5 86.8983 101.5 86.898 101.5C86.8978 101.5 86.8975 101.5 86.8973 101.5C86.897 101.5 86.8967 101.5 86.8965 101.5C86.8962 101.5 86.896 101.5 86.8957 101.5C86.8954 101.5 86.8952 101.5 86.8949 101.5C86.8947 101.5 86.8944 101.5 86.8941 101.5C86.8939 101.5 86.8936 101.5 86.8934 101.5C86.8931 101.5 86.8928 101.5 86.8926 101.5C86.8923 101.5 86.8921 101.5 86.8918 101.5C86.8915 101.5 86.8913 101.5 86.891 101.5C86.8908 101.5 86.8905 101.5 86.8902 101.5C86.89 101.5 86.8897 101.5 86.8895 101.5C86.8892 101.5 86.8889 101.5 86.8887 101.5C86.8884 101.5 86.8882 101.5 86.8879 101.5C86.8876 101.5 86.8874 101.5 86.8871 101.5C86.8869 101.5 86.8866 101.5 86.8863 101.5C86.8861 101.5 86.8858 101.5 86.8855 101.5C86.8853 101.5 86.885 101.5 86.8848 101.5C86.8845 101.5 86.8842 101.5 86.884 101.5C86.8837 101.5 86.8835 101.5 86.8832 101.5C86.8829 101.5 86.8827 101.5 86.8824 101.5C86.8822 101.5 86.8819 101.5 86.8816 101.5C86.8814 101.5 86.8811 101.5 86.8809 101.5C86.8806 101.5 86.8803 101.5 86.8801 101.5C86.8798 101.5 86.8796 101.5 86.8793 101.5C86.879 101.5 86.8788 101.5 86.8785 101.5C86.8783 101.5 86.878 101.5 86.8777 101.5C86.8775 101.5 86.8772 101.5 86.877 101.5C86.8767 101.5 86.8764 101.5 86.8762 101.5C86.8759 101.5 86.8757 101.5 86.8754 101.5C86.8751 101.5 86.8749 101.5 86.8746 101.5C86.8744 101.5 86.8741 101.5 86.8738 101.5C86.8736 101.5 86.8733 101.5 86.873 101.5C86.8728 101.5 86.8725 101.5 86.8723 101.5C86.872 101.5 86.8717 101.5 86.8715 101.5C86.8712 101.5 86.871 101.5 86.8707 101.5C86.8704 101.5 86.8702 101.5 86.8699 101.5C86.8697 101.5 86.8694 101.5 86.8691 101.5C86.8689 101.5 86.8686 101.5 86.8684 101.5C86.8681 101.5 86.8678 101.5 86.8676 101.5C86.8673 101.5 86.8671 101.5 86.8668 101.5C86.8665 101.5 86.8663 101.5 86.866 101.5C86.8658 101.5 86.8655 101.5 86.8652 101.5C86.865 101.5 86.8647 101.5 86.8645 101.5C86.8642 101.5 86.8639 101.5 86.8637 101.5C86.8634 101.5 86.8632 101.5 86.8629 101.5C86.8626 101.5 86.8624 101.5 86.8621 101.5C86.8619 101.5 86.8616 101.5 86.8613 101.5C86.8611 101.5 86.8608 101.5 86.8605 101.5C86.8603 101.5 86.86 101.5 86.8598 101.5C86.8595 101.5 86.8592 101.5 86.859 101.5C86.8587 101.5 86.8585 101.5 86.8582 101.5C86.8579 101.5 86.8577 101.5 86.8574 101.5C86.8572 101.5 86.8569 101.5 86.8566 101.5C86.8564 101.5 86.8561 101.5 86.8559 101.5C86.8556 101.5 86.8553 101.5 86.8551 101.5C86.8548 101.5 86.8546 101.5 86.8543 101.5C86.854 101.5 86.8538 101.5 86.8535 101.5C86.8533 101.5 86.853 101.5 86.8527 101.5C86.8525 101.5 86.8522 101.5 86.852 101.5C86.8517 101.5 86.8514 101.5 86.8512 101.5C86.8509 101.5 86.8507 101.5 86.8504 101.5C86.8501 101.5 86.8499 101.5 86.8496 101.5C86.8494 101.5 86.8491 101.5 86.8488 101.5C86.8486 101.5 86.8483 101.5 86.848 101.5C86.8478 101.5 86.8475 101.5 86.8473 101.5C86.847 101.5 86.8467 101.5 86.8465 101.5C86.8462 101.5 86.846 101.5 86.8457 101.5C86.8454 101.5 86.8452 101.5 86.8449 101.5C86.8447 101.5 86.8444 101.5 86.8441 101.5C86.8439 101.5 86.8436 101.5 86.8434 101.5C86.8431 101.5 86.8428 101.5 86.8426 101.5C86.8423 101.5 86.8421 101.5 86.8418 101.5C86.8415 101.5 86.8413 101.5 86.841 101.5C86.8408 101.5 86.8405 101.5 86.8402 101.5C86.84 101.5 86.8397 101.5 86.8395 101.5C86.8392 101.5 86.8389 101.5 86.8387 101.5C86.8384 101.5 86.8382 101.5 86.8379 101.5C86.8376 101.5 86.8374 101.5 86.8371 101.5C86.8369 101.5 86.8366 101.5 86.8363 101.5C86.8361 101.5 86.8358 101.5 86.8355 101.5C86.8353 101.5 86.835 101.5 86.8348 101.5C86.8345 101.5 86.8342 101.5 86.834 101.5C86.8337 101.5 86.8335 101.5 86.8332 101.5C86.8329 101.5 86.8327 101.5 86.8324 101.5C86.8322 101.5 86.8319 101.5 86.8316 101.5C86.8314 101.5 86.8311 101.5 86.8309 101.5C86.8306 101.5 86.8303 101.5 86.8301 101.5C86.8298 101.5 86.8296 101.5 86.8293 101.5C86.829 101.5 86.8288 101.5 86.8285 101.5C86.8283 101.5 86.828 101.5 86.8277 101.5C86.8275 101.5 86.8272 101.5 86.827 101.5C86.8267 101.5 86.8264 101.5 86.8262 101.5C86.8259 101.5 86.8257 101.5 86.8254 101.5C86.8251 101.5 86.8249 101.5 86.8246 101.5C86.8244 101.5 86.8241 101.5 86.8238 101.5C86.8236 101.5 86.8233 101.5 86.823 101.5C86.8228 101.5 86.8225 101.5 86.8223 101.5C86.822 101.5 86.8217 101.5 86.8215 101.5C86.8212 101.5 86.821 101.5 86.8207 101.5C86.8204 101.5 86.8202 101.5 86.8199 101.5C86.8197 101.5 86.8194 101.5 86.8191 101.5C86.8189 101.5 86.8186 101.5 86.8184 101.5C86.8181 101.5 86.8178 101.5 86.8176 101.5C86.8173 101.5 86.8171 101.5 86.8168 101.5C86.8165 101.5 86.8163 101.5 86.816 101.5C86.8158 101.5 86.8155 101.5 86.8152 101.5C86.815 101.5 86.8147 101.5 86.8145 101.5C86.8142 101.5 86.8139 101.5 86.8137 101.5C86.8134 101.5 86.8132 101.5 86.8129 101.5C86.8126 101.5 86.8124 101.5 86.8121 101.5C86.8119 101.5 86.8116 101.5 86.8113 101.5C86.8111 101.5 86.8108 101.5 86.8105 101.5C86.8103 101.5 86.81 101.5 86.8098 101.5C86.8095 101.5 86.8092 101.5 86.809 101.5C86.8087 101.5 86.8085 101.5 86.8082 101.5C86.8079 101.5 86.8077 101.5 86.8074 101.5C86.8072 101.5 86.8069 101.5 86.8066 101.5C86.8064 101.5 86.8061 101.5 86.8059 101.5C86.8056 101.5 86.8053 101.5 86.8051 101.5C86.8048 101.5 86.8046 101.5 86.8043 101.5C86.804 101.5 86.8038 101.5 86.8035 101.5C86.8033 101.5 86.803 101.5 86.8027 101.5C86.8025 101.5 86.8022 101.5 86.802 101.5C86.8017 101.5 86.8014 101.5 86.8012 101.5C86.8009 101.5 86.8007 101.5 86.8004 101.5C86.8001 101.5 86.7999 101.5 86.7996 101.5C86.7994 101.5 86.7991 101.5 86.7988 101.5C86.7986 101.5 86.7983 101.5 86.798 101.5C86.7978 101.5 86.7975 101.5 86.7973 101.5C86.797 101.5 86.7967 101.5 86.7965 101.5C86.7962 101.5 86.796 101.5 86.7957 101.5C86.7954 101.5 86.7952 101.5 86.7949 101.5C86.7947 101.5 86.7944 101.5 86.7941 101.5C86.7939 101.5 86.7936 101.5 86.7934 101.5C86.7931 101.5 86.7928 101.5 86.7926 101.5C86.7923 101.5 86.7921 101.5 86.7918 101.5C86.7915 101.5 86.7913 101.5 86.791 101.5C86.7908 101.5 86.7905 101.5 86.7902 101.5C86.79 101.5 86.7897 101.5 86.7895 101.5C86.7892 101.5 86.7889 101.5 86.7887 101.5C86.7884 101.5 86.7882 101.5 86.7879 101.5C86.7876 101.5 86.7874 101.5 86.7871 101.5C86.7869 101.5 86.7866 101.5 86.7863 101.5C86.7861 101.5 86.7858 101.5 86.7855 101.5C86.7853 101.5 86.785 101.5 86.7848 101.5C86.7845 101.5 86.7842 101.5 86.784 101.5C86.7837 101.5 86.7835 101.5 86.7832 101.5C86.7829 101.5 86.7827 101.5 86.7824 101.5C86.7822 101.5 86.7819 101.5 86.7816 101.5C86.7814 101.5 86.7811 101.5 86.7809 101.5C86.7806 101.5 86.7803 101.5 86.7801 101.5C86.7798 101.5 86.7796 101.5 86.7793 101.5C86.779 101.5 86.7788 101.5 86.7785 101.5C86.7783 101.5 86.778 101.5 86.7777 101.5C86.7775 101.5 86.7772 101.5 86.777 101.5C86.7767 101.5 86.7764 101.5 86.7762 101.5C86.7759 101.5 86.7757 101.5 86.7754 101.5C86.7751 101.5 86.7749 101.5 86.7746 101.5C86.7744 101.5 86.7741 101.5 86.7738 101.5C86.7736 101.5 86.7733 101.5 86.773 101.5C86.7728 101.5 86.7725 101.5 86.7723 101.5C86.772 101.5 86.7717 101.5 86.7715 101.5C86.7712 101.5 86.771 101.5 86.7707 101.5C86.7704 101.5 86.7702 101.5 86.7699 101.5C86.7697 101.5 86.7694 101.5 86.7691 101.5C86.7689 101.5 86.7686 101.5 86.7684 101.5C86.7681 101.5 86.7678 101.5 86.7676 101.5C86.7673 101.5 86.7671 101.5 86.7668 101.5C86.7665 101.5 86.7663 101.5 86.766 101.5C86.7658 101.5 86.7655 101.5 86.7652 101.5C86.765 101.5 86.7647 101.5 86.7645 101.5C86.7642 101.5 86.7639 101.5 86.7637 101.5C86.7634 101.5 86.7632 101.5 86.7629 101.5C86.7626 101.5 86.7624 101.5 86.7621 101.5C86.7619 101.5 86.7616 101.5 86.7613 101.5C86.7611 101.5 86.7608 101.5 86.7605 101.5C86.7603 101.5 86.76 101.5 86.7598 101.5C86.7595 101.5 86.7592 101.5 86.759 101.5C86.7587 101.5 86.7585 101.5 86.7582 101.5C86.7579 101.5 86.7577 101.5 86.7574 101.5C86.7572 101.5 86.7569 101.5 86.7566 101.5C86.7564 101.5 86.7561 101.5 86.7559 101.5C86.7556 101.5 86.7553 101.5 86.7551 101.5C86.7548 101.5 86.7546 101.5 86.7543 101.5C86.754 101.5 86.7538 101.5 86.7535 101.5C86.7533 101.5 86.753 101.5 86.7527 101.5C86.7525 101.5 86.7522 101.5 86.752 101.5C86.7517 101.5 86.7514 101.5 86.7512 101.5C86.7509 101.5 86.7507 101.5 86.7504 101.5C86.7501 101.5 86.7499 101.5 86.7496 101.5C86.7494 101.5 86.7491 101.5 86.7488 101.5C86.7486 101.5 86.7483 101.5 86.748 101.5C86.7478 101.5 86.7475 101.5 86.7473 101.5C86.747 101.5 86.7467 101.5 86.7465 101.5C86.7462 101.5 86.746 101.5 86.7457 101.5C86.7454 101.5 86.7452 101.5 86.7449 101.5C86.7447 101.5 86.7444 101.5 86.7441 101.5C86.7439 101.5 86.7436 101.5 86.7434 101.5C86.7431 101.5 86.7428 101.5 86.7426 101.5C86.7423 101.5 86.7421 101.5 86.7418 101.5C86.7415 101.5 86.7413 101.5 86.741 101.5C86.7408 101.5 86.7405 101.5 86.7402 101.5C86.74 101.5 86.7397 101.5 86.7395 101.5C86.7392 101.5 86.7389 101.5 86.7387 101.5C86.7384 101.5 86.7382 101.5 86.7379 101.5C86.7376 101.5 86.7374 101.5 86.7371 101.5C86.7369 101.5 86.7366 101.5 86.7363 101.5C86.7361 101.5 86.7358 101.5 86.7355 101.5C86.7353 101.5 86.735 101.5 86.7348 101.5C86.7345 101.5 86.7342 101.5 86.734 101.5C86.7337 101.5 86.7335 101.5 86.7332 101.5C86.7329 101.5 86.7327 101.5 86.7324 101.5C86.7322 101.5 86.7319 101.5 86.7316 101.5C86.7314 101.5 86.7311 101.5 86.7309 101.5C86.7306 101.5 86.7303 101.5 86.7301 101.5C86.7298 101.5 86.7296 101.5 86.7293 101.5C86.729 101.5 86.7288 101.5 86.7285 101.5C86.7283 101.5 86.728 101.5 86.7277 101.5C86.7275 101.5 86.7272 101.5 86.727 101.5C86.7267 101.5 86.7264 101.5 86.7262 101.5C86.7259 101.5 86.7257 101.5 86.7254 101.5C86.7251 101.5 86.7249 101.5 86.7246 101.5C86.7243 101.5 86.7241 101.5 86.7238 101.5C86.7236 101.5 86.7233 101.5 86.723 101.5C86.7228 101.5 86.7225 101.5 86.7223 101.5C86.722 101.5 86.7217 101.5 86.7215 101.5C86.7212 101.5 86.721 101.5 86.7207 101.5C86.7204 101.5 86.7202 101.5 86.7199 101.5C86.7197 101.5 86.7194 101.5 86.7191 101.5C86.7189 101.5 86.7186 101.5 86.7184 101.5C86.7181 101.5 86.7178 101.5 86.7176 101.5C86.7173 101.5 86.7171 101.5 86.7168 101.5C86.7165 101.5 86.7163 101.5 86.716 101.5C86.7158 101.5 86.7155 101.5 86.7152 101.5C86.715 101.5 86.7147 101.5 86.7145 101.5C86.7142 101.5 86.7139 101.5 86.7137 101.5C86.7134 101.5 86.7132 101.5 86.7129 101.5C86.7126 101.5 86.7124 101.5 86.7121 101.5C86.7118 101.5 86.7116 101.5 86.7113 101.5C86.7111 101.5 86.7108 101.5 86.7105 101.5C86.7103 101.5 86.71 101.5 86.7098 101.5C86.7095 101.5 86.7092 101.5 86.709 101.5C86.7087 101.5 86.7085 101.5 86.7082 101.5C86.7079 101.5 86.7077 101.5 86.7074 101.5C86.7072 101.5 86.7069 101.5 86.7066 101.5C86.7064 101.5 86.7061 101.5 86.7059 101.5C86.7056 101.5 86.7053 101.5 86.7051 101.5C86.7048 101.5 86.7046 101.5 86.7043 101.5C86.704 101.5 86.7038 101.5 86.7035 101.5C86.7033 101.5 86.703 101.5 86.7027 101.5C86.7025 101.5 86.7022 101.5 86.702 101.5C86.7017 101.5 86.7014 101.5 86.7012 101.5C86.7009 101.5 86.7007 101.5 86.7004 101.5C86.7001 101.5 86.6999 101.5 86.6996 101.5C86.6993 101.5 86.6991 101.5 86.6988 101.5C86.6986 101.5 86.6983 101.5 86.698 101.5C86.6978 101.5 86.6975 101.5 86.6973 101.5C86.697 101.5 86.6967 101.5 86.6965 101.5C86.6962 101.5 86.696 101.5 86.6957 101.5C86.6954 101.5 86.6952 101.5 86.6949 101.5C86.6947 101.5 86.6944 101.5 86.6941 101.5C86.6939 101.5 86.6936 101.5 86.6934 101.5C86.6931 101.5 86.6928 101.5 86.6926 101.5C86.6923 101.5 86.6921 101.5 86.6918 101.5C86.6915 101.5 86.6913 101.5 86.691 101.5C86.6908 101.5 86.6905 101.5 86.6902 101.5C86.69 101.5 86.6897 101.5 86.6895 101.5C86.6892 101.5 86.6889 101.5 86.6887 101.5C86.6884 101.5 86.6882 101.5 86.6879 101.5C86.6876 101.5 86.6874 101.5 86.6871 101.5C86.6868 101.5 86.6866 101.5 86.6863 101.5C86.6861 101.5 86.6858 101.5 86.6855 101.5C86.6853 101.5 86.685 101.5 86.6848 101.5C86.6845 101.5 86.6842 101.5 86.684 101.5C86.6837 101.5 86.6835 101.5 86.6832 101.5C86.6829 101.5 86.6827 101.5 86.6824 101.5C86.6822 101.5 86.6819 101.5 86.6816 101.5C86.6814 101.5 86.6811 101.5 86.6809 101.5C86.6806 101.5 86.6803 101.5 86.6801 101.5C86.6798 101.5 86.6796 101.5 86.6793 101.5C86.679 101.5 86.6788 101.5 86.6785 101.5C86.6783 101.5 86.678 101.5 86.6777 101.5C86.6775 101.5 86.6772 101.5 86.677 101.5C86.6767 101.5 86.6764 101.5 86.6762 101.5C86.6759 101.5 86.6757 101.5 86.6754 101.5C86.6751 101.5 86.6749 101.5 86.6746 101.5C86.6743 101.5 86.6741 101.5 86.6738 101.5C86.6736 101.5 86.6733 101.5 86.673 101.5C86.6728 101.5 86.6725 101.5 86.6723 101.5C86.672 101.5 86.6717 101.5 86.6715 101.5C86.6712 101.5 86.671 101.5 86.6707 101.5C86.6704 101.5 86.6702 101.5 86.6699 101.5C86.6697 101.5 86.6694 101.5 86.6691 101.5C86.6689 101.5 86.6686 101.5 86.6684 101.5C86.6681 101.5 86.6678 101.5 86.6676 101.5C86.6673 101.5 86.6671 101.5 86.6668 101.5C86.6665 101.5 86.6663 101.5 86.666 101.5C86.6658 101.5 86.6655 101.5 86.6652 101.5C86.665 101.5 86.6647 101.5 86.6645 101.5C86.6642 101.5 86.6639 101.5 86.6637 101.5C86.6634 101.5 86.6632 101.5 86.6629 101.5C86.6626 101.5 86.6624 101.5 86.6621 101.5C86.6618 101.5 86.6616 101.5 86.6613 101.5C86.6611 101.5 86.6608 101.5 86.6605 101.5C86.6603 101.5 86.66 101.5 86.6598 101.5C86.6595 101.5 86.6592 101.5 86.659 101.5C86.6587 101.5 86.6585 101.5 86.6582 101.5C86.6579 101.5 86.6577 101.5 86.6574 101.5C86.6572 101.5 86.6569 101.5 86.6566 101.5C86.6564 101.5 86.6561 101.5 86.6559 101.5C86.6556 101.5 86.6553 101.5 86.6551 101.5C86.6548 101.5 86.6546 101.5 86.6543 101.5C86.654 101.5 86.6538 101.5 86.6535 101.5C86.6533 101.5 86.653 101.5 86.6527 101.5C86.6525 101.5 86.6522 101.5 86.652 101.5C86.6517 101.5 86.6514 101.5 86.6512 101.5C86.6509 101.5 86.6507 101.5 86.6504 101.5C86.6501 101.5 86.6499 101.5 86.6496 101.5C86.6493 101.5 86.6491 101.5 86.6488 101.5C86.6486 101.5 86.6483 101.5 86.648 101.5C86.6478 101.5 86.6475 101.5 86.6473 101.5C86.647 101.5 86.6467 101.5 86.6465 101.5C86.6462 101.5 86.646 101.5 86.6457 101.5C86.6454 101.5 86.6452 101.5 86.6449 101.5C86.6447 101.5 86.6444 101.5 86.6441 101.5C86.6439 101.5 86.6436 101.5 86.6434 101.5C86.6431 101.5 86.6428 101.5 86.6426 101.5C86.6423 101.5 86.6421 101.5 86.6418 101.5C86.6415 101.5 86.6413 101.5 86.641 101.5C86.6408 101.5 86.6405 101.5 86.6402 101.5C86.64 101.5 86.6397 101.5 86.6395 101.5C86.6392 101.5 86.6389 101.5 86.6387 101.5C86.6384 101.5 86.6382 101.5 86.6379 101.5C86.6376 101.5 86.6374 101.5 86.6371 101.5C86.6368 101.5 86.6366 101.5 86.6363 101.5C86.6361 101.5 86.6358 101.5 86.6355 101.5C86.6353 101.5 86.635 101.5 86.6348 101.5C86.6345 101.5 86.6342 101.5 86.634 101.5C86.6337 101.5 86.6335 101.5 86.6332 101.5C86.6329 101.5 86.6327 101.5 86.6324 101.5C86.6322 101.5 86.6319 101.5 86.6316 101.5C86.6314 101.5 86.6311 101.5 86.6309 101.5C86.6306 101.5 86.6303 101.5 86.6301 101.5C86.6298 101.5 86.6296 101.5 86.6293 101.5C86.629 101.5 86.6288 101.5 86.6285 101.5C86.6283 101.5 86.628 101.5 86.6277 101.5C86.6275 101.5 86.6272 101.5 86.627 101.5C86.6267 101.5 86.6264 101.5 86.6262 101.5C86.6259 101.5 86.6257 101.5 86.6254 101.5C86.6251 101.5 86.6249 101.5 86.6246 101.5C86.6243 101.5 86.6241 101.5 86.6238 101.5C86.6236 101.5 86.6233 101.5 86.623 101.5C86.6228 101.5 86.6225 101.5 86.6223 101.5C86.622 101.5 86.6217 101.5 86.6215 101.5C86.6212 101.5 86.621 101.5 86.6207 101.5V111.5C86.621 111.5 86.6212 111.5 86.6215 111.5C86.6217 111.5 86.622 111.5 86.6223 111.5C86.6225 111.5 86.6228 111.5 86.623 111.5C86.6233 111.5 86.6236 111.5 86.6238 111.5C86.6241 111.5 86.6243 111.5 86.6246 111.5C86.6249 111.5 86.6251 111.5 86.6254 111.5C86.6257 111.5 86.6259 111.5 86.6262 111.5C86.6264 111.5 86.6267 111.5 86.627 111.5C86.6272 111.5 86.6275 111.5 86.6277 111.5C86.628 111.5 86.6283 111.5 86.6285 111.5C86.6288 111.5 86.629 111.5 86.6293 111.5C86.6296 111.5 86.6298 111.5 86.6301 111.5C86.6303 111.5 86.6306 111.5 86.6309 111.5C86.6311 111.5 86.6314 111.5 86.6316 111.5C86.6319 111.5 86.6322 111.5 86.6324 111.5C86.6327 111.5 86.6329 111.5 86.6332 111.5C86.6335 111.5 86.6337 111.5 86.634 111.5C86.6342 111.5 86.6345 111.5 86.6348 111.5C86.635 111.5 86.6353 111.5 86.6355 111.5C86.6358 111.5 86.6361 111.5 86.6363 111.5C86.6366 111.5 86.6368 111.5 86.6371 111.5C86.6374 111.5 86.6376 111.5 86.6379 111.5C86.6382 111.5 86.6384 111.5 86.6387 111.5C86.6389 111.5 86.6392 111.5 86.6395 111.5C86.6397 111.5 86.64 111.5 86.6402 111.5C86.6405 111.5 86.6408 111.5 86.641 111.5C86.6413 111.5 86.6415 111.5 86.6418 111.5C86.6421 111.5 86.6423 111.5 86.6426 111.5C86.6428 111.5 86.6431 111.5 86.6434 111.5C86.6436 111.5 86.6439 111.5 86.6441 111.5C86.6444 111.5 86.6447 111.5 86.6449 111.5C86.6452 111.5 86.6454 111.5 86.6457 111.5C86.646 111.5 86.6462 111.5 86.6465 111.5C86.6467 111.5 86.647 111.5 86.6473 111.5C86.6475 111.5 86.6478 111.5 86.648 111.5C86.6483 111.5 86.6486 111.5 86.6488 111.5C86.6491 111.5 86.6493 111.5 86.6496 111.5C86.6499 111.5 86.6501 111.5 86.6504 111.5C86.6507 111.5 86.6509 111.5 86.6512 111.5C86.6514 111.5 86.6517 111.5 86.652 111.5C86.6522 111.5 86.6525 111.5 86.6527 111.5C86.653 111.5 86.6533 111.5 86.6535 111.5C86.6538 111.5 86.654 111.5 86.6543 111.5C86.6546 111.5 86.6548 111.5 86.6551 111.5C86.6553 111.5 86.6556 111.5 86.6559 111.5C86.6561 111.5 86.6564 111.5 86.6566 111.5C86.6569 111.5 86.6572 111.5 86.6574 111.5C86.6577 111.5 86.6579 111.5 86.6582 111.5C86.6585 111.5 86.6587 111.5 86.659 111.5C86.6592 111.5 86.6595 111.5 86.6598 111.5C86.66 111.5 86.6603 111.5 86.6605 111.5C86.6608 111.5 86.6611 111.5 86.6613 111.5C86.6616 111.5 86.6618 111.5 86.6621 111.5C86.6624 111.5 86.6626 111.5 86.6629 111.5C86.6632 111.5 86.6634 111.5 86.6637 111.5C86.6639 111.5 86.6642 111.5 86.6645 111.5C86.6647 111.5 86.665 111.5 86.6652 111.5C86.6655 111.5 86.6658 111.5 86.666 111.5C86.6663 111.5 86.6665 111.5 86.6668 111.5C86.6671 111.5 86.6673 111.5 86.6676 111.5C86.6678 111.5 86.6681 111.5 86.6684 111.5C86.6686 111.5 86.6689 111.5 86.6691 111.5C86.6694 111.5 86.6697 111.5 86.6699 111.5C86.6702 111.5 86.6704 111.5 86.6707 111.5C86.671 111.5 86.6712 111.5 86.6715 111.5C86.6717 111.5 86.672 111.5 86.6723 111.5C86.6725 111.5 86.6728 111.5 86.673 111.5C86.6733 111.5 86.6736 111.5 86.6738 111.5C86.6741 111.5 86.6743 111.5 86.6746 111.5C86.6749 111.5 86.6751 111.5 86.6754 111.5C86.6757 111.5 86.6759 111.5 86.6762 111.5C86.6764 111.5 86.6767 111.5 86.677 111.5C86.6772 111.5 86.6775 111.5 86.6777 111.5C86.678 111.5 86.6783 111.5 86.6785 111.5C86.6788 111.5 86.679 111.5 86.6793 111.5C86.6796 111.5 86.6798 111.5 86.6801 111.5C86.6803 111.5 86.6806 111.5 86.6809 111.5C86.6811 111.5 86.6814 111.5 86.6816 111.5C86.6819 111.5 86.6822 111.5 86.6824 111.5C86.6827 111.5 86.6829 111.5 86.6832 111.5C86.6835 111.5 86.6837 111.5 86.684 111.5C86.6842 111.5 86.6845 111.5 86.6848 111.5C86.685 111.5 86.6853 111.5 86.6855 111.5C86.6858 111.5 86.6861 111.5 86.6863 111.5C86.6866 111.5 86.6868 111.5 86.6871 111.5C86.6874 111.5 86.6876 111.5 86.6879 111.5C86.6882 111.5 86.6884 111.5 86.6887 111.5C86.6889 111.5 86.6892 111.5 86.6895 111.5C86.6897 111.5 86.69 111.5 86.6902 111.5C86.6905 111.5 86.6908 111.5 86.691 111.5C86.6913 111.5 86.6915 111.5 86.6918 111.5C86.6921 111.5 86.6923 111.5 86.6926 111.5C86.6928 111.5 86.6931 111.5 86.6934 111.5C86.6936 111.5 86.6939 111.5 86.6941 111.5C86.6944 111.5 86.6947 111.5 86.6949 111.5C86.6952 111.5 86.6954 111.5 86.6957 111.5C86.696 111.5 86.6962 111.5 86.6965 111.5C86.6967 111.5 86.697 111.5 86.6973 111.5C86.6975 111.5 86.6978 111.5 86.698 111.5C86.6983 111.5 86.6986 111.5 86.6988 111.5C86.6991 111.5 86.6993 111.5 86.6996 111.5C86.6999 111.5 86.7001 111.5 86.7004 111.5C86.7007 111.5 86.7009 111.5 86.7012 111.5C86.7014 111.5 86.7017 111.5 86.702 111.5C86.7022 111.5 86.7025 111.5 86.7027 111.5C86.703 111.5 86.7033 111.5 86.7035 111.5C86.7038 111.5 86.704 111.5 86.7043 111.5C86.7046 111.5 86.7048 111.5 86.7051 111.5C86.7053 111.5 86.7056 111.5 86.7059 111.5C86.7061 111.5 86.7064 111.5 86.7066 111.5C86.7069 111.5 86.7072 111.5 86.7074 111.5C86.7077 111.5 86.7079 111.5 86.7082 111.5C86.7085 111.5 86.7087 111.5 86.709 111.5C86.7092 111.5 86.7095 111.5 86.7098 111.5C86.71 111.5 86.7103 111.5 86.7105 111.5C86.7108 111.5 86.7111 111.5 86.7113 111.5C86.7116 111.5 86.7118 111.5 86.7121 111.5C86.7124 111.5 86.7126 111.5 86.7129 111.5C86.7132 111.5 86.7134 111.5 86.7137 111.5C86.7139 111.5 86.7142 111.5 86.7145 111.5C86.7147 111.5 86.715 111.5 86.7152 111.5C86.7155 111.5 86.7158 111.5 86.716 111.5C86.7163 111.5 86.7165 111.5 86.7168 111.5C86.7171 111.5 86.7173 111.5 86.7176 111.5C86.7178 111.5 86.7181 111.5 86.7184 111.5C86.7186 111.5 86.7189 111.5 86.7191 111.5C86.7194 111.5 86.7197 111.5 86.7199 111.5C86.7202 111.5 86.7204 111.5 86.7207 111.5C86.721 111.5 86.7212 111.5 86.7215 111.5C86.7217 111.5 86.722 111.5 86.7223 111.5C86.7225 111.5 86.7228 111.5 86.723 111.5C86.7233 111.5 86.7236 111.5 86.7238 111.5C86.7241 111.5 86.7243 111.5 86.7246 111.5C86.7249 111.5 86.7251 111.5 86.7254 111.5C86.7257 111.5 86.7259 111.5 86.7262 111.5C86.7264 111.5 86.7267 111.5 86.727 111.5C86.7272 111.5 86.7275 111.5 86.7277 111.5C86.728 111.5 86.7283 111.5 86.7285 111.5C86.7288 111.5 86.729 111.5 86.7293 111.5C86.7296 111.5 86.7298 111.5 86.7301 111.5C86.7303 111.5 86.7306 111.5 86.7309 111.5C86.7311 111.5 86.7314 111.5 86.7316 111.5C86.7319 111.5 86.7322 111.5 86.7324 111.5C86.7327 111.5 86.7329 111.5 86.7332 111.5C86.7335 111.5 86.7337 111.5 86.734 111.5C86.7342 111.5 86.7345 111.5 86.7348 111.5C86.735 111.5 86.7353 111.5 86.7355 111.5C86.7358 111.5 86.7361 111.5 86.7363 111.5C86.7366 111.5 86.7369 111.5 86.7371 111.5C86.7374 111.5 86.7376 111.5 86.7379 111.5C86.7382 111.5 86.7384 111.5 86.7387 111.5C86.7389 111.5 86.7392 111.5 86.7395 111.5C86.7397 111.5 86.74 111.5 86.7402 111.5C86.7405 111.5 86.7408 111.5 86.741 111.5C86.7413 111.5 86.7415 111.5 86.7418 111.5C86.7421 111.5 86.7423 111.5 86.7426 111.5C86.7428 111.5 86.7431 111.5 86.7434 111.5C86.7436 111.5 86.7439 111.5 86.7441 111.5C86.7444 111.5 86.7447 111.5 86.7449 111.5C86.7452 111.5 86.7454 111.5 86.7457 111.5C86.746 111.5 86.7462 111.5 86.7465 111.5C86.7467 111.5 86.747 111.5 86.7473 111.5C86.7475 111.5 86.7478 111.5 86.748 111.5C86.7483 111.5 86.7486 111.5 86.7488 111.5C86.7491 111.5 86.7494 111.5 86.7496 111.5C86.7499 111.5 86.7501 111.5 86.7504 111.5C86.7507 111.5 86.7509 111.5 86.7512 111.5C86.7514 111.5 86.7517 111.5 86.752 111.5C86.7522 111.5 86.7525 111.5 86.7527 111.5C86.753 111.5 86.7533 111.5 86.7535 111.5C86.7538 111.5 86.754 111.5 86.7543 111.5C86.7546 111.5 86.7548 111.5 86.7551 111.5C86.7553 111.5 86.7556 111.5 86.7559 111.5C86.7561 111.5 86.7564 111.5 86.7566 111.5C86.7569 111.5 86.7572 111.5 86.7574 111.5C86.7577 111.5 86.7579 111.5 86.7582 111.5C86.7585 111.5 86.7587 111.5 86.759 111.5C86.7592 111.5 86.7595 111.5 86.7598 111.5C86.76 111.5 86.7603 111.5 86.7605 111.5C86.7608 111.5 86.7611 111.5 86.7613 111.5C86.7616 111.5 86.7619 111.5 86.7621 111.5C86.7624 111.5 86.7626 111.5 86.7629 111.5C86.7632 111.5 86.7634 111.5 86.7637 111.5C86.7639 111.5 86.7642 111.5 86.7645 111.5C86.7647 111.5 86.765 111.5 86.7652 111.5C86.7655 111.5 86.7658 111.5 86.766 111.5C86.7663 111.5 86.7665 111.5 86.7668 111.5C86.7671 111.5 86.7673 111.5 86.7676 111.5C86.7678 111.5 86.7681 111.5 86.7684 111.5C86.7686 111.5 86.7689 111.5 86.7691 111.5C86.7694 111.5 86.7697 111.5 86.7699 111.5C86.7702 111.5 86.7704 111.5 86.7707 111.5C86.771 111.5 86.7712 111.5 86.7715 111.5C86.7717 111.5 86.772 111.5 86.7723 111.5C86.7725 111.5 86.7728 111.5 86.773 111.5C86.7733 111.5 86.7736 111.5 86.7738 111.5C86.7741 111.5 86.7744 111.5 86.7746 111.5C86.7749 111.5 86.7751 111.5 86.7754 111.5C86.7757 111.5 86.7759 111.5 86.7762 111.5C86.7764 111.5 86.7767 111.5 86.777 111.5C86.7772 111.5 86.7775 111.5 86.7777 111.5C86.778 111.5 86.7783 111.5 86.7785 111.5C86.7788 111.5 86.779 111.5 86.7793 111.5C86.7796 111.5 86.7798 111.5 86.7801 111.5C86.7803 111.5 86.7806 111.5 86.7809 111.5C86.7811 111.5 86.7814 111.5 86.7816 111.5C86.7819 111.5 86.7822 111.5 86.7824 111.5C86.7827 111.5 86.7829 111.5 86.7832 111.5C86.7835 111.5 86.7837 111.5 86.784 111.5C86.7842 111.5 86.7845 111.5 86.7848 111.5C86.785 111.5 86.7853 111.5 86.7855 111.5C86.7858 111.5 86.7861 111.5 86.7863 111.5C86.7866 111.5 86.7869 111.5 86.7871 111.5C86.7874 111.5 86.7876 111.5 86.7879 111.5C86.7882 111.5 86.7884 111.5 86.7887 111.5C86.7889 111.5 86.7892 111.5 86.7895 111.5C86.7897 111.5 86.79 111.5 86.7902 111.5C86.7905 111.5 86.7908 111.5 86.791 111.5C86.7913 111.5 86.7915 111.5 86.7918 111.5C86.7921 111.5 86.7923 111.5 86.7926 111.5C86.7928 111.5 86.7931 111.5 86.7934 111.5C86.7936 111.5 86.7939 111.5 86.7941 111.5C86.7944 111.5 86.7947 111.5 86.7949 111.5C86.7952 111.5 86.7954 111.5 86.7957 111.5C86.796 111.5 86.7962 111.5 86.7965 111.5C86.7967 111.5 86.797 111.5 86.7973 111.5C86.7975 111.5 86.7978 111.5 86.798 111.5C86.7983 111.5 86.7986 111.5 86.7988 111.5C86.7991 111.5 86.7994 111.5 86.7996 111.5C86.7999 111.5 86.8001 111.5 86.8004 111.5C86.8007 111.5 86.8009 111.5 86.8012 111.5C86.8014 111.5 86.8017 111.5 86.802 111.5C86.8022 111.5 86.8025 111.5 86.8027 111.5C86.803 111.5 86.8033 111.5 86.8035 111.5C86.8038 111.5 86.804 111.5 86.8043 111.5C86.8046 111.5 86.8048 111.5 86.8051 111.5C86.8053 111.5 86.8056 111.5 86.8059 111.5C86.8061 111.5 86.8064 111.5 86.8066 111.5C86.8069 111.5 86.8072 111.5 86.8074 111.5C86.8077 111.5 86.8079 111.5 86.8082 111.5C86.8085 111.5 86.8087 111.5 86.809 111.5C86.8092 111.5 86.8095 111.5 86.8098 111.5C86.81 111.5 86.8103 111.5 86.8105 111.5C86.8108 111.5 86.8111 111.5 86.8113 111.5C86.8116 111.5 86.8119 111.5 86.8121 111.5C86.8124 111.5 86.8126 111.5 86.8129 111.5C86.8132 111.5 86.8134 111.5 86.8137 111.5C86.8139 111.5 86.8142 111.5 86.8145 111.5C86.8147 111.5 86.815 111.5 86.8152 111.5C86.8155 111.5 86.8158 111.5 86.816 111.5C86.8163 111.5 86.8165 111.5 86.8168 111.5C86.8171 111.5 86.8173 111.5 86.8176 111.5C86.8178 111.5 86.8181 111.5 86.8184 111.5C86.8186 111.5 86.8189 111.5 86.8191 111.5C86.8194 111.5 86.8197 111.5 86.8199 111.5C86.8202 111.5 86.8204 111.5 86.8207 111.5C86.821 111.5 86.8212 111.5 86.8215 111.5C86.8217 111.5 86.822 111.5 86.8223 111.5C86.8225 111.5 86.8228 111.5 86.823 111.5C86.8233 111.5 86.8236 111.5 86.8238 111.5C86.8241 111.5 86.8244 111.5 86.8246 111.5C86.8249 111.5 86.8251 111.5 86.8254 111.5C86.8257 111.5 86.8259 111.5 86.8262 111.5C86.8264 111.5 86.8267 111.5 86.827 111.5C86.8272 111.5 86.8275 111.5 86.8277 111.5C86.828 111.5 86.8283 111.5 86.8285 111.5C86.8288 111.5 86.829 111.5 86.8293 111.5C86.8296 111.5 86.8298 111.5 86.8301 111.5C86.8303 111.5 86.8306 111.5 86.8309 111.5C86.8311 111.5 86.8314 111.5 86.8316 111.5C86.8319 111.5 86.8322 111.5 86.8324 111.5C86.8327 111.5 86.8329 111.5 86.8332 111.5C86.8335 111.5 86.8337 111.5 86.834 111.5C86.8342 111.5 86.8345 111.5 86.8348 111.5C86.835 111.5 86.8353 111.5 86.8355 111.5C86.8358 111.5 86.8361 111.5 86.8363 111.5C86.8366 111.5 86.8369 111.5 86.8371 111.5C86.8374 111.5 86.8376 111.5 86.8379 111.5C86.8382 111.5 86.8384 111.5 86.8387 111.5C86.8389 111.5 86.8392 111.5 86.8395 111.5C86.8397 111.5 86.84 111.5 86.8402 111.5C86.8405 111.5 86.8408 111.5 86.841 111.5C86.8413 111.5 86.8415 111.5 86.8418 111.5C86.8421 111.5 86.8423 111.5 86.8426 111.5C86.8428 111.5 86.8431 111.5 86.8434 111.5C86.8436 111.5 86.8439 111.5 86.8441 111.5C86.8444 111.5 86.8447 111.5 86.8449 111.5C86.8452 111.5 86.8454 111.5 86.8457 111.5C86.846 111.5 86.8462 111.5 86.8465 111.5C86.8467 111.5 86.847 111.5 86.8473 111.5C86.8475 111.5 86.8478 111.5 86.848 111.5C86.8483 111.5 86.8486 111.5 86.8488 111.5C86.8491 111.5 86.8494 111.5 86.8496 111.5C86.8499 111.5 86.8501 111.5 86.8504 111.5C86.8507 111.5 86.8509 111.5 86.8512 111.5C86.8514 111.5 86.8517 111.5 86.852 111.5C86.8522 111.5 86.8525 111.5 86.8527 111.5C86.853 111.5 86.8533 111.5 86.8535 111.5C86.8538 111.5 86.854 111.5 86.8543 111.5C86.8546 111.5 86.8548 111.5 86.8551 111.5C86.8553 111.5 86.8556 111.5 86.8559 111.5C86.8561 111.5 86.8564 111.5 86.8566 111.5C86.8569 111.5 86.8572 111.5 86.8574 111.5C86.8577 111.5 86.8579 111.5 86.8582 111.5C86.8585 111.5 86.8587 111.5 86.859 111.5C86.8592 111.5 86.8595 111.5 86.8598 111.5C86.86 111.5 86.8603 111.5 86.8605 111.5C86.8608 111.5 86.8611 111.5 86.8613 111.5C86.8616 111.5 86.8619 111.5 86.8621 111.5C86.8624 111.5 86.8626 111.5 86.8629 111.5C86.8632 111.5 86.8634 111.5 86.8637 111.5C86.8639 111.5 86.8642 111.5 86.8645 111.5C86.8647 111.5 86.865 111.5 86.8652 111.5C86.8655 111.5 86.8658 111.5 86.866 111.5C86.8663 111.5 86.8665 111.5 86.8668 111.5C86.8671 111.5 86.8673 111.5 86.8676 111.5C86.8678 111.5 86.8681 111.5 86.8684 111.5C86.8686 111.5 86.8689 111.5 86.8691 111.5C86.8694 111.5 86.8697 111.5 86.8699 111.5C86.8702 111.5 86.8704 111.5 86.8707 111.5C86.871 111.5 86.8712 111.5 86.8715 111.5C86.8717 111.5 86.872 111.5 86.8723 111.5C86.8725 111.5 86.8728 111.5 86.873 111.5C86.8733 111.5 86.8736 111.5 86.8738 111.5C86.8741 111.5 86.8744 111.5 86.8746 111.5C86.8749 111.5 86.8751 111.5 86.8754 111.5C86.8757 111.5 86.8759 111.5 86.8762 111.5C86.8764 111.5 86.8767 111.5 86.877 111.5C86.8772 111.5 86.8775 111.5 86.8777 111.5C86.878 111.5 86.8783 111.5 86.8785 111.5C86.8788 111.5 86.879 111.5 86.8793 111.5C86.8796 111.5 86.8798 111.5 86.8801 111.5C86.8803 111.5 86.8806 111.5 86.8809 111.5C86.8811 111.5 86.8814 111.5 86.8816 111.5C86.8819 111.5 86.8822 111.5 86.8824 111.5C86.8827 111.5 86.8829 111.5 86.8832 111.5C86.8835 111.5 86.8837 111.5 86.884 111.5C86.8842 111.5 86.8845 111.5 86.8848 111.5C86.885 111.5 86.8853 111.5 86.8855 111.5C86.8858 111.5 86.8861 111.5 86.8863 111.5C86.8866 111.5 86.8869 111.5 86.8871 111.5C86.8874 111.5 86.8876 111.5 86.8879 111.5C86.8882 111.5 86.8884 111.5 86.8887 111.5C86.8889 111.5 86.8892 111.5 86.8895 111.5C86.8897 111.5 86.89 111.5 86.8902 111.5C86.8905 111.5 86.8908 111.5 86.891 111.5C86.8913 111.5 86.8915 111.5 86.8918 111.5C86.8921 111.5 86.8923 111.5 86.8926 111.5C86.8928 111.5 86.8931 111.5 86.8934 111.5C86.8936 111.5 86.8939 111.5 86.8941 111.5C86.8944 111.5 86.8947 111.5 86.8949 111.5C86.8952 111.5 86.8954 111.5 86.8957 111.5C86.896 111.5 86.8962 111.5 86.8965 111.5C86.8967 111.5 86.897 111.5 86.8973 111.5C86.8975 111.5 86.8978 111.5 86.898 111.5C86.8983 111.5 86.8986 111.5 86.8988 111.5C86.8991 111.5 86.8994 111.5 86.8996 111.5C86.8999 111.5 86.9001 111.5 86.9004 111.5C86.9007 111.5 86.9009 111.5 86.9012 111.5C86.9014 111.5 86.9017 111.5 86.902 111.5C86.9022 111.5 86.9025 111.5 86.9027 111.5C86.903 111.5 86.9033 111.5 86.9035 111.5C86.9038 111.5 86.904 111.5 86.9043 111.5C86.9046 111.5 86.9048 111.5 86.9051 111.5C86.9053 111.5 86.9056 111.5 86.9059 111.5C86.9061 111.5 86.9064 111.5 86.9066 111.5C86.9069 111.5 86.9072 111.5 86.9074 111.5C86.9077 111.5 86.9079 111.5 86.9082 111.5C86.9085 111.5 86.9087 111.5 86.909 111.5C86.9092 111.5 86.9095 111.5 86.9098 111.5C86.91 111.5 86.9103 111.5 86.9105 111.5C86.9108 111.5 86.9111 111.5 86.9113 111.5C86.9116 111.5 86.9119 111.5 86.9121 111.5C86.9124 111.5 86.9126 111.5 86.9129 111.5C86.9132 111.5 86.9134 111.5 86.9137 111.5C86.9139 111.5 86.9142 111.5 86.9145 111.5C86.9147 111.5 86.915 111.5 86.9152 111.5C86.9155 111.5 86.9158 111.5 86.916 111.5C86.9163 111.5 86.9165 111.5 86.9168 111.5C86.9171 111.5 86.9173 111.5 86.9176 111.5C86.9178 111.5 86.9181 111.5 86.9184 111.5C86.9186 111.5 86.9189 111.5 86.9191 111.5C86.9194 111.5 86.9197 111.5 86.9199 111.5C86.9202 111.5 86.9204 111.5 86.9207 111.5C86.921 111.5 86.9212 111.5 86.9215 111.5C86.9217 111.5 86.922 111.5 86.9223 111.5C86.9225 111.5 86.9228 111.5 86.923 111.5C86.9233 111.5 86.9236 111.5 86.9238 111.5C86.9241 111.5 86.9244 111.5 86.9246 111.5C86.9249 111.5 86.9251 111.5 86.9254 111.5C86.9257 111.5 86.9259 111.5 86.9262 111.5C86.9264 111.5 86.9267 111.5 86.927 111.5C86.9272 111.5 86.9275 111.5 86.9277 111.5C86.928 111.5 86.9283 111.5 86.9285 111.5C86.9288 111.5 86.929 111.5 86.9293 111.5C86.9296 111.5 86.9298 111.5 86.9301 111.5C86.9303 111.5 86.9306 111.5 86.9309 111.5C86.9311 111.5 86.9314 111.5 86.9316 111.5C86.9319 111.5 86.9322 111.5 86.9324 111.5C86.9327 111.5 86.9329 111.5 86.9332 111.5C86.9335 111.5 86.9337 111.5 86.934 111.5C86.9342 111.5 86.9345 111.5 86.9348 111.5C86.935 111.5 86.9353 111.5 86.9355 111.5C86.9358 111.5 86.9361 111.5 86.9363 111.5C86.9366 111.5 86.9369 111.5 86.9371 111.5C86.9374 111.5 86.9376 111.5 86.9379 111.5C86.9382 111.5 86.9384 111.5 86.9387 111.5C86.9389 111.5 86.9392 111.5 86.9395 111.5C86.9397 111.5 86.94 111.5 86.9402 111.5C86.9405 111.5 86.9408 111.5 86.941 111.5C86.9413 111.5 86.9415 111.5 86.9418 111.5C86.9421 111.5 86.9423 111.5 86.9426 111.5C86.9428 111.5 86.9431 111.5 86.9434 111.5C86.9436 111.5 86.9439 111.5 86.9441 111.5C86.9444 111.5 86.9447 111.5 86.9449 111.5C86.9452 111.5 86.9454 111.5 86.9457 111.5C86.946 111.5 86.9462 111.5 86.9465 111.5C86.9467 111.5 86.947 111.5 86.9473 111.5C86.9475 111.5 86.9478 111.5 86.948 111.5C86.9483 111.5 86.9486 111.5 86.9488 111.5C86.9491 111.5 86.9494 111.5 86.9496 111.5C86.9499 111.5 86.9501 111.5 86.9504 111.5C86.9507 111.5 86.9509 111.5 86.9512 111.5C86.9514 111.5 86.9517 111.5 86.952 111.5C86.9522 111.5 86.9525 111.5 86.9527 111.5C86.953 111.5 86.9533 111.5 86.9535 111.5C86.9538 111.5 86.954 111.5 86.9543 111.5C86.9546 111.5 86.9548 111.5 86.9551 111.5C86.9553 111.5 86.9556 111.5 86.9559 111.5C86.9561 111.5 86.9564 111.5 86.9566 111.5C86.9569 111.5 86.9572 111.5 86.9574 111.5C86.9577 111.5 86.9579 111.5 86.9582 111.5C86.9585 111.5 86.9587 111.5 86.959 111.5C86.9592 111.5 86.9595 111.5 86.9598 111.5C86.96 111.5 86.9603 111.5 86.9605 111.5C86.9608 111.5 86.9611 111.5 86.9613 111.5C86.9616 111.5 86.9619 111.5 86.9621 111.5C86.9624 111.5 86.9626 111.5 86.9629 111.5C86.9632 111.5 86.9634 111.5 86.9637 111.5C86.9639 111.5 86.9642 111.5 86.9645 111.5C86.9647 111.5 86.965 111.5 86.9652 111.5C86.9655 111.5 86.9658 111.5 86.966 111.5C86.9663 111.5 86.9665 111.5 86.9668 111.5C86.9671 111.5 86.9673 111.5 86.9676 111.5C86.9678 111.5 86.9681 111.5 86.9684 111.5C86.9686 111.5 86.9689 111.5 86.9691 111.5C86.9694 111.5 86.9697 111.5 86.9699 111.5C86.9702 111.5 86.9704 111.5 86.9707 111.5C86.971 111.5 86.9712 111.5 86.9715 111.5C86.9717 111.5 86.972 111.5 86.9723 111.5C86.9725 111.5 86.9728 111.5 86.973 111.5C86.9733 111.5 86.9736 111.5 86.9738 111.5C86.9741 111.5 86.9744 111.5 86.9746 111.5C86.9749 111.5 86.9751 111.5 86.9754 111.5C86.9757 111.5 86.9759 111.5 86.9762 111.5C86.9764 111.5 86.9767 111.5 86.977 111.5C86.9772 111.5 86.9775 111.5 86.9777 111.5C86.978 111.5 86.9783 111.5 86.9785 111.5C86.9788 111.5 86.979 111.5 86.9793 111.5C86.9796 111.5 86.9798 111.5 86.9801 111.5C86.9803 111.5 86.9806 111.5 86.9809 111.5C86.9811 111.5 86.9814 111.5 86.9816 111.5C86.9819 111.5 86.9822 111.5 86.9824 111.5C86.9827 111.5 86.9829 111.5 86.9832 111.5C86.9835 111.5 86.9837 111.5 86.984 111.5C86.9842 111.5 86.9845 111.5 86.9848 111.5C86.985 111.5 86.9853 111.5 86.9855 111.5C86.9858 111.5 86.9861 111.5 86.9863 111.5C86.9866 111.5 86.9869 111.5 86.9871 111.5C86.9874 111.5 86.9876 111.5 86.9879 111.5C86.9882 111.5 86.9884 111.5 86.9887 111.5C86.9889 111.5 86.9892 111.5 86.9895 111.5C86.9897 111.5 86.99 111.5 86.9902 111.5C86.9905 111.5 86.9908 111.5 86.991 111.5C86.9913 111.5 86.9915 111.5 86.9918 111.5C86.9921 111.5 86.9923 111.5 86.9926 111.5C86.9928 111.5 86.9931 111.5 86.9934 111.5C86.9936 111.5 86.9939 111.5 86.9941 111.5C86.9944 111.5 86.9947 111.5 86.9949 111.5C86.9952 111.5 86.9954 111.5 86.9957 111.5C86.996 111.5 86.9962 111.5 86.9965 111.5C86.9967 111.5 86.997 111.5 86.9973 111.5C86.9975 111.5 86.9978 111.5 86.998 111.5C86.9983 111.5 86.9986 111.5 86.9988 111.5C86.9991 111.5 86.9994 111.5 86.9996 111.5C86.9999 111.5 87.0001 111.5 87.0004 111.5C87.0007 111.5 87.0009 111.5 87.0012 111.5C87.0014 111.5 87.0017 111.5 87.002 111.5C87.0022 111.5 87.0025 111.5 87.0027 111.5C87.003 111.5 87.0033 111.5 87.0035 111.5C87.0038 111.5 87.004 111.5 87.0043 111.5C87.0046 111.5 87.0048 111.5 87.0051 111.5C87.0053 111.5 87.0056 111.5 87.0059 111.5C87.0061 111.5 87.0064 111.5 87.0066 111.5C87.0069 111.5 87.0072 111.5 87.0074 111.5C87.0077 111.5 87.0079 111.5 87.0082 111.5C87.0085 111.5 87.0087 111.5 87.009 111.5C87.0092 111.5 87.0095 111.5 87.0098 111.5C87.01 111.5 87.0103 111.5 87.0105 111.5C87.0108 111.5 87.0111 111.5 87.0113 111.5C87.0116 111.5 87.0119 111.5 87.0121 111.5C87.0124 111.5 87.0126 111.5 87.0129 111.5C87.0132 111.5 87.0134 111.5 87.0137 111.5C87.0139 111.5 87.0142 111.5 87.0145 111.5C87.0147 111.5 87.015 111.5 87.0152 111.5C87.0155 111.5 87.0158 111.5 87.016 111.5C87.0163 111.5 87.0165 111.5 87.0168 111.5C87.0171 111.5 87.0173 111.5 87.0176 111.5C87.0178 111.5 87.0181 111.5 87.0184 111.5C87.0186 111.5 87.0189 111.5 87.0191 111.5C87.0194 111.5 87.0197 111.5 87.0199 111.5C87.0202 111.5 87.0204 111.5 87.0207 111.5V101.5ZM88.8568 102.028C88.112 101.655 87.2179 101.4 86.2207 101.4V111.4C85.4902 111.4 84.8627 111.211 84.3846 110.972L88.8568 102.028ZM86.5647 101.412C84.0444 101.238 81.5054 101.505 78.9713 102.159L81.4701 111.841C83.0693 111.429 84.5303 111.295 85.8767 111.388L86.5647 101.412ZM79.0846 102.131C76.7236 102.682 74.3966 103.5 72.1063 104.569L76.3351 113.631C78.0448 112.833 79.7178 112.252 81.3569 111.869L79.0846 102.131ZM72.1063 104.569C69.8181 105.637 67.6206 106.927 65.5145 108.431L71.3269 116.569C72.9541 115.406 74.6233 114.43 76.3351 113.631L72.1063 104.569ZM65.4446 108.482C63.4855 109.933 61.6574 111.468 59.9646 113.087L66.8768 120.313C68.2507 118.999 69.7559 117.733 71.3968 116.518L65.4446 108.482ZM67.0414 113.252L65.0414 111.152L57.8 118.048L59.8 120.148L67.0414 113.252ZM65.3979 117.63L73.3979 107.13L65.4435 101.07L57.4435 111.57L65.3979 117.63ZM71.3245 108.723C74.3255 107.488 76.8111 106.947 78.8397 106.899L78.6017 96.9014C75.0303 96.9864 71.316 97.9123 67.517 99.4766L71.3245 108.723ZM78.953 106.895C81.347 106.783 84.0736 107.002 87.1586 107.607L89.0828 97.7934C85.3678 97.065 81.8277 96.7501 78.4884 96.9054L78.953 106.895ZM87.1401 107.603C88.5047 107.876 89.9336 108.148 91.4263 108.419L93.2151 98.5806C91.7745 98.3187 90.4034 98.0575 89.1013 97.7971L87.1401 107.603ZM91.6451 108.454C93.2879 108.678 95.0146 108.824 96.8209 108.896L97.2205 98.904C95.6934 98.8429 94.2868 98.7218 92.9963 98.5458L91.6451 108.454ZM96.8285 108.896C98.7612 108.971 100.805 108.932 102.953 108.789L102.288 98.8111C100.437 98.9345 98.7469 98.9627 97.2129 98.9037L96.8285 108.896ZM103.118 108.775C105.353 108.552 107.753 108.148 110.305 107.581L108.136 97.8191C105.889 98.3185 103.888 98.6483 102.123 98.8248L103.118 108.775ZM104.645 100.684L100.945 109.084L110.096 113.116L113.796 104.716L104.645 100.684ZM117.729 149.4L116.273 144.617L116.243 144.626L116.212 144.635L117.729 149.4ZM122.029 147.6L124.438 151.981L124.474 151.961L124.509 151.941L122.029 147.6ZM125.829 144.9L129.137 148.649L129.197 148.596L129.255 148.541L125.829 144.9ZM128.629 141.6L132.902 139.005L128.763 132.188L124.431 138.884L128.629 141.6ZM130.329 144.4L134.851 146.533L135.997 144.102L134.602 141.805L130.329 144.4ZM121.729 152.7L119.522 148.213L119.522 148.213L121.729 152.7ZM100.329 154.2L97.9131 158.578L98.0018 158.627L98.0924 158.672L100.329 154.2ZM95.8285 149.9L100.13 147.351L100.13 147.351L95.8285 149.9ZM94.1285 143.6L89.1303 143.735L89.1304 143.739L94.1285 143.6ZM95.6285 135.8L90.973 133.976L90.9706 133.982L95.6285 135.8ZM105.729 121.1L108.837 125.016L108.845 125.01L105.729 121.1ZM126.029 118.2L122.412 121.652L122.452 121.694L122.493 121.736L126.029 118.2ZM128.329 123.4L123.339 123.722L123.345 123.81L123.353 123.898L128.329 123.4ZM127.029 129.9L122.481 127.821L122.467 127.851L122.454 127.882L127.029 129.9ZM122.329 136L125.504 139.862L125.529 139.842L125.553 139.821L122.329 136ZM105.529 139.7V134.7H101.768L100.725 138.312L105.529 139.7ZM106.429 147.2L102.396 150.157L102.452 150.233L102.511 150.307L106.429 147.2ZM117.329 120.5L115.472 115.858L115.472 115.858L117.329 120.5ZM114.929 122.3L111.393 118.764L111.328 118.83L111.265 118.898L114.929 122.3ZM109.329 130.5L104.998 128.001L104.961 128.065L104.926 128.13L109.329 130.5ZM106.829 135.9L102.175 134.072L99.4922 140.9H106.829V135.9ZM114.229 134.5L110.936 130.737L110.936 130.737L114.229 134.5ZM117.229 130.2L112.839 127.806L112.78 127.915L112.726 128.026L117.229 130.2ZM119.129 126L114.409 124.348L114.409 124.348L119.129 126ZM119.929 122.6L114.941 122.244L114.941 122.244L119.929 122.6ZM119.429 120.6L115.632 123.854L115.757 124L115.893 124.136L119.429 120.6ZM113.429 155.1C115.391 155.1 117.336 154.772 119.245 154.165L116.212 144.635C115.188 144.961 114.266 145.1 113.429 145.1V155.1ZM119.184 154.183C121.031 153.621 122.786 152.89 124.438 151.981L119.619 143.219C118.604 143.777 117.493 144.245 116.273 144.617L119.184 154.183ZM124.509 151.941C126.185 150.984 127.732 149.889 129.137 148.649L122.52 141.151C121.658 141.911 120.672 142.616 119.548 143.259L124.509 151.941ZM129.255 148.541C130.638 147.239 131.844 145.835 132.826 144.316L124.431 138.884C123.946 139.632 123.285 140.427 122.402 141.259L129.255 148.541ZM124.355 144.195L126.055 146.995L134.602 141.805L132.902 139.005L124.355 144.195ZM125.806 142.267C124.698 144.617 122.743 146.629 119.522 148.213L123.935 157.187C128.848 154.771 132.626 151.25 134.851 146.533L125.806 142.267ZM119.522 148.213C116.261 149.817 112.309 150.7 107.529 150.7V160.7C113.548 160.7 119.062 159.583 123.935 157.187L119.522 148.213ZM107.529 150.7C105.314 150.7 103.717 150.304 102.565 149.728L98.0924 158.672C100.94 160.096 104.143 160.7 107.529 160.7V150.7ZM102.744 149.822C101.546 149.161 100.717 148.341 100.13 147.351L91.5271 152.449C93.0736 155.059 95.2443 157.105 97.9131 158.578L102.744 149.822ZM100.13 147.351C99.5569 146.384 99.1732 145.138 99.1266 143.461L89.1304 143.739C89.2172 146.862 89.9668 149.816 91.5271 152.449L100.13 147.351ZM99.1267 143.465C99.0811 141.779 99.4173 139.845 100.286 137.618L90.9706 133.982C89.7064 137.222 89.0426 140.488 89.1303 143.735L99.1267 143.465ZM100.284 137.624C102.588 131.742 105.504 127.662 108.837 125.016L102.62 117.184C97.5535 121.205 93.7354 126.925 90.973 133.976L100.284 137.624ZM108.845 125.01C112.286 122.268 115.901 121 119.829 121V111C113.489 111 107.705 113.132 102.612 117.19L108.845 125.01ZM119.829 121C121.688 121 122.249 121.482 122.412 121.652L129.645 114.748C127.008 111.985 123.435 111 119.829 111V121ZM122.493 121.736C122.992 122.234 123.28 122.807 123.339 123.722L133.318 123.078C133.111 119.86 131.865 116.966 129.564 114.664L122.493 121.736ZM123.353 123.898C123.444 124.804 123.279 126.075 122.481 127.821L131.576 131.979C132.911 129.059 133.613 125.996 133.304 122.902L123.353 123.898ZM122.454 127.882C121.798 129.369 120.73 130.807 119.104 132.179L125.553 139.821C128.193 137.593 130.259 134.964 131.603 131.918L122.454 127.882ZM119.153 132.138C117.06 133.859 114.72 134.7 111.929 134.7V144.7C117.004 144.7 121.597 143.075 125.504 139.862L119.153 132.138ZM111.929 134.7H105.529V144.7H111.929V134.7ZM100.725 138.312C99.5507 142.377 99.7798 146.589 102.396 150.157L110.461 144.243C110.144 143.811 109.773 143.023 110.332 141.088L100.725 138.312ZM102.511 150.307C105.241 153.749 109.219 155.1 113.429 155.1V145.1C111.372 145.1 110.683 144.518 110.346 144.093L102.511 150.307ZM115.472 115.858C113.85 116.506 112.471 117.686 111.393 118.764L118.464 125.836C118.813 125.487 119.067 125.271 119.229 125.15C119.404 125.019 119.384 125.063 119.185 125.142L115.472 115.858ZM111.265 118.898C110.169 120.078 109.106 121.47 108.068 123.026L116.389 128.573C117.218 127.33 117.955 126.389 118.592 125.702L111.265 118.898ZM108.068 123.026C107.065 124.531 106.042 126.191 104.998 128.001L113.659 132.999C114.615 131.342 115.525 129.869 116.389 128.573L108.068 123.026ZM104.926 128.13C103.897 130.042 102.98 132.023 102.175 134.072L111.482 137.728C112.144 136.044 112.894 134.425 113.731 132.87L104.926 128.13ZM106.829 140.9H110.329V130.9H106.829V140.9ZM110.329 140.9C112.966 140.9 115.465 140.062 117.521 138.263L110.936 130.737C110.858 130.805 110.758 130.9 110.329 130.9V140.9ZM117.521 138.263C119.286 136.719 120.641 134.631 121.731 132.374L112.726 128.026C111.949 129.635 111.305 130.414 110.936 130.737L117.521 138.263ZM121.618 132.594C122.525 130.931 123.277 129.282 123.848 127.652L114.409 124.348C114.047 125.384 113.532 126.535 112.839 127.806L121.618 132.594ZM123.848 127.652C124.394 126.09 124.806 124.495 124.916 122.956L114.941 122.244C114.918 122.572 114.796 123.244 114.409 124.348L123.848 127.652ZM124.916 122.956C125.02 121.494 124.898 118.998 122.964 117.064L115.893 124.136C115.327 123.57 115.092 122.97 115.003 122.613C114.921 122.286 114.95 122.127 114.941 122.244L124.916 122.956ZM123.225 117.346C120.546 114.221 116.799 115.327 115.472 115.858L119.185 125.142C119.342 125.08 119.011 125.25 118.366 125.219C118.008 125.202 117.527 125.121 117.003 124.883C116.466 124.639 115.998 124.281 115.632 123.854L123.225 117.346ZM147.104 123.8L144.419 119.582L148.054 128.709L147.104 123.8ZM152.904 124L151.483 128.794L151.565 128.818L151.649 128.84L152.904 124ZM157.304 126.6L153.577 129.934L153.622 129.984L153.668 130.033L157.304 126.6ZM159.504 131.4L154.572 132.222L154.588 132.318L154.607 132.413L159.504 131.4ZM159.004 138.1L163.793 139.537L163.8 139.514L163.806 139.49L159.004 138.1ZM155.104 146.5L159.147 149.441L159.168 149.412L159.188 149.383L155.104 146.5ZM149.604 151.9L152.314 156.101L152.361 156.071L152.408 156.04L149.604 151.9ZM142.904 154.8L144.116 159.651L144.116 159.651L142.904 154.8ZM130.304 154.3L127.103 158.141L127.217 158.237L127.338 158.325L130.304 154.3ZM127.804 150.6L123.02 152.056L123.029 152.086L123.039 152.116L127.804 150.6ZM127.504 145.5L132.453 146.207L132.455 146.195L132.457 146.183L127.504 145.5ZM129.404 139.9L133.774 142.328L133.808 142.268L133.84 142.207L129.404 139.9ZM132.104 135.8L135.866 139.093L135.916 139.036L135.963 138.979L132.104 135.8ZM134.804 133.2L137.65 137.311L137.753 137.24L137.852 137.163L134.804 133.2ZM137.204 131.9L138.519 136.724L138.718 136.67L138.912 136.599L137.204 131.9ZM142.704 133.8L138.047 135.622L138.061 135.658L138.076 135.693L142.704 133.8ZM142.404 139.2L147.037 141.079L147.062 141.017L147.085 140.956L142.404 139.2ZM138.404 144.9L135.28 140.996L135.241 141.027L135.203 141.059L138.404 144.9ZM131.704 146.7L132.916 141.849L127.304 140.446L126.728 146.202L131.704 146.7ZM132.304 150L128.045 152.62L128.116 152.735L128.193 152.846L132.304 150ZM138.904 150.3L136.575 145.875L136.525 145.902L136.475 145.929L138.904 150.3ZM142.404 147.5L138.666 144.178L142.404 147.5ZM145.404 143.3L141.085 140.781L141.085 140.781L145.404 143.3ZM147.804 138.1L143.122 136.344L143.108 136.381L143.095 136.418L147.804 138.1ZM148.704 128.1L144.43 130.695L144.463 130.75L144.498 130.804L148.704 128.1ZM141.304 127L142.677 131.808L142.705 131.8L142.733 131.791L141.304 127ZM138.904 126.9L136.331 131.187L136.496 131.286L136.667 131.372L138.904 126.9ZM137.404 125.2L141.955 123.131L141.955 123.131L137.404 125.2ZM136.804 122.6H131.804V122.766L131.815 122.933L136.804 122.6ZM137.404 119.5L132.753 117.664L132.737 117.704L132.722 117.744L137.404 119.5ZM141.304 113.7L138.18 109.796L138.141 109.827L138.103 109.859L141.304 113.7ZM150.504 114L145.781 115.643L145.825 115.769L145.876 115.893L150.504 114ZM150.204 119.5L154.773 121.531L154.843 121.372L154.902 121.209L150.204 119.5ZM149.004 121.8L153.262 124.42L153.304 124.351L153.345 124.281L149.004 121.8ZM148.054 128.709C149.429 128.443 150.542 128.515 151.483 128.794L154.324 119.206C151.665 118.418 148.911 118.357 146.153 118.891L148.054 128.709ZM151.649 128.84C152.588 129.084 153.163 129.471 153.577 129.934L161.03 123.266C159.177 121.196 156.819 119.85 154.158 119.16L151.649 128.84ZM153.668 130.033C153.978 130.361 154.364 130.976 154.572 132.222L164.435 130.578C163.976 127.824 162.896 125.239 160.939 123.167L153.668 130.033ZM154.607 132.413C154.796 133.327 154.781 134.706 154.201 136.71L163.806 139.49C164.693 136.427 165.011 133.339 164.4 130.387L154.607 132.413ZM154.214 136.663C153.332 139.605 152.24 141.887 151.019 143.617L159.188 149.383C161.167 146.58 162.675 143.261 163.793 139.537L154.214 136.663ZM151.06 143.559C149.77 145.333 148.345 146.713 146.799 147.76L152.408 156.04C154.995 154.287 157.237 152.067 159.147 149.441L151.06 143.559ZM146.893 147.699C145.289 148.733 143.562 149.481 141.691 149.949L144.116 159.651C147.045 158.919 149.784 157.734 152.314 156.101L146.893 147.699ZM141.691 149.949C139.707 150.445 137.616 150.7 135.404 150.7V160.7C138.392 160.7 141.3 160.355 144.116 159.651L141.691 149.949ZM135.404 150.7C133.963 150.7 133.418 150.384 133.27 150.275L127.338 158.325C129.722 160.083 132.577 160.7 135.404 160.7V150.7ZM133.504 150.459C133.025 150.059 132.741 149.628 132.568 149.084L123.039 152.116C123.799 154.505 125.182 156.541 127.103 158.141L133.504 150.459ZM132.587 149.144C132.368 148.424 132.272 147.476 132.453 146.207L122.554 144.793C122.202 147.257 122.306 149.709 123.02 152.056L132.587 149.144ZM132.457 146.183C132.634 144.896 133.058 143.618 133.774 142.328L125.033 137.472C123.749 139.782 122.906 142.238 122.55 144.817L132.457 146.183ZM133.84 142.207C134.578 140.787 135.265 139.78 135.866 139.093L128.341 132.507C127.075 133.954 125.963 135.679 124.967 137.593L133.84 142.207ZM135.963 138.979C136.709 138.073 137.278 137.568 137.65 137.311L131.957 129.089C130.596 130.032 129.365 131.26 128.244 132.621L135.963 138.979ZM137.852 137.163C138.115 136.961 138.31 136.839 138.435 136.771C138.561 136.703 138.587 136.705 138.519 136.724L135.888 127.076C134.315 127.505 132.93 128.333 131.755 129.237L137.852 137.163ZM138.912 136.599C139.016 136.561 139.1 136.534 139.165 136.514C139.231 136.495 139.271 136.485 139.288 136.481C139.306 136.477 139.292 136.481 139.249 136.486C139.206 136.492 139.122 136.5 139.004 136.5V126.5C137.692 126.5 136.459 126.85 135.495 127.201L138.912 136.599ZM139.004 136.5C139.266 136.5 139.061 136.553 138.689 136.321C138.506 136.208 138.347 136.063 138.225 135.91C138.107 135.762 138.058 135.65 138.047 135.622L147.36 131.978C146.722 130.347 145.621 128.856 143.968 127.829C142.362 126.83 140.607 126.5 139.004 126.5V136.5ZM138.076 135.693C138.025 135.57 138.272 135.978 137.722 137.444L147.085 140.956C148.135 138.156 148.582 134.963 147.331 131.907L138.076 135.693ZM137.77 137.321C137.013 139.188 136.132 140.314 135.28 140.996L141.527 148.804C144.008 146.819 145.794 144.145 147.037 141.079L137.77 137.321ZM135.203 141.059C134.461 141.677 133.782 141.9 133.004 141.9V151.9C136.225 151.9 139.146 150.79 141.604 148.741L135.203 141.059ZM133.004 141.9C133.085 141.9 133.141 141.904 133.168 141.906C133.195 141.909 133.203 141.91 133.189 141.908C133.175 141.906 133.145 141.901 133.098 141.891C133.051 141.881 132.991 141.868 132.916 141.849L130.491 151.551C131.2 151.728 132.084 151.9 133.004 151.9V141.9ZM126.728 146.202C126.521 148.281 126.779 150.564 128.045 152.62L136.562 147.38C136.604 147.448 136.633 147.51 136.651 147.559C136.669 147.608 136.673 147.634 136.673 147.631C136.671 147.62 136.65 147.489 136.679 147.198L126.728 146.202ZM128.193 152.846C129.973 155.418 132.717 156.3 135.204 156.3V146.3C135.065 146.3 135.22 146.276 135.524 146.412C135.868 146.567 136.193 146.833 136.414 147.154L128.193 152.846ZM135.204 156.3C137.39 156.3 139.453 155.715 141.332 154.671L136.475 145.929C135.954 146.219 135.55 146.3 135.204 146.3V156.3ZM141.232 154.725C143.092 153.746 144.723 152.417 146.141 150.822L138.666 144.178C137.951 144.983 137.249 145.521 136.575 145.875L141.232 154.725ZM146.141 150.822C147.458 149.34 148.647 147.663 149.722 145.819L141.085 140.781C140.293 142.137 139.483 143.26 138.666 144.178L146.141 150.822ZM149.722 145.819C150.822 143.935 151.749 141.919 152.512 139.782L143.095 136.418C142.525 138.014 141.852 139.465 141.085 140.781L149.722 145.819ZM152.485 139.856C153.469 137.233 154.153 134.732 154.358 132.448C154.56 130.21 154.348 127.634 152.909 125.396L144.498 130.804C144.259 130.432 144.497 130.457 144.399 131.552C144.304 132.601 143.938 134.167 143.122 136.344L152.485 139.856ZM152.977 125.505C151.524 123.112 149.208 121.846 146.739 121.479C144.479 121.143 142.107 121.543 139.874 122.209L142.733 131.791C143.479 131.569 144.066 131.449 144.511 131.394C144.96 131.339 145.196 131.36 145.268 131.371C145.329 131.38 145.19 131.368 144.968 131.23C144.728 131.081 144.541 130.879 144.43 130.695L152.977 125.505ZM139.93 122.192C139.872 122.209 139.978 122.17 140.212 122.179C140.464 122.19 140.796 122.256 141.14 122.428L136.667 131.372C138.758 132.417 140.915 132.311 142.677 131.808L139.93 122.192ZM141.476 122.613C141.57 122.669 141.678 122.754 141.778 122.867C141.876 122.978 141.931 123.077 141.955 123.131L132.852 127.269C133.588 128.89 134.762 130.246 136.331 131.187L141.476 122.613ZM141.955 123.131C141.924 123.061 141.828 122.808 141.792 122.267L131.815 122.933C131.912 124.392 132.217 125.872 132.852 127.269L141.955 123.131ZM141.804 122.6C141.804 122.277 141.867 121.838 142.085 121.256L132.722 117.744C132.14 119.295 131.804 120.923 131.804 122.6H141.804ZM142.054 121.336C142.838 119.35 143.716 118.198 144.504 117.541L138.103 109.859C135.691 111.869 133.969 114.584 132.753 117.664L142.054 121.336ZM144.427 117.604C145.271 116.929 146.018 116.7 146.804 116.7V106.7C143.589 106.7 140.669 107.804 138.18 109.796L144.427 117.604ZM146.804 116.7C147.138 116.7 146.936 116.768 146.539 116.521C146.338 116.396 146.153 116.229 146.007 116.04C145.866 115.855 145.803 115.705 145.781 115.643L155.226 112.357C154.63 110.645 153.522 109.087 151.818 108.029C150.187 107.015 148.402 106.7 146.804 106.7V116.7ZM145.876 115.893C145.824 115.766 146.079 116.213 145.505 117.791L154.902 121.209C155.928 118.387 156.383 115.167 155.131 112.107L145.876 115.893ZM145.634 117.469C145.465 117.85 145.157 118.453 144.662 119.319L153.345 124.281C153.916 123.281 154.408 122.35 154.773 121.531L145.634 117.469ZM144.745 119.18C144.641 119.348 144.557 119.45 144.504 119.506C144.451 119.561 144.423 119.58 144.419 119.582L149.788 128.018C151.26 127.081 152.399 125.822 153.262 124.42L144.745 119.18ZM184.893 114V109H181.542L180.268 112.099L184.893 114ZM172.393 144.4L177.001 146.34L177.009 146.321L177.017 146.301L172.393 144.4ZM175.293 147.6L174.471 142.668L174.447 142.672L174.424 142.676L175.293 147.6ZM179.093 145.8L182.093 149.8L182.093 149.8L179.093 145.8ZM182.393 141.6L186.667 139.005L181.885 131.129L177.888 139.431L182.393 141.6ZM184.093 144.4L188.708 146.323L189.685 143.977L188.367 141.805L184.093 144.4ZM181.293 148.9L177.496 145.646L177.49 145.654L177.483 145.662L181.293 148.9ZM177.393 152.4L174.576 148.269L174.531 148.3L174.486 148.331L177.393 152.4ZM172.793 154.8L171.099 150.096L171.068 150.107L171.037 150.118L172.793 154.8ZM163.793 154.9L161.664 159.424L161.712 159.447L161.762 159.469L163.793 154.9ZM161.193 152.5L165.55 150.049L165.55 150.049L161.193 152.5ZM160.393 148.5L155.397 148.292L160.393 148.5ZM161.793 143L166.404 144.934L166.408 144.923L166.413 144.912L161.793 143ZM173.793 114L178.413 115.912L181.273 109H173.793V114ZM168.093 114L163.71 111.594L159.643 119H168.093V114ZM170.893 108.9V103.9H167.934L166.51 106.494L170.893 108.9ZM175.893 108.9V113.9H179.278L180.535 110.757L175.893 108.9ZM177.093 105.9L176.151 100.989L173.466 101.504L172.45 104.043L177.093 105.9ZM189.093 103.6L193.711 105.517L197.27 96.9416L188.151 98.6894L189.093 103.6ZM186.893 108.9L182.275 106.983L179.403 113.9H186.893V108.9ZM195.893 108.9L200.275 111.306L204.342 103.9H195.893V108.9ZM193.093 114V119H196.051L197.475 116.406L193.093 114ZM180.268 112.099L167.768 142.499L177.017 146.301L189.517 115.901L180.268 112.099ZM167.784 142.46C167.357 143.475 166.942 144.85 167.056 146.394C167.186 148.141 167.983 149.815 169.469 151.004L175.716 143.196C176.068 143.477 176.406 143.865 176.656 144.354C176.903 144.837 177.002 145.296 177.029 145.656C177.077 146.3 176.895 146.592 177.001 146.34L167.784 142.46ZM169.469 151.004C171.612 152.719 174.13 152.882 176.162 152.524L174.424 142.676C174.3 142.698 174.411 142.659 174.678 142.709C174.978 142.764 175.36 142.911 175.716 143.196L169.469 151.004ZM176.115 152.532C178.342 152.161 180.344 151.112 182.093 149.8L176.093 141.8C175.175 142.488 174.643 142.639 174.471 142.668L176.115 152.532ZM182.093 149.8C184.183 148.232 185.752 146.149 186.898 143.769L177.888 139.431C177.3 140.651 176.669 141.368 176.093 141.8L182.093 149.8ZM178.119 144.195L179.819 146.995L188.367 141.805L186.667 139.005L178.119 144.195ZM179.477 142.477C179.025 143.563 178.377 144.619 177.496 145.646L185.089 152.154C186.608 150.381 187.827 148.437 188.708 146.323L179.477 142.477ZM177.483 145.662C176.643 146.649 175.678 147.517 174.576 148.269L180.209 156.531C182.04 155.283 183.675 153.817 185.102 152.138L177.483 145.662ZM174.486 148.331C173.47 149.057 172.347 149.646 171.099 150.096L174.486 159.504C176.571 158.754 178.515 157.743 180.299 156.469L174.486 148.331ZM171.037 150.118C169.96 150.522 168.953 150.7 167.993 150.7V160.7C170.232 160.7 172.425 160.278 174.548 159.482L171.037 150.118ZM167.993 150.7C166.943 150.7 166.26 150.525 165.823 150.331L161.762 159.469C163.725 160.341 165.842 160.7 167.993 160.7V150.7ZM165.922 150.376C165.705 150.274 165.628 150.187 165.55 150.049L156.835 154.951C157.957 156.946 159.614 158.459 161.664 159.424L165.922 150.376ZM165.55 150.049C165.526 150.006 165.349 149.66 165.388 148.708L155.397 148.292C155.303 150.54 155.659 152.861 156.835 154.951L165.55 150.049ZM165.388 148.708C165.422 147.887 165.682 146.655 166.404 144.934L157.182 141.066C156.17 143.479 155.496 145.913 155.397 148.292L165.388 148.708ZM166.413 144.912L178.413 115.912L169.172 112.088L157.172 141.088L166.413 144.912ZM173.793 109H168.093V119H173.793V109ZM172.475 116.406L175.275 111.306L166.51 106.494L163.71 111.594L172.475 116.406ZM170.893 113.9H175.893V103.9H170.893V113.9ZM180.535 110.757L181.735 107.757L172.45 104.043L171.25 107.043L180.535 110.757ZM178.034 110.811L190.034 108.511L188.151 98.6894L176.151 100.989L178.034 110.811ZM184.475 101.683L182.275 106.983L191.511 110.817L193.711 105.517L184.475 101.683ZM186.893 113.9H195.893V103.9H186.893V113.9ZM191.51 106.494L188.71 111.594L197.475 116.406L200.275 111.306L191.51 106.494ZM193.093 109H184.893V119H193.093V109ZM205.912 149.4L204.456 144.617L204.426 144.626L204.396 144.635L205.912 149.4ZM210.212 147.6L212.622 151.981L212.657 151.961L212.693 151.941L210.212 147.6ZM214.012 144.9L217.32 148.649L217.38 148.596L217.439 148.541L214.012 144.9ZM216.812 141.6L221.086 139.005L216.947 132.188L212.614 138.884L216.812 141.6ZM218.512 144.4L223.034 146.533L224.181 144.102L222.786 141.805L218.512 144.4ZM209.912 152.7L207.706 148.213L207.706 148.213L209.912 152.7ZM188.512 154.2L186.097 158.578L186.185 158.627L186.276 158.672L188.512 154.2ZM184.012 149.9L188.314 147.351L188.314 147.351L184.012 149.9ZM182.312 143.6L177.314 143.735L177.314 143.739L182.312 143.6ZM183.812 135.8L179.157 133.976L179.154 133.982L183.812 135.8ZM193.912 121.1L197.02 125.016L197.028 125.01L193.912 121.1ZM214.212 118.2L210.595 121.652L210.635 121.694L210.677 121.736L214.212 118.2ZM216.512 123.4L211.522 123.722L211.528 123.81L211.537 123.898L216.512 123.4ZM215.212 129.9L210.665 127.821L210.651 127.851L210.638 127.882L215.212 129.9ZM210.512 136L213.688 139.862L213.712 139.842L213.736 139.821L210.512 136ZM193.712 139.7V134.7H189.952L188.909 138.312L193.712 139.7ZM194.612 147.2L190.58 150.157L190.636 150.233L190.695 150.307L194.612 147.2ZM205.512 120.5L203.655 115.858L203.655 115.858L205.512 120.5ZM203.112 122.3L199.577 118.764L199.511 118.83L199.448 118.898L203.112 122.3ZM197.512 130.5L193.181 128.001L193.145 128.065L193.11 128.13L197.512 130.5ZM195.012 135.9L190.358 134.072L187.676 140.9H195.012V135.9ZM202.412 134.5L199.12 130.737L199.12 130.737L202.412 134.5ZM205.412 130.2L201.023 127.806L200.963 127.915L200.909 128.026L205.412 130.2ZM207.312 126L202.593 124.348L202.593 124.348L207.312 126ZM208.112 122.6L203.125 122.244L203.125 122.244L208.112 122.6ZM207.612 120.6L203.816 123.854L203.941 124L204.077 124.136L207.612 120.6ZM201.612 155.1C203.575 155.1 205.52 154.772 207.428 154.165L204.396 144.635C203.371 144.961 202.449 145.1 201.612 145.1V155.1ZM207.368 154.183C209.215 153.621 210.97 152.89 212.622 151.981L207.803 143.219C206.788 143.777 205.676 144.245 204.456 144.617L207.368 154.183ZM212.693 151.941C214.368 150.984 215.916 149.889 217.32 148.649L210.704 141.151C209.842 141.911 208.856 142.616 207.731 143.259L212.693 151.941ZM217.439 148.541C218.822 147.239 220.027 145.835 221.01 144.316L212.614 138.884C212.13 139.632 211.469 140.427 210.585 141.259L217.439 148.541ZM212.538 144.195L214.238 146.995L222.786 141.805L221.086 139.005L212.538 144.195ZM213.99 142.267C212.882 144.617 210.926 146.629 207.706 148.213L212.119 157.187C217.031 154.771 220.809 151.25 223.034 146.533L213.99 142.267ZM207.706 148.213C204.445 149.817 200.492 150.7 195.712 150.7V160.7C201.732 160.7 207.246 159.583 212.119 157.187L207.706 148.213ZM195.712 150.7C193.497 150.7 191.901 150.304 190.748 149.728L186.276 158.672C189.123 160.096 192.327 160.7 195.712 160.7V150.7ZM190.927 149.822C189.73 149.161 188.9 148.341 188.314 147.351L179.711 152.449C181.257 155.059 183.428 157.105 186.097 158.578L190.927 149.822ZM188.314 147.351C187.741 146.384 187.357 145.138 187.31 143.461L177.314 143.739C177.401 146.862 178.15 149.816 179.711 152.449L188.314 147.351ZM187.31 143.465C187.265 141.779 187.601 139.845 188.47 137.618L179.154 133.982C177.89 137.222 177.226 140.488 177.314 143.735L187.31 143.465ZM188.468 137.624C190.772 131.742 193.687 127.662 197.02 125.016L190.804 117.184C185.737 121.205 181.919 126.925 179.157 133.976L188.468 137.624ZM197.028 125.01C200.469 122.268 204.085 121 208.012 121V111C201.673 111 195.888 113.132 190.796 117.19L197.028 125.01ZM208.012 121C209.872 121 210.432 121.482 210.595 121.652L217.829 114.748C215.192 111.985 211.619 111 208.012 111V121ZM210.677 121.736C211.175 122.234 211.463 122.807 211.522 123.722L221.502 123.078C221.294 119.86 220.049 116.966 217.748 114.664L210.677 121.736ZM211.537 123.898C211.628 124.804 211.463 126.075 210.665 127.821L219.759 131.979C221.094 129.059 221.797 125.996 221.487 122.902L211.537 123.898ZM210.638 127.882C209.981 129.369 208.914 130.807 207.288 132.179L213.736 139.821C216.377 137.593 218.443 134.964 219.787 131.918L210.638 127.882ZM207.337 132.138C205.244 133.859 202.903 134.7 200.112 134.7V144.7C205.188 144.7 209.781 143.075 213.688 139.862L207.337 132.138ZM200.112 134.7H193.712V144.7H200.112V134.7ZM188.909 138.312C187.734 142.377 187.963 146.589 190.58 150.157L198.644 144.243C198.327 143.811 197.957 143.023 198.516 141.088L188.909 138.312ZM190.695 150.307C193.425 153.749 197.402 155.1 201.612 155.1V145.1C199.555 145.1 198.866 144.518 198.53 144.093L190.695 150.307ZM203.655 115.858C202.034 116.506 200.655 117.686 199.577 118.764L206.648 125.836C206.997 125.487 207.25 125.271 207.412 125.15C207.587 125.019 207.568 125.063 207.369 125.142L203.655 115.858ZM199.448 118.898C198.352 120.078 197.289 121.47 196.252 123.026L204.572 128.573C205.401 127.33 206.138 126.389 206.776 125.702L199.448 118.898ZM196.252 123.026C195.249 124.531 194.225 126.191 193.181 128.001L201.843 132.999C202.799 131.342 203.709 129.869 204.572 128.573L196.252 123.026ZM193.11 128.13C192.08 130.042 191.163 132.023 190.358 134.072L199.666 137.728C200.328 136.044 201.077 134.425 201.914 132.87L193.11 128.13ZM195.012 140.9H198.512V130.9H195.012V140.9ZM198.512 140.9C201.149 140.9 203.649 140.062 205.705 138.263L199.12 130.737C199.042 130.805 198.942 130.9 198.512 130.9V140.9ZM205.705 138.263C207.469 136.719 208.825 134.631 209.915 132.374L200.909 128.026C200.133 129.635 199.488 130.414 199.12 130.737L205.705 138.263ZM209.802 132.594C210.709 130.931 211.461 129.282 212.031 127.652L202.593 124.348C202.23 125.384 201.715 126.535 201.023 127.806L209.802 132.594ZM212.031 127.652C212.578 126.09 212.99 124.495 213.099 122.956L203.125 122.244C203.101 122.572 202.979 123.244 202.593 124.348L212.031 127.652ZM213.099 122.956C213.204 121.494 213.081 118.998 211.148 117.064L204.077 124.136C203.511 123.57 203.276 122.97 203.186 122.613C203.105 122.286 203.133 122.127 203.125 122.244L213.099 122.956ZM211.408 117.346C208.729 114.221 204.983 115.327 203.655 115.858L207.369 125.142C207.526 125.08 207.195 125.25 206.549 125.219C206.191 125.202 205.711 125.121 205.187 124.883C204.649 124.639 204.182 124.281 203.816 123.854L211.408 117.346ZM186.587 189.9L186.1 194.876L186.107 194.877L186.115 194.878L186.587 189.9ZM162.287 188.9L162.087 183.904L162.064 183.905L162.04 183.906L162.287 188.9ZM145.387 191.6L143.848 186.843L143.827 186.85L143.806 186.857L145.387 191.6ZM134.287 197.8L130.885 194.136L130.882 194.139L134.287 197.8ZM127.387 207.5L122.729 209.318L127.028 220.334L131.936 209.575L127.387 207.5ZM121.687 199.8L124.986 196.043L124.96 196.02L124.933 195.997L121.687 199.8ZM111.387 194.2L112.991 189.464L112.946 189.449L112.9 189.434L111.387 194.2ZM96.9871 192.2V187.2H96.9562L96.9254 187.2L96.9871 192.2ZM79.2871 195.4L75.6302 191.99L62.4957 206.076L80.8236 200.158L79.2871 195.4ZM92.9871 182.3L89.8086 178.44L89.7918 178.454L89.7751 178.468L92.9871 182.3ZM106.887 172.8L109.294 177.182L109.307 177.175L109.321 177.168L106.887 172.8ZM121.387 166.7L122.794 171.498L122.803 171.495L122.812 171.493L121.387 166.7ZM137.087 164.1L137.328 169.094L137.337 169.094L137.346 169.093L137.087 164.1ZM150.787 164.3L151.367 159.334L151.326 159.329L151.285 159.325L150.787 164.3ZM161.987 166.2L163.222 161.355L163.167 161.341L163.111 161.328L161.987 166.2ZM171.687 169.1L173.362 164.389L173.346 164.383L173.33 164.378L171.687 169.1ZM181.087 172.1L182.487 167.3L182.474 167.296L182.461 167.292L181.087 172.1ZM191.287 174.4L192.198 169.484L192.153 169.475L192.109 169.468L191.287 174.4ZM216.987 173.4L215.478 168.633L215.442 168.645L215.406 168.657L216.987 173.4ZM227.387 168.4L224.507 164.313L224.507 164.313L227.387 168.4ZM234.387 161.4L230.276 158.554L230.251 158.59L230.227 158.626L234.387 161.4ZM237.887 153.6L242.785 154.605L242.788 154.593L242.79 154.581L237.887 153.6ZM237.587 146L232.794 147.425L232.8 147.443L232.805 147.461L237.587 146ZM233.287 139.8L230.164 143.704L230.186 143.722L230.209 143.74L233.287 139.8ZM225.087 137.9L226.461 142.708L226.513 142.693L226.566 142.676L225.087 137.9ZM218.187 144.8L213.846 147.281L218.602 155.604L222.706 146.94L218.187 144.8ZM216.587 142L212.088 139.819L210.938 142.191L212.246 144.481L216.587 142ZM220.387 136.8L217.203 132.945L217.16 132.98L217.119 133.016L220.387 136.8ZM225.187 134.3L224.02 129.438L224.02 129.438L225.187 134.3ZM230.187 134.2L229.207 139.103L229.225 139.107L229.243 139.11L230.187 134.2ZM234.887 136.2L231.981 140.269L232 140.283L232.02 140.296L234.887 136.2ZM242.087 145.4L237.422 147.2L237.436 147.236L237.45 147.271L242.087 145.4ZM243.587 157.5L238.626 156.88L238.626 156.88L243.587 157.5ZM238.887 170.2L234.636 167.568L234.611 167.608L234.588 167.647L238.887 170.2ZM227.987 181.4L225.187 177.258L225.173 177.267L225.159 177.276L227.987 181.4ZM210.687 188.7L211.856 193.562L211.866 193.559L210.687 188.7ZM187.074 184.924C177.402 183.977 169.058 183.625 162.087 183.904L162.487 193.896C168.85 193.642 176.706 193.956 186.1 194.876L187.074 184.924ZM162.04 183.906C155.033 184.253 148.933 185.198 143.848 186.843L146.926 196.357C150.908 195.069 156.074 194.214 162.534 193.894L162.04 183.906ZM143.806 186.857C138.705 188.557 134.329 190.938 130.885 194.136L137.689 201.464C139.846 199.462 142.869 197.71 146.968 196.343L143.806 186.857ZM130.882 194.139C127.502 197.283 124.826 201.067 122.838 205.425L131.936 209.575C133.415 206.333 135.339 203.65 137.693 201.461L130.882 194.139ZM132.045 205.682C130.626 202.045 128.18 198.847 124.986 196.043L118.388 203.557C120.661 205.553 122.015 207.488 122.729 209.318L132.045 205.682ZM124.933 195.997C121.625 193.173 117.601 191.026 112.991 189.464L109.783 198.936C113.44 200.174 116.282 201.76 118.441 203.603L124.933 195.997ZM112.9 189.434C108.115 187.915 102.789 187.2 96.9871 187.2V197.2C101.985 197.2 106.259 197.818 109.874 198.966L112.9 189.434ZM96.9254 187.2C90.9192 187.275 84.5156 188.457 77.7506 190.642L80.8236 200.158C86.8586 198.209 92.255 197.259 97.0488 197.2L96.9254 187.2ZM82.944 198.81C87.4234 194.006 91.8425 189.784 96.1991 186.132L89.7751 178.468C85.065 182.416 80.3508 186.928 75.6302 191.99L82.944 198.81ZM96.1656 186.16C100.479 182.607 104.856 179.62 109.294 177.182L104.48 168.418C99.4512 171.18 94.5615 174.526 89.8086 178.44L96.1656 186.16ZM109.321 177.168C113.671 174.744 118.16 172.857 122.794 171.498L119.98 161.902C114.614 163.476 109.437 165.656 104.454 168.432L109.321 177.168ZM122.812 171.493C127.332 170.149 132.165 169.343 137.328 169.094L136.846 159.106C130.942 159.39 125.309 160.318 119.962 161.907L122.812 171.493ZM137.346 169.093C142.293 168.836 146.599 168.906 150.29 169.275L151.285 159.325C146.975 158.894 142.148 158.83 136.828 159.107L137.346 169.093ZM150.208 169.266C154.048 169.714 157.598 170.318 160.863 171.072L163.111 161.328C159.443 160.482 155.526 159.819 151.367 159.334L150.208 169.266ZM160.752 171.045C164.025 171.879 167.122 172.806 170.045 173.822L173.33 164.378C170.119 163.261 166.749 162.254 163.222 161.355L160.752 171.045ZM170.012 173.811C173.118 174.915 176.352 175.947 179.714 176.908L182.461 167.292C179.289 166.386 176.256 165.418 173.362 164.389L170.012 173.811ZM179.687 176.9C183.094 177.894 186.688 178.702 190.465 179.332L192.109 169.468C188.686 168.898 185.48 168.173 182.487 167.3L179.687 176.9ZM190.377 179.316C194.338 180.05 198.717 180.4 203.487 180.4V170.4C199.19 170.4 195.436 170.083 192.198 169.484L190.377 179.316ZM203.487 180.4C208.927 180.4 213.974 179.675 218.568 178.143L215.406 168.657C212 169.792 208.047 170.4 203.487 170.4V180.4ZM218.497 178.167C222.905 176.771 226.85 174.895 230.267 172.487L224.507 164.313C222.057 166.039 219.069 167.496 215.478 168.633L218.497 178.167ZM230.267 172.487C233.631 170.118 236.425 167.357 238.547 164.174L230.227 158.626C228.882 160.643 227.01 162.549 224.507 164.313L230.267 172.487ZM238.498 164.246C240.61 161.196 242.093 157.979 242.785 154.605L232.989 152.595C232.615 154.421 231.764 156.404 230.276 158.554L238.498 164.246ZM242.79 154.581C243.472 151.172 243.364 147.795 242.369 144.539L232.805 147.461C233.277 149.005 233.369 150.695 232.984 152.619L242.79 154.581ZM242.38 144.575C241.334 141.059 239.272 138.131 236.365 135.86L230.209 143.74C231.568 144.802 232.373 146.008 232.794 147.425L242.38 144.575ZM236.411 135.896C232.696 132.924 228.272 131.68 223.609 133.124L226.566 142.676C227.502 142.387 228.544 142.409 230.164 143.704L236.411 135.896ZM223.714 133.092C219.006 134.437 215.804 138.151 213.668 142.66L222.706 146.94C224.17 143.849 225.568 142.963 226.461 142.708L223.714 133.092ZM222.528 142.319L220.928 139.519L212.246 144.481L213.846 147.281L222.528 142.319ZM221.086 144.181C221.931 142.439 222.82 141.306 223.655 140.584L217.119 133.016C215.021 134.827 213.377 137.161 212.088 139.819L221.086 144.181ZM223.572 140.655C224.612 139.795 225.538 139.358 226.354 139.162L224.02 129.438C221.503 130.042 219.229 131.271 217.203 132.945L223.572 140.655ZM226.354 139.162C227.322 138.93 228.256 138.913 229.207 139.103L231.168 129.297C228.785 128.82 226.385 128.87 224.02 129.438L226.354 139.162ZM229.243 139.11C230.288 139.311 231.182 139.698 231.981 140.269L237.793 132.131C235.792 130.702 233.553 129.756 231.131 129.29L229.243 139.11ZM232.02 140.296C234.538 142.059 236.313 144.326 237.422 147.2L246.752 143.6C244.928 138.874 241.903 135.008 237.754 132.104L232.02 140.296ZM237.45 147.271C238.649 150.242 239.059 153.414 238.626 156.88L248.548 158.12C249.182 153.052 248.592 148.158 246.724 143.529L237.45 147.271ZM238.626 156.88C238.194 160.334 236.913 163.889 234.636 167.568L243.138 172.832C246.061 168.111 247.914 163.199 248.548 158.12L238.626 156.88ZM234.588 167.647C232.484 171.191 229.402 174.408 225.187 177.258L230.787 185.542C236.039 181.992 240.224 177.743 243.186 172.753L234.588 167.647ZM225.159 177.276C221.1 180.06 215.926 182.283 209.508 183.841L211.866 193.559C219.182 191.783 225.541 189.14 230.815 185.524L225.159 177.276ZM209.518 183.838C203.251 185.345 195.793 185.751 187.059 184.922L186.115 194.878C195.648 195.782 204.257 195.388 211.856 193.562L209.518 183.838Z"
        fill="#B70000" mask="url(#path-2-outside-1_579_121)" />
</svg>
    